<svg version="1.1" viewBox="0.0 0.0 675.9160104986877 600.8976377952756" fill="none" stroke="none" stroke-linecap="square" stroke-miterlimit="10" xmlns:xlink="http://www.w3.org/1999/xlink" xmlns="http://www.w3.org/2000/svg"><clipPath id="p.0"><path d="m0 0l675.916 0l0 600.89764l-675.916 0l0 -600.89764z" clip-rule="nonzero"/></clipPath><g clip-path="url(#p.0)"><path fill="#000000" fill-opacity="0.0" d="m0 0l675.916 0l0 600.89764l-675.916 0z" fill-rule="evenodd"/><path fill="#000000" fill-opacity="0.0" d="m2.6277502 2.9186351l95.2756 0l0 95.2756l-95.2756 0z" fill-rule="evenodd"/><path stroke="#000000" stroke-width="3.0" stroke-linejoin="round" stroke-linecap="butt" d="m2.6277502 2.9186351l95.2756 0l0 95.2756l-95.2756 0z" fill-rule="evenodd"/><path fill="#000000" fill-opacity="0.0" d="m98.537865 2.9186351l95.27558 0l0 95.2756l-95.27558 0z" fill-rule="evenodd"/><path stroke="#000000" stroke-width="3.0" stroke-linejoin="round" stroke-linecap="butt" d="m98.537865 2.9186351l95.27558 0l0 95.2756l-95.27558 0z" fill-rule="evenodd"/><path fill="#000000" fill-opacity="0.0" d="m194.62775 2.9186351l95.275604 0l0 95.2756l-95.275604 0z" fill-rule="evenodd"/><path stroke="#000000" stroke-width="3.0" stroke-linejoin="round" stroke-linecap="butt" d="m194.62775 2.9186351l95.275604 0l0 95.2756l-95.275604 0z" fill-rule="evenodd"/><path fill="#000000" fill-opacity="0.0" d="m290.53787 2.9186351l95.27557 0l0 95.2756l-95.27557 0z" fill-rule="evenodd"/><path stroke="#000000" stroke-width="3.0" stroke-linejoin="round" stroke-linecap="butt" d="m290.53787 2.9186351l95.27557 0l0 95.2756l-95.27557 0z" fill-rule="evenodd"/><path fill="#000000" fill-opacity="0.0" d="m386.62775 2.9186351l95.275604 0l0 95.2756l-95.275604 0z" fill-rule="evenodd"/><path stroke="#000000" stroke-width="3.0" stroke-linejoin="round" stroke-linecap="butt" d="m386.62775 2.9186351l95.275604 0l0 95.2756l-95.275604 0z" fill-rule="evenodd"/><path fill="#000000" fill-opacity="0.0" d="m482.53787 2.9186351l95.275604 0l0 95.2756l-95.275604 0z" fill-rule="evenodd"/><path stroke="#000000" stroke-width="3.0" stroke-linejoin="round" stroke-linecap="butt" d="m482.53787 2.9186351l95.275604 0l0 95.2756l-95.275604 0z" fill-rule="evenodd"/><path fill="#000000" fill-opacity="0.0" d="m2.6300504 2.9186351l575.1811 0l0 95.2756l-575.1811 0z" fill-rule="evenodd"/><path fill="#000000" d="m46.794113 64.95643l0 -6.859375l-12.421875 0l0 -3.21875l13.0625 -18.5625l2.875 0l0 18.5625l3.859375 0l0 3.21875l-3.859375 0l0 6.859375l-3.515625 0zm0 -10.078125l0 -12.90625l-8.96875 12.90625l8.96875 0zm102.00781 10.078125l-3.515625 0l0 -22.40625q-1.265625 1.21875 -3.328125 2.4375q-2.0625 1.203125 -3.703125 1.796875l0 -3.390625q2.953125 -1.390625 5.15625 -3.359375q2.203125 -1.96875 3.125 -3.828125l2.265625 0l0 28.75zm86.82031 -7.5625l3.515625 -0.46875q0.59375 2.984375 2.046875 4.3125q1.46875 1.3125 3.546875 1.3125q2.484375 0 4.1875 -1.71875q1.71875 -1.71875 1.71875 -4.25q0 -2.421875 -1.59375 -4.0q-1.578125 -1.578125 -4.015625 -1.578125q-1.0 0 -2.484375 0.390625l0.390625 -3.078125q0.359375 0.03125 0.578125 0.03125q2.234375 0 4.03125 -1.171875q1.796875 -1.171875 1.796875 -3.609375q0 -1.9375 -1.3125 -3.203125q-1.296875 -1.265625 -3.375 -1.265625q-2.046875 0 -3.421875 1.296875q-1.359375 1.28125 -1.75 3.859375l-3.515625 -0.625q0.640625 -3.53125 2.921875 -5.46875q2.296875 -1.953125 5.6875 -1.953125q2.34375 0 4.3125 1.015625q1.984375 1.0 3.03125 2.734375q1.046875 1.734375 1.046875 3.6875q0 1.859375 -1.0 3.390625q-1.0 1.515625 -2.953125 2.40625q2.546875 0.59375 3.953125 2.4375q1.40625 1.84375 1.40625 4.625q0 3.75 -2.734375 6.359375q-2.734375 2.609375 -6.921875 2.609375q-3.765625 0 -6.265625 -2.25q-2.484375 -2.25 -2.828125 -5.828125zm107.37889 4.1875l0 3.375l-18.921875 0q-0.046875 -1.265625 0.40625 -2.4375q0.71875 -1.9375 2.3125 -3.8125q1.59375 -1.875 4.59375 -4.34375q4.671875 -3.828125 6.3125 -6.0625q1.640625 -2.234375 1.640625 -4.21875q0 -2.09375 -1.5 -3.53125q-1.484375 -1.4375 -3.890625 -1.4375q-2.53125 0 -4.0625 1.53125q-1.515625 1.515625 -1.546875 4.21875l-3.609375 -0.375q0.375 -4.046875 2.796875 -6.15625q2.421875 -2.125 6.5 -2.125q4.125 0 6.515625 2.28125q2.40625 2.28125 2.40625 5.671875q0 1.71875 -0.703125 3.375q-0.703125 1.65625 -2.328125 3.5q-1.625 1.828125 -5.421875 5.03125q-3.15625 2.65625 -4.0625 3.609375q-0.890625 0.9375 -1.484375 1.90625l14.046875 0zm81.55469 -4.125l3.703125 -0.3125q0.40625 2.6875 1.890625 4.046875q1.5 1.359375 3.609375 1.359375q2.546875 0 4.296875 -1.90625q1.765625 -1.921875 1.765625 -5.078125q0 -3.015625 -1.703125 -4.75q-1.6875 -1.734375 -4.421875 -1.734375q-1.6875 0 -3.0625 0.765625q-1.359375 0.765625 -2.140625 2.0l-3.3125 -0.421875l2.78125 -14.71875l14.234375 0l0 3.359375l-11.421875 0l-1.546875 7.703125q2.578125 -1.796875 5.40625 -1.796875q3.75 0 6.328125 2.59375q2.578125 2.59375 2.578125 6.6875q0 3.875 -2.265625 6.71875q-2.75 3.46875 -7.515625 3.46875q-3.90625 0 -6.375 -2.1875q-2.46875 -2.1875 -2.828125 -5.796875zm118.28909 -14.125l-3.5 0.28125q-0.46875 -2.078125 -1.328125 -3.015625q-1.421875 -1.5 -3.515625 -1.5q-1.671875 0 -2.953125 0.9375q-1.65625 1.203125 -2.609375 3.53125q-0.953125 2.328125 -1.0 6.625q1.265625 -1.9375 3.09375 -2.875q1.84375 -0.9375 3.859375 -0.9375q3.515625 0 5.984375 2.59375q2.46875 2.578125 2.46875 6.6875q0 2.6875 -1.15625 5.015625q-1.15625 2.3125 -3.1875 3.546875q-2.03125 1.21875 -4.609375 1.21875q-4.40625 0 -7.1875 -3.234375q-2.765625 -3.234375 -2.765625 -10.65625q0 -8.296875 3.078125 -12.0625q2.671875 -3.28125 7.203125 -3.28125q3.375 0 5.53125 1.890625q2.15625 1.890625 2.59375 5.234375zm-14.359375 12.34375q0 1.8125 0.765625 3.484375q0.78125 1.65625 2.15625 2.53125q1.390625 0.859375 2.921875 0.859375q2.21875 0 3.8125 -1.796875q1.609375 -1.796875 1.609375 -4.875q0 -2.96875 -1.578125 -4.671875q-1.578125 -1.71875 -3.984375 -1.71875q-2.375 0 -4.046875 1.71875q-1.65625 1.703125 -1.65625 4.46875z" fill-rule="nonzero"/><path fill="#000000" fill-opacity="0.0" d="m470.35446 145.3924l95.275604 0l0 95.27559l-95.275604 0z" fill-rule="evenodd"/><path stroke="#000000" stroke-width="3.0" stroke-linejoin="round" stroke-linecap="butt" d="m470.35446 145.3924l95.275604 0l0 95.27559l-95.275604 0z" fill-rule="evenodd"/><path fill="#000000" fill-opacity="0.0" d="m2.6248012 98.19423l450.99213 0l0 70.14172l-450.99213 0z" fill-rule="evenodd"/><path fill="#000000" d="m12.812301 122.55423l0 -11.453125l2.25 0l4.687501 7.640625l0 -7.640625l2.15625 0l0 11.453125l-2.328125 0l-4.609376 -7.46875l0 7.46875l-2.15625 0zm16.320312 -2.640625l2.1875 0.359375q-0.421875 1.203125 -1.328125 1.84375q-0.90625 0.625 -2.28125 0.625q-2.15625 0 -3.203125 -1.421875q-0.8125 -1.125 -0.8125 -2.859375q0 -2.0625 1.078125 -3.21875q1.078125 -1.171875 2.71875 -1.171875q1.859375 0 2.921875 1.21875q1.078125 1.21875 1.03125 3.75l-5.5 0q0.015625 0.96875 0.515625 1.515625q0.515625 0.546875 1.28125 0.546875q0.515625 0 0.859375 -0.28125q0.359375 -0.28125 0.53125 -0.90625zm0.125 -2.21875q-0.015625 -0.953125 -0.484375 -1.453125q-0.46875 -0.5 -1.140625 -0.5q-0.71875 0 -1.1875 0.53125q-0.46875 0.515625 -0.46875 1.421875l3.28125 0zm8.7734375 2.21875l2.1875 0.359375q-0.421875 1.203125 -1.328125 1.84375q-0.90625 0.625 -2.28125 0.625q-2.15625 0 -3.203125 -1.421875q-0.8125 -1.125 -0.8125 -2.859375q0 -2.0625 1.078125 -3.21875q1.078125 -1.171875 2.71875 -1.171875q1.859375 0 2.921875 1.21875q1.078125 1.21875 1.03125 3.75l-5.5 0q0.015625 0.96875 0.515625 1.515625q0.515625 0.546875 1.28125 0.546875q0.515625 0 0.859375 -0.28125q0.359375 -0.28125 0.53125 -0.90625zm0.125 -2.21875q-0.015625 -0.953125 -0.484375 -1.453125q-0.46875 -0.5 -1.140625 -0.5q-0.71875 0 -1.1875 0.53125q-0.46875 0.515625 -0.46875 1.421875l3.28125 0zm11.5859375 4.859375l-2.046875 0l0 -1.21875q-0.5 0.703125 -1.203125 1.0625q-0.6875 0.34375 -1.390625 0.34375q-1.421875 0 -2.453125 -1.15625q-1.015625 -1.15625 -1.015625 -3.21875q0 -2.109375 0.984375 -3.203125q1.0 -1.09375 2.515625 -1.09375q1.390625 0 2.40625 1.15625l0 -4.125l2.203125 0l0 11.453125zm-5.859375 -4.328125q0 1.328125 0.359375 1.921875q0.53125 0.859375 1.484375 0.859375q0.765625 0 1.296875 -0.640625q0.53125 -0.65625 0.53125 -1.9375q0 -1.421875 -0.515625 -2.046875q-0.515625 -0.640625 -1.328125 -0.640625q-0.78125 0 -1.3125 0.625q-0.515625 0.625 -0.515625 1.859375zm16.265625 -3.96875l0 1.75l-1.5 0l0 3.34375q0 1.015625 0.046875 1.1875q0.046875 0.15625 0.1875 0.265625q0.15625 0.109375 0.375 0.109375q0.3125 0 0.890625 -0.203125l0.1875 1.703125q-0.765625 0.328125 -1.734375 0.328125q-0.59375 0 -1.078125 -0.203125q-0.46875 -0.203125 -0.703125 -0.515625q-0.21875 -0.3125 -0.296875 -0.859375q-0.078125 -0.375 -0.078125 -1.546875l0 -3.609375l-1.0 0l0 -1.75l1.0 0l0 -1.65625l2.203125 -1.28125l0 2.9375l1.5 0zm1.015625 4.03125q0 -1.09375 0.53125 -2.109375q0.546875 -1.03125 1.53125 -1.5625q1.0 -0.546875 2.21875 -0.546875q1.875 0 3.078125 1.21875q1.203125 1.21875 1.203125 3.09375q0 1.875 -1.21875 3.125q-1.203125 1.234375 -3.046875 1.234375q-1.140625 0 -2.1875 -0.515625q-1.03125 -0.515625 -1.578125 -1.515625q-0.53125 -1.0 -0.53125 -2.421875zm2.25 0.109375q0 1.234375 0.578125 1.890625q0.59375 0.65625 1.453125 0.65625q0.859375 0 1.4375 -0.65625q0.59375 -0.65625 0.59375 -1.90625q0 -1.21875 -0.59375 -1.875q-0.578125 -0.65625 -1.4375 -0.65625q-0.859375 0 -1.453125 0.65625q-0.578125 0.65625 -0.578125 1.890625zm14.125 -1.609375l-2.0 -0.359375q0.34375 -1.203125 1.15625 -1.78125q0.828125 -0.578125 2.4375 -0.578125q1.46875 0 2.1875 0.34375q0.71875 0.34375 1.015625 0.890625q0.296875 0.53125 0.296875 1.953125l-0.03125 2.5625q0 1.09375 0.109375 1.625q0.109375 0.515625 0.390625 1.109375l-2.171875 0q-0.078125 -0.21875 -0.203125 -0.65625q-0.0625 -0.1875 -0.078125 -0.25q-0.5625 0.546875 -1.203125 0.828125q-0.640625 0.265625 -1.375 0.265625q-1.28125 0 -2.015625 -0.6875q-0.734375 -0.703125 -0.734375 -1.765625q0 -0.703125 0.328125 -1.25q0.34375 -0.5625 0.9375 -0.84375q0.609375 -0.296875 1.75 -0.515625q1.546875 -0.296875 2.140625 -0.546875l0 -0.21875q0 -0.625 -0.3125 -0.890625q-0.3125 -0.28125 -1.1875 -0.28125q-0.578125 0 -0.90625 0.234375q-0.328125 0.234375 -0.53125 0.8125zm2.9375 1.78125q-0.421875 0.140625 -1.34375 0.34375q-0.90625 0.1875 -1.1875 0.375q-0.4375 0.296875 -0.4375 0.765625q0 0.46875 0.34375 0.8125q0.34375 0.328125 0.875 0.328125q0.59375 0 1.140625 -0.390625q0.390625 -0.296875 0.515625 -0.734375q0.09375 -0.28125 0.09375 -1.0625l0 -0.4375zm11.9296875 3.984375l-2.046875 0l0 -1.21875q-0.5 0.703125 -1.203125 1.0625q-0.6875 0.34375 -1.390625 0.34375q-1.421875 0 -2.453125 -1.15625q-1.015625 -1.15625 -1.015625 -3.21875q0 -2.109375 0.984375 -3.203125q1.0 -1.09375 2.515625 -1.09375q1.390625 0 2.40625 1.15625l0 -4.125l2.203125 0l0 11.453125zm-5.859375 -4.328125q0 1.328125 0.359375 1.921875q0.53125 0.859375 1.484375 0.859375q0.765625 0 1.296875 -0.640625q0.53125 -0.65625 0.53125 -1.9375q0 -1.421875 -0.515625 -2.046875q-0.515625 -0.640625 -1.328125 -0.640625q-0.78125 0 -1.3125 0.625q-0.515625 0.625 -0.515625 1.859375zm15.6328125 4.328125l-2.046875 0l0 -1.21875q-0.5 0.703125 -1.203125 1.0625q-0.6875 0.34375 -1.390625 0.34375q-1.421875 0 -2.453125 -1.15625q-1.015625 -1.15625 -1.015625 -3.21875q0 -2.109375 0.984375 -3.203125q1.0 -1.09375 2.515625 -1.09375q1.390625 0 2.40625 1.15625l0 -4.125l2.203125 0l0 11.453125zm-5.859375 -4.328125q0 1.328125 0.359375 1.921875q0.53125 0.859375 1.484375 0.859375q0.765625 0 1.296875 -0.640625q0.53125 -0.65625 0.53125 -1.9375q0 -1.421875 -0.515625 -2.046875q-0.515625 -0.640625 -1.328125 -0.640625q-0.78125 0 -1.3125 0.625q-0.515625 0.625 -0.515625 1.859375zm14.109375 -1.4375l-2.0 -0.359375q0.34375 -1.203125 1.15625 -1.78125q0.828125 -0.578125 2.4375 -0.578125q1.46875 0 2.1875 0.34375q0.71875 0.34375 1.015625 0.890625q0.296875 0.53125 0.296875 1.953125l-0.03125 2.5625q0 1.09375 0.109375 1.625q0.109375 0.515625 0.390625 1.109375l-2.171875 0q-0.078125 -0.21875 -0.203125 -0.65625q-0.0625 -0.1875 -0.078125 -0.25q-0.5625 0.546875 -1.203125 0.828125q-0.640625 0.265625 -1.375 0.265625q-1.28125 0 -2.015625 -0.6875q-0.734375 -0.703125 -0.734375 -1.765625q0 -0.703125 0.328125 -1.25q0.34375 -0.5625 0.9375 -0.84375q0.609375 -0.296875 1.75 -0.515625q1.546875 -0.296875 2.140625 -0.546875l0 -0.21875q0 -0.625 -0.3125 -0.890625q-0.3125 -0.28125 -1.1875 -0.28125q-0.578125 0 -0.90625 0.234375q-0.328125 0.234375 -0.53125 0.8125zm2.9375 1.78125q-0.421875 0.140625 -1.34375 0.34375q-0.90625 0.1875 -1.1875 0.375q-0.4375 0.296875 -0.4375 0.765625q0 0.46875 0.34375 0.8125q0.34375 0.328125 0.875 0.328125q0.59375 0 1.140625 -0.390625q0.390625 -0.296875 0.515625 -0.734375q0.09375 -0.28125 0.09375 -1.0625l0 -0.4375zm16.3125 3.984375l-2.203125 0l0 -4.234375q0 -1.34375 -0.140625 -1.734375q-0.140625 -0.40625 -0.453125 -0.625q-0.3125 -0.21875 -0.765625 -0.21875q-0.5625 0 -1.015625 0.3125q-0.453125 0.3125 -0.625 0.828125q-0.171875 0.515625 -0.171875 1.90625l0 3.765625l-2.1875 0l0 -8.296875l2.03125 0l0 1.21875q1.09375 -1.40625 2.734375 -1.40625q0.734375 0 1.328125 0.265625q0.609375 0.25 0.90625 0.65625q0.3125 0.40625 0.4375 0.921875q0.125 0.515625 0.125 1.484375l0 5.15625zm7.0234375 -2.640625l2.1875 0.359375q-0.421875 1.203125 -1.328125 1.84375q-0.90625 0.625 -2.28125 0.625q-2.15625 0 -3.203125 -1.421875q-0.8125 -1.125 -0.8125 -2.859375q0 -2.0625 1.078125 -3.21875q1.078125 -1.171875 2.71875 -1.171875q1.859375 0 2.921875 1.21875q1.078125 1.21875 1.03125 3.75l-5.5 0q0.015625 0.96875 0.515625 1.515625q0.515625 0.546875 1.28125 0.546875q0.515625 0 0.859375 -0.28125q0.359375 -0.28125 0.53125 -0.90625zm0.125 -2.21875q-0.015625 -0.953125 -0.484375 -1.453125q-0.46875 -0.5 -1.140625 -0.5q-0.71875 0 -1.1875 0.53125q-0.46875 0.515625 -0.46875 1.421875l3.28125 0zm5.5234375 4.859375l-2.625 -8.296875l2.125 0l1.5625 5.4375l1.421875 -5.4375l2.125 0l1.375 5.4375l1.59375 -5.4375l2.15625 0l-2.65625 8.296875l-2.109375 0l-1.4375 -5.34375l-1.40625 5.34375l-2.125 0zm20.140625 -2.640625l2.1875 0.359375q-0.421875 1.203125 -1.328125 1.84375q-0.90625 0.625 -2.28125 0.625q-2.15625 0 -3.203125 -1.421875q-0.8125 -1.125 -0.8125 -2.859375q0 -2.0625 1.078125 -3.21875q1.078125 -1.171875 2.71875 -1.171875q1.859375 0 2.921875 1.21875q1.078125 1.21875 1.03125 3.75l-5.5 0q0.015625 0.96875 0.515625 1.515625q0.515625 0.546875 1.28125 0.546875q0.515625 0 0.859375 -0.28125q0.359375 -0.28125 0.53125 -0.90625zm0.125 -2.21875q-0.015625 -0.953125 -0.484375 -1.453125q-0.46875 -0.5 -1.140625 -0.5q-0.71875 0 -1.1875 0.53125q-0.46875 0.515625 -0.46875 1.421875l3.28125 0zm3.9765625 4.859375l0 -11.453125l2.1875 0l0 11.453125l-2.1875 0zm9.2421875 -2.640625l2.1875 0.359375q-0.421875 1.203125 -1.328125 1.84375q-0.90625 0.625 -2.28125 0.625q-2.15625 0 -3.203125 -1.421875q-0.8125 -1.125 -0.8125 -2.859375q0 -2.0625 1.078125 -3.21875q1.078125 -1.171875 2.71875 -1.171875q1.859375 0 2.921875 1.21875q1.078125 1.21875 1.03125 3.75l-5.5 0q0.015625 0.96875 0.515625 1.515625q0.515625 0.546875 1.28125 0.546875q0.515625 0 0.859375 -0.28125q0.359375 -0.28125 0.53125 -0.90625zm0.125 -2.21875q-0.015625 -0.953125 -0.484375 -1.453125q-0.46875 -0.5 -1.140625 -0.5q-0.71875 0 -1.1875 0.53125q-0.46875 0.515625 -0.46875 1.421875l3.28125 0zm3.8046875 -3.4375l2.03125 0l0 1.125q1.078125 -1.3125 2.578125 -1.3125q0.796875 0 1.375 0.328125q0.59375 0.328125 0.96875 0.984375q0.546875 -0.65625 1.171875 -0.984375q0.640625 -0.328125 1.359375 -0.328125q0.921875 0 1.546875 0.375q0.640625 0.359375 0.953125 1.078125q0.21875 0.53125 0.21875 1.71875l0 5.3125l-2.1875 0l0 -4.75q0 -1.234375 -0.234375 -1.59375q-0.296875 -0.46875 -0.9375 -0.46875q-0.453125 0 -0.859375 0.28125q-0.40625 0.28125 -0.59375 0.828125q-0.171875 0.546875 -0.171875 1.71875l0 3.984375l-2.203125 0l0 -4.546875q0 -1.21875 -0.125 -1.5625q-0.109375 -0.359375 -0.359375 -0.53125q-0.234375 -0.171875 -0.65625 -0.171875q-0.515625 0 -0.921875 0.28125q-0.40625 0.265625 -0.578125 0.78125q-0.171875 0.515625 -0.171875 1.71875l0 4.03125l-2.203125 0l0 -8.296875zm19.195312 5.65625l2.1875 0.359375q-0.421875 1.203125 -1.328125 1.84375q-0.90625 0.625 -2.28125 0.625q-2.15625 0 -3.203125 -1.421875q-0.8125 -1.125 -0.8125 -2.859375q0 -2.0625 1.078125 -3.21875q1.078125 -1.171875 2.71875 -1.171875q1.859375 0 2.921875 1.21875q1.078125 1.21875 1.03125 3.75l-5.5 0q0.015625 0.96875 0.515625 1.515625q0.515625 0.546875 1.28125 0.546875q0.515625 0 0.859375 -0.28125q0.359375 -0.28125 0.53125 -0.90625zm0.125 -2.21875q-0.015625 -0.953125 -0.484375 -1.453125q-0.46875 -0.5 -1.140625 -0.5q-0.71875 0 -1.1875 0.53125q-0.46875 0.515625 -0.46875 1.421875l3.28125 0zm11.5234375 4.859375l-2.203125 0l0 -4.234375q0 -1.34375 -0.140625 -1.734375q-0.140625 -0.40625 -0.453125 -0.625q-0.3125 -0.21875 -0.765625 -0.21875q-0.5625 0 -1.015625 0.3125q-0.453125 0.3125 -0.625 0.828125q-0.171875 0.515625 -0.171875 1.90625l0 3.765625l-2.1875 0l0 -8.296875l2.03125 0l0 1.21875q1.09375 -1.40625 2.734375 -1.40625q0.734375 0 1.328125 0.265625q0.609375 0.25 0.90625 0.65625q0.3125 0.40625 0.4375 0.921875q0.125 0.515625 0.125 1.484375l0 5.15625zm6.0234375 -8.296875l0 1.75l-1.5 0l0 3.34375q0 1.015625 0.046875 1.1875q0.046875 0.15625 0.1875 0.265625q0.15625 0.109375 0.375 0.109375q0.3125 0 0.890625 -0.203125l0.1875 1.703125q-0.765625 0.328125 -1.734375 0.328125q-0.59375 0 -1.078125 -0.203125q-0.46875 -0.203125 -0.703125 -0.515625q-0.21875 -0.3125 -0.296875 -0.859375q-0.078125 -0.375 -0.078125 -1.546875l0 -3.609375l-1.0 0l0 -1.75l1.0 0l0 -1.65625l2.203125 -1.28125l0 2.9375l1.5 0zm1.46875 6.09375l2.203125 0l0 1.578125q0 0.953125 -0.171875 1.5q-0.15625 0.5625 -0.625 1.0q-0.453125 0.4375 -1.15625 0.6875l-0.421875 -0.90625q0.65625 -0.21875 0.9375 -0.609375q0.28125 -0.375 0.296875 -1.046875l-1.0625 0l0 -2.203125zm8.859375 2.203125l0 -11.453125l2.1875 0l0 4.125q1.015625 -1.15625 2.40625 -1.15625q1.515625 0 2.5 1.09375q1.0 1.09375 1.0 3.15625q0 2.125 -1.015625 3.28125q-1.0 1.140625 -2.453125 1.140625q-0.703125 0 -1.40625 -0.359375q-0.6875 -0.359375 -1.1875 -1.046875l0 1.21875l-2.03125 0zm2.171875 -4.328125q0 1.28125 0.40625 1.90625q0.578125 0.875 1.515625 0.875q0.734375 0 1.234375 -0.625q0.515625 -0.625 0.515625 -1.953125q0 -1.421875 -0.515625 -2.046875q-0.515625 -0.640625 -1.3125 -0.640625q-0.796875 0 -1.328125 0.625q-0.515625 0.609375 -0.515625 1.859375zm13.1484375 4.328125l0 -1.25q-0.453125 0.671875 -1.1875 1.0625q-0.734375 0.375 -1.5625 0.375q-0.828125 0 -1.5 -0.359375q-0.65625 -0.375 -0.953125 -1.03125q-0.296875 -0.671875 -0.296875 -1.84375l0 -5.25l2.1875 0l0 3.8125q0 1.75 0.125 2.140625q0.125 0.390625 0.4375 0.625q0.328125 0.234375 0.8125 0.234375q0.5625 0 1.0 -0.3125q0.453125 -0.3125 0.609375 -0.765625q0.171875 -0.453125 0.171875 -2.234375l0 -3.5l2.203125 0l0 8.296875l-2.046875 0zm8.1171875 -8.296875l0 1.75l-1.5 0l0 3.34375q0 1.015625 0.046875 1.1875q0.046875 0.15625 0.1875 0.265625q0.15625 0.109375 0.375 0.109375q0.3125 0 0.890625 -0.203125l0.1875 1.703125q-0.765625 0.328125 -1.734375 0.328125q-0.59375 0 -1.078125 -0.203125q-0.46875 -0.203125 -0.703125 -0.515625q-0.21875 -0.3125 -0.296875 -0.859375q-0.078125 -0.375 -0.078125 -1.546875l0 -3.609375l-1.0 0l0 -1.75l1.0 0l0 -1.65625l2.203125 -1.28125l0 2.9375l1.5 0zm7.6171722 2.53125l-2.0 -0.359375q0.34375 -1.203125 1.15625 -1.78125q0.828125 -0.578125 2.4375 -0.578125q1.46875 0 2.1875 0.34375q0.71875 0.34375 1.015625 0.890625q0.296875 0.53125 0.296875 1.953125l-0.03125 2.5625q0 1.09375 0.109375 1.625q0.109375 0.515625 0.390625 1.109375l-2.171875 0q-0.078125 -0.21875 -0.203125 -0.65625q-0.0625 -0.1875 -0.078125 -0.25q-0.5625 0.546875 -1.203125 0.828125q-0.640625 0.265625 -1.375 0.265625q-1.28125 0 -2.015625 -0.6875q-0.73435974 -0.703125 -0.73435974 -1.765625q0 -0.703125 0.32810974 -1.25q0.34375 -0.5625 0.9375 -0.84375q0.609375 -0.296875 1.75 -0.515625q1.546875 -0.296875 2.140625 -0.546875l0 -0.21875q0 -0.625 -0.3125 -0.890625q-0.3125 -0.28125 -1.1875 -0.28125q-0.578125 0 -0.90625 0.234375q-0.328125 0.234375 -0.53125 0.8125zm2.9375 1.78125q-0.421875 0.140625 -1.34375 0.34375q-0.90625 0.1875 -1.1875 0.375q-0.4375 0.296875 -0.4375 0.765625q0 0.46875 0.34375 0.8125q0.34375 0.328125 0.875 0.328125q0.59375 0 1.140625 -0.390625q0.390625 -0.296875 0.515625 -0.734375q0.09375 -0.28125 0.09375 -1.0625l0 -0.4375zm6.4140625 3.984375l-2.1875 0l0 -8.296875l2.03125 0l0 1.171875q0.53125 -0.828125 0.9375 -1.09375q0.421875 -0.265625 0.953125 -0.265625q0.75 0 1.453125 0.40625l-0.6875 1.921875q-0.546875 -0.359375 -1.03125 -0.359375q-0.453125 0 -0.78125 0.25q-0.3125 0.25 -0.5 0.921875q-0.1875 0.65625 -0.1875 2.78125l0 2.5625zm6.2265625 0l-2.1875 0l0 -8.296875l2.03125 0l0 1.171875q0.53125 -0.828125 0.9375 -1.09375q0.421875 -0.265625 0.953125 -0.265625q0.75 0 1.453125 0.40625l-0.6875 1.921875q-0.546875 -0.359375 -1.03125 -0.359375q-0.453125 0 -0.78125 0.25q-0.3125 0.25 -0.5 0.921875q-0.1875 0.65625 -0.1875 2.78125l0 2.5625zm5.7734375 -5.765625l-2.0 -0.359375q0.34375 -1.203125 1.15625 -1.78125q0.828125 -0.578125 2.4375 -0.578125q1.46875 0 2.1875 0.34375q0.71875 0.34375 1.015625 0.890625q0.296875 0.53125 0.296875 1.953125l-0.03125 2.5625q0 1.09375 0.109375 1.625q0.109375 0.515625 0.390625 1.109375l-2.171875 0q-0.078125 -0.21875 -0.203125 -0.65625q-0.0625 -0.1875 -0.078125 -0.25q-0.5625 0.546875 -1.203125 0.828125q-0.640625 0.265625 -1.375 0.265625q-1.28125 0 -2.015625 -0.6875q-0.734375 -0.703125 -0.734375 -1.765625q0 -0.703125 0.328125 -1.25q0.34375 -0.5625 0.9375 -0.84375q0.609375 -0.296875 1.75 -0.515625q1.546875 -0.296875 2.140625 -0.546875l0 -0.21875q0 -0.625 -0.3125 -0.890625q-0.3125 -0.28125 -1.1875 -0.28125q-0.578125 0 -0.90625 0.234375q-0.328125 0.234375 -0.53125 0.8125zm2.9375 1.78125q-0.421875 0.140625 -1.34375 0.34375q-0.90625 0.1875 -1.1875 0.375q-0.4375 0.296875 -0.4375 0.765625q0 0.46875 0.34375 0.8125q0.34375 0.328125 0.875 0.328125q0.59375 0 1.140625 -0.390625q0.390625 -0.296875 0.515625 -0.734375q0.09375 -0.28125 0.09375 -1.0625l0 -0.4375zm3.2734375 -4.3125l2.34375 0l1.984375 5.890625l1.9375 -5.890625l2.265625 0l-2.921875 7.984375l-0.53125 1.453125q-0.28125 0.71875 -0.546875 1.09375q-0.265625 0.390625 -0.609375 0.625q-0.328125 0.25 -0.828125 0.375q-0.5 0.140625 -1.125 0.140625q-0.625 0 -1.234375 -0.140625l-0.203125 -1.71875q0.515625 0.109375 0.9375 0.109375q0.765625 0 1.125 -0.453125q0.375 -0.453125 0.5625 -1.140625l-3.15625 -8.328125zm14.390625 -1.125l0 -2.03125l2.1875 0l0 2.03125l-2.1875 0zm0 9.421875l0 -8.296875l2.1875 0l0 8.296875l-2.1875 0zm3.6640625 -2.375l2.203125 -0.328125q0.140625 0.640625 0.5625 0.96875q0.4375 0.328125 1.21875 0.328125q0.84375 0 1.28125 -0.3125q0.28125 -0.21875 0.28125 -0.578125q0 -0.25 -0.15625 -0.421875q-0.15625 -0.15625 -0.734375 -0.28125q-2.65625 -0.59375 -3.359375 -1.078125q-0.984375 -0.671875 -0.984375 -1.859375q0 -1.078125 0.84375 -1.8125q0.859375 -0.734375 2.640625 -0.734375q1.703125 0 2.53125 0.5625q0.828125 0.546875 1.140625 1.625l-2.0625 0.390625q-0.140625 -0.484375 -0.515625 -0.734375q-0.359375 -0.265625 -1.046875 -0.265625q-0.875 0 -1.25 0.234375q-0.25 0.171875 -0.25 0.453125q0 0.234375 0.21875 0.390625q0.296875 0.21875 2.046875 0.625q1.765625 0.390625 2.453125 0.96875q0.6875 0.59375 0.6875 1.640625q0 1.140625 -0.953125 1.96875q-0.953125 0.8125 -2.8125 0.8125q-1.703125 0 -2.6875 -0.6875q-0.984375 -0.6875 -1.296875 -1.875zm13.15625 -5.921875l1.21875 0l0 -0.625q0 -1.046875 0.21875 -1.5625q0.234375 -0.515625 0.828125 -0.84375q0.59375 -0.328125 1.515625 -0.328125q0.9375 0 1.828125 0.28125l-0.296875 1.53125q-0.515625 -0.125 -1.0 -0.125q-0.484375 0 -0.6875 0.234375q-0.203125 0.21875 -0.203125 0.84375l0 0.59375l1.640625 0l0 1.71875l-1.640625 0l0 6.578125l-2.203125 0l0 -6.578125l-1.21875 0l0 -1.71875zm11.75 8.296875l0 -1.25q-0.453125 0.671875 -1.1875 1.0625q-0.734375 0.375 -1.5625 0.375q-0.828125 0 -1.5 -0.359375q-0.65625 -0.375 -0.953125 -1.03125q-0.296875 -0.671875 -0.296875 -1.84375l0 -5.25l2.1875 0l0 3.8125q0 1.75 0.125 2.140625q0.125 0.390625 0.4375 0.625q0.328125 0.234375 0.8125 0.234375q0.5625 0 1.0 -0.3125q0.453125 -0.3125 0.609375 -0.765625q0.171875 -0.453125 0.171875 -2.234375l0 -3.5l2.203125 0l0 8.296875l-2.046875 0zm4.3203125 0l0 -11.453125l2.1875 0l0 11.453125l-2.1875 0zm4.4453125 0l0 -11.453125l2.1875 0l0 11.453125l-2.1875 0zm4.4453125 0l0 -2.203125l2.1875 0l0 2.203125l-2.1875 0z" fill-rule="nonzero"/><path fill="#000000" d="m21.031052 137.5386l1.515625 0.375q-0.46875 1.875 -1.71875 2.859375q-1.234375 0.984375 -3.015625 0.984375q-1.859376 0 -3.015626 -0.75q-1.15625 -0.765625 -1.765625 -2.1875q-0.609375 -1.4375 -0.609375 -3.078125q0 -1.796875 0.6875 -3.125q0.6875 -1.328125 1.9375 -2.015625q1.265626 -0.703125 2.781251 -0.703125q1.71875 0 2.890625 0.875q1.171875 0.875 1.640625 2.46875l-1.5 0.34375q-0.390625 -1.25 -1.15625 -1.8125q-0.75 -0.578125 -1.90625 -0.578125q-1.3125 0 -2.203126 0.640625q-0.890625 0.625 -1.25 1.703125q-0.359375 1.0625 -0.359375 2.1875q0 1.46875 0.421875 2.5625q0.4375 1.078125 1.328125 1.625q0.90625095 0.53125 1.953126 0.53125q1.265625 0 2.140625 -0.734375q0.890625 -0.734375 1.203125 -2.171875zm8.6171875 2.984375q-0.78125 0.671875 -1.5 0.953125q-0.71875 0.265625 -1.546875 0.265625q-1.375 0 -2.109375 -0.671875q-0.734375 -0.671875 -0.734375 -1.703125q0 -0.609375 0.28125 -1.109375q0.28125 -0.515625 0.71875 -0.8125q0.453125 -0.3125 1.015625 -0.46875q0.421875 -0.109375 1.25 -0.203125q1.703125 -0.203125 2.515625 -0.484375q0 -0.296875 0 -0.375q0 -0.859375 -0.390625 -1.203125q-0.546875 -0.484375 -1.609375 -0.484375q-0.984375 0 -1.46875 0.359375q-0.46875 0.34375 -0.6875 1.21875l-1.375 -0.1875q0.1875 -0.875 0.609375 -1.421875q0.4375 -0.546875 1.25 -0.828125q0.8125 -0.296875 1.875 -0.296875q1.0625 0 1.71875 0.25q0.671875 0.25 0.984375 0.625q0.3125 0.375 0.4375 0.953125q0.078125 0.359375 0.078125 1.296875l0 1.875q0 1.96875 0.078125 2.484375q0.09375 0.515625 0.359375 1.0l-1.46875 0q-0.21875 -0.4375 -0.28125 -1.03125zm-0.109375 -3.140625q-0.765625 0.3125 -2.296875 0.53125q-0.875 0.125 -1.234375 0.28125q-0.359375 0.15625 -0.5625 0.46875q-0.1875 0.296875 -0.1875 0.65625q0 0.5625 0.421875 0.9375q0.4375 0.375 1.25 0.375q0.8125 0 1.4375 -0.34375q0.640625 -0.359375 0.9375 -0.984375q0.234375 -0.46875 0.234375 -1.40625l0 -0.515625zm3.6015625 7.359375l0 -11.484375l1.28125 0l0 1.078125q0.453125 -0.640625 1.015625 -0.953125q0.578125 -0.3125 1.390625 -0.3125q1.0625 0 1.875 0.546875q0.8125 0.546875 1.21875 1.546875q0.421875 0.984375 0.421875 2.171875q0 1.28125 -0.46875 2.296875q-0.453125 1.015625 -1.328125 1.5625q-0.859375 0.546875 -1.828125 0.546875q-0.703125 0 -1.265625 -0.296875q-0.546875 -0.296875 -0.90625 -0.75l0 4.046875l-1.40625 0zm1.265625 -7.296875q0 1.609375 0.640625 2.375q0.65625 0.765625 1.578125 0.765625q0.9375 0 1.609375 -0.796875q0.671875 -0.796875 0.671875 -2.453125q0 -1.59375 -0.65625 -2.375q-0.65625 -0.796875 -1.5625 -0.796875q-0.890625 0 -1.59375 0.84375q-0.6875 0.84375 -0.6875 2.4375zm13.0390625 3.078125q-0.78125 0.671875 -1.5 0.953125q-0.71875 0.265625 -1.546875 0.265625q-1.375 0 -2.109375 -0.671875q-0.734375 -0.671875 -0.734375 -1.703125q0 -0.609375 0.28125 -1.109375q0.28125 -0.515625 0.71875 -0.8125q0.453125 -0.3125 1.015625 -0.46875q0.421875 -0.109375 1.25 -0.203125q1.703125 -0.203125 2.515625 -0.484375q0 -0.296875 0 -0.375q0 -0.859375 -0.390625 -1.203125q-0.546875 -0.484375 -1.609375 -0.484375q-0.984375 0 -1.46875 0.359375q-0.46875 0.34375 -0.6875 1.21875l-1.375 -0.1875q0.1875 -0.875 0.609375 -1.421875q0.4375 -0.546875 1.25 -0.828125q0.8125 -0.296875 1.875 -0.296875q1.0625 0 1.71875 0.25q0.671875 0.25 0.984375 0.625q0.3125 0.375 0.4375 0.953125q0.078125 0.359375 0.078125 1.296875l0 1.875q0 1.96875 0.078125 2.484375q0.09375 0.515625 0.359375 1.0l-1.46875 0q-0.21875 -0.4375 -0.28125 -1.03125zm-0.109375 -3.140625q-0.765625 0.3125 -2.296875 0.53125q-0.875 0.125 -1.234375 0.28125q-0.359375 0.15625 -0.5625 0.46875q-0.1875 0.296875 -0.1875 0.65625q0 0.5625 0.421875 0.9375q0.4375 0.375 1.25 0.375q0.8125 0 1.4375 -0.34375q0.640625 -0.359375 0.9375 -0.984375q0.234375 -0.46875 0.234375 -1.40625l0 -0.515625zm9.0078125 1.125l1.390625 0.1875q-0.234375 1.421875 -1.171875 2.234375q-0.921875 0.8125 -2.28125 0.8125q-1.703125 0 -2.75 -1.109375q-1.03125 -1.125 -1.03125 -3.203125q0 -1.34375 0.4375 -2.34375q0.453125 -1.015625 1.359375 -1.515625q0.921875 -0.5 1.984375 -0.5q1.359375 0 2.21875 0.6875q0.859375 0.671875 1.09375 1.9375l-1.359375 0.203125q-0.203125 -0.828125 -0.703125 -1.25q-0.484375 -0.421875 -1.1875 -0.421875q-1.0625 0 -1.734375 0.765625q-0.65625 0.75 -0.65625 2.40625q0 1.671875 0.640625 2.4375q0.640625 0.75 1.671875 0.75q0.828125 0 1.375 -0.5q0.5625 -0.515625 0.703125 -1.578125zm2.59375 -6.796875l0 -1.609375l1.40625 0l0 1.609375l-1.40625 0zm0 9.84375l0 -8.296875l1.40625 0l0 8.296875l-1.40625 0zm6.6171875 -1.265625l0.203125 1.25q-0.59375 0.125 -1.0625 0.125q-0.765625 0 -1.1875 -0.234375q-0.421875 -0.25 -0.59375 -0.640625q-0.171875 -0.40625 -0.171875 -1.671875l0 -4.765625l-1.03125 0l0 -1.09375l1.03125 0l0 -2.0625l1.40625 -0.84375l0 2.90625l1.40625 0l0 1.09375l-1.40625 0l0 4.84375q0 0.609375 0.0625 0.78125q0.078125 0.171875 0.25 0.28125q0.171875 0.09375 0.484375 0.09375q0.234375 0 0.609375 -0.0625zm1.3203125 4.46875l-0.15625 -1.328125q0.453125 0.125 0.796875 0.125q0.46875 0 0.75 -0.15625q0.28125 -0.15625 0.46875 -0.4375q0.125 -0.203125 0.421875 -1.046875q0.046875 -0.109375 0.125 -0.34375l-3.140625 -8.3125l1.515625 0l1.71875 4.796875q0.34375 0.921875 0.609375 1.921875q0.234375 -0.96875 0.578125 -1.890625l1.765625 -4.828125l1.40625 0l-3.15625 8.4375q-0.5 1.375 -0.78125 1.890625q-0.375 0.6875 -0.859375 1.015625q-0.484375 0.328125 -1.15625 0.328125q-0.40625 0 -0.90625 -0.171875zm19.898438 -9.9375l-7.5625 0l0 -1.3125l7.5625 0l0 1.3125zm0 3.46875l-7.5625 0l0 -1.3125l7.5625 0l0 1.3125zm13.3046875 -5.390625l-1.40625 0.109375q-0.1875 -0.828125 -0.53125 -1.203125q-0.5625 -0.59375 -1.40625 -0.59375q-0.671875 0 -1.171875 0.375q-0.671875 0.484375 -1.0625 1.421875q-0.375 0.921875 -0.390625 2.640625q0.515625 -0.78125 1.25 -1.15625q0.734375 -0.375 1.53125 -0.375q1.40625 0 2.390625 1.046875q1.0 1.03125 1.0 2.671875q0 1.078125 -0.46875 2.0q-0.46875 0.921875 -1.28125 1.421875q-0.8125 0.5 -1.84375 0.5q-1.75 0 -2.859375 -1.296875q-1.109375 -1.296875 -1.109375 -4.265625q0 -3.328125 1.21875 -4.828125q1.078125 -1.3125 2.890625 -1.3125q1.34375 0 2.203125 0.765625q0.875 0.75 1.046875 2.078125zm-5.75 4.9375q0 0.734375 0.3125 1.40625q0.3125 0.65625 0.859375 1.0q0.5625 0.34375 1.171875 0.34375q0.890625 0 1.53125 -0.71875q0.640625 -0.71875 0.640625 -1.953125q0 -1.1875 -0.640625 -1.859375q-0.625 -0.6875 -1.59375 -0.6875q-0.953125 0 -1.625 0.6875q-0.65625 0.671875 -0.65625 1.78125z" fill-rule="nonzero"/><path fill="#000000" d="m12.343551 156.86673l1.4375 -0.125q0.09375 0.859375 0.46875 1.421875q0.375 0.546875 1.15625 0.890625q0.78125095 0.328125 1.750001 0.328125q0.875 0 1.53125 -0.25q0.671875 -0.265625 0.984375 -0.703125q0.328125 -0.453125 0.328125 -0.984375q0 -0.546875 -0.3125 -0.9375q-0.3125 -0.40625 -1.03125 -0.6875q-0.453125 -0.171875 -2.03125 -0.546875q-1.578126 -0.390625 -2.218751 -0.71875q-0.8125 -0.4375 -1.21875 -1.0625q-0.40625 -0.640625 -0.40625 -1.4375q0 -0.859375 0.484375 -1.609375q0.5 -0.765625 1.4375 -1.15625q0.953125 -0.390625 2.109376 -0.390625q1.28125 0 2.25 0.421875q0.96875 0.40625 1.484375 1.203125q0.53125 0.796875 0.578125 1.796875l-1.453125 0.109375q-0.125 -1.078125 -0.796875 -1.625q-0.671875 -0.5625 -2.0 -0.5625q-1.375001 0 -2.000001 0.5q-0.625 0.5 -0.625 1.21875q0 0.609375 0.4375 1.015625q0.4375 0.390625 2.281251 0.8125q1.859375 0.421875 2.546875 0.734375q1.0 0.453125 1.46875 1.171875q0.484375 0.703125 0.484375 1.625q0 0.90625 -0.53125 1.71875q-0.515625 0.8125 -1.5 1.265625q-0.984375 0.453125 -2.203125 0.453125q-1.562501 0 -2.609376 -0.453125q-1.046875 -0.46875 -1.65625 -1.375q-0.59375 -0.90625 -0.625 -2.0625zm11.015626 -6.15625l0 -1.609375l1.40625 0l0 1.609375l-1.40625 0zm0 9.84375l0 -8.296875l1.40625 0l0 8.296875l-1.40625 0zm2.8046875 0l0 -1.140625l5.28125 -6.0625q-0.890625 0.046875 -1.578125 0.046875l-3.390625 0l0 -1.140625l6.78125 0l0 0.921875l-4.484375 5.265625l-0.875 0.96875q0.953125 -0.078125 1.78125 -0.078125l3.828125 0l0 1.21875l-7.34375 0zm14.421875 -2.671875l1.453125 0.171875q-0.34375 1.28125 -1.28125 1.984375q-0.921875 0.703125 -2.359375 0.703125q-1.828125 0 -2.890625 -1.125q-1.0625 -1.125 -1.0625 -3.140625q0 -2.09375 1.078125 -3.25q1.078125 -1.15625 2.796875 -1.15625q1.65625 0 2.703125 1.140625q1.0625 1.125 1.0625 3.171875q0 0.125 0 0.375l-6.1875 0q0.078125 1.375 0.765625 2.109375q0.703125 0.71875 1.734375 0.71875q0.78125 0 1.328125 -0.40625q0.546875 -0.40625 0.859375 -1.296875zm-4.609375 -2.28125l4.625 0q-0.09375 -1.046875 -0.53125 -1.5625q-0.671875 -0.8125 -1.734375 -0.8125q-0.96875 0 -1.640625 0.65625q-0.65625 0.640625 -0.71875 1.71875zm19.671875 -1.78125l-7.5625 0l0 -1.3125l7.5625 0l0 1.3125zm0 3.46875l-7.5625 0l0 -1.3125l7.5625 0l0 1.3125zm13.3046875 -5.390625l-1.40625 0.109375q-0.1875 -0.828125 -0.53125 -1.203125q-0.5625 -0.59375 -1.40625 -0.59375q-0.671875 0 -1.171875 0.375q-0.671875 0.484375 -1.0625 1.421875q-0.375 0.921875 -0.390625 2.640625q0.515625 -0.78125 1.25 -1.15625q0.734375 -0.375 1.53125 -0.375q1.40625 0 2.390625 1.046875q1.0 1.03125 1.0 2.671875q0 1.078125 -0.46875 2.0q-0.46875 0.921875 -1.28125 1.421875q-0.8125 0.5 -1.84375 0.5q-1.75 0 -2.859375 -1.296875q-1.109375 -1.296875 -1.109375 -4.265625q0 -3.328125 1.21875 -4.828125q1.078125 -1.3125 2.890625 -1.3125q1.34375 0 2.203125 0.765625q0.875 0.75 1.046875 2.078125zm-5.75 4.9375q0 0.734375 0.3125 1.40625q0.3125 0.65625 0.859375 1.0q0.5625 0.34375 1.171875 0.34375q0.890625 0 1.53125 -0.71875q0.640625 -0.71875 0.640625 -1.953125q0 -1.1875 -0.640625 -1.859375q-0.625 -0.6875 -1.59375 -0.6875q-0.953125 0 -1.625 0.6875q-0.65625 0.671875 -0.65625 1.78125z" fill-rule="nonzero"/><path fill="#000000" d="m582.3702 197.0315l33.05121 0l0 -29.181107l-6.6102295 0l13.220459 -13.220459l13.220459 13.220459l-6.6102295 0l0 42.40158l-46.271667 0z" fill-rule="evenodd"/><path fill="#000000" fill-opacity="0.0" d="m470.36154 145.3924l95.275604 0l0 95.27559l-95.275604 0z" fill-rule="evenodd"/><path fill="#000000" d="m508.76694 182.53955l0 -3.375l18.546844 0l0 2.734375q-2.734375 2.90625 -5.421875 7.734375q-2.6875 4.828125 -4.15625 9.921875q-1.046875 3.59375 -1.34375 7.875l-3.609375 0q0.046875 -3.375 1.3125 -8.15625q1.28125 -4.796875 3.65625 -9.234375q2.375 -4.453125 5.046875 -7.5l-14.0312195 0z" fill-rule="nonzero"/><path fill="#990000" d="m590.5776 113.14698l0 0c0 -17.873154 14.489014 -32.362206 32.362183 -32.362206l0 0c8.583008 0 16.814453 3.409584 22.883545 9.478676c6.069092 6.069084 9.478638 14.300537 9.478638 22.88353l0 0c0 17.873146 -14.489014 32.362206 -32.362183 32.362206l0 0c-17.873169 0 -32.362183 -14.489059 -32.362183 -32.362206zm50.1709 9.589325c4.234741 -7.8644867 2.8094482 -17.575562 -3.5065308 -23.891533c-6.315918 -6.3159714 -16.027039 -7.7412567 -23.89148 -3.5065308zm-35.61743 -19.178642l0 0c-4.234741 7.8644867 -2.8094482 17.575554 3.5065308 23.891525c6.315979 6.315979 16.027039 7.7412567 23.89154 3.5065308z" fill-rule="evenodd"/><path fill="#000000" fill-opacity="0.0" d="m2.6251254 287.86615l95.2756 0l0 95.27557l-95.2756 0z" fill-rule="evenodd"/><path stroke="#000000" stroke-width="3.0" stroke-linejoin="round" stroke-linecap="butt" d="m2.6251254 287.86615l95.2756 0l0 95.27557l-95.2756 0z" fill-rule="evenodd"/><path fill="#000000" fill-opacity="0.0" d="m98.53524 287.86615l95.27558 0l0 95.27557l-95.27558 0z" fill-rule="evenodd"/><path stroke="#000000" stroke-width="3.0" stroke-linejoin="round" stroke-linecap="butt" d="m98.53524 287.86615l95.27558 0l0 95.27557l-95.27558 0z" fill-rule="evenodd"/><path fill="#000000" fill-opacity="0.0" d="m194.62512 287.86615l95.275604 0l0 95.27557l-95.275604 0z" fill-rule="evenodd"/><path stroke="#000000" stroke-width="3.0" stroke-linejoin="round" stroke-linecap="butt" d="m194.62512 287.86615l95.275604 0l0 95.27557l-95.275604 0z" fill-rule="evenodd"/><path fill="#000000" fill-opacity="0.0" d="m290.53525 287.86615l95.27557 0l0 95.27557l-95.27557 0z" fill-rule="evenodd"/><path stroke="#000000" stroke-width="3.0" stroke-linejoin="round" stroke-linecap="butt" d="m290.53525 287.86615l95.27557 0l0 95.27557l-95.27557 0z" fill-rule="evenodd"/><path fill="#000000" fill-opacity="0.0" d="m386.62512 287.86615l95.275604 0l0 95.27557l-95.275604 0z" fill-rule="evenodd"/><path stroke="#000000" stroke-width="3.0" stroke-linejoin="round" stroke-linecap="butt" d="m386.62512 287.86615l95.275604 0l0 95.27557l-95.275604 0z" fill-rule="evenodd"/><path fill="#000000" fill-opacity="0.0" d="m482.53525 287.86615l95.275604 0l0 95.27557l-95.275604 0z" fill-rule="evenodd"/><path stroke="#000000" stroke-width="3.0" stroke-linejoin="round" stroke-linecap="butt" d="m482.53525 287.86615l95.275604 0l0 95.27557l-95.275604 0z" fill-rule="evenodd"/><path fill="#000000" fill-opacity="0.0" d="m2.6248012 217.73753l450.99213 0l0 70.14174l-450.99213 0z" fill-rule="evenodd"/><path fill="#000000" d="m19.718552 235.19238l0 2.046875l-7.687501 0q0.125 -1.15625 0.75 -2.1875q0.625 -1.046875 2.46875 -2.75q1.484376 -1.390625 1.812501 -1.875q0.453125 -0.6875 0.453125 -1.34375q0 -0.734375 -0.390625 -1.125q-0.390625 -0.40625 -1.09375 -0.40625q-0.68750095 0 -1.093751 0.421875q-0.40625 0.40625 -0.46875 1.375l-2.1875 -0.21875q0.203125 -1.8125 1.234375 -2.59375q1.03125 -0.796875 2.578126 -0.796875q1.6875 0 2.65625 0.921875q0.96875 0.90625 0.96875 2.265625q0 0.765625 -0.28125 1.46875q-0.265625 0.703125 -0.875 1.46875q-0.390625 0.5 -1.4375 1.453125q-1.03125 0.953125 -1.312501 1.265625q-0.28125 0.3125 -0.453125 0.609375l4.359376 0zm1.3515625 5.421875q0.640625 -1.390625 0.90625 -2.140625q0.265625 -0.734375 0.484375 -1.703125q0.234375 -0.984375 0.34375 -1.84375q0.109375 -0.875 0.109375 -1.796875q0 -1.859375 -0.40625 -3.515625q-0.390625 -1.65625 -1.453125 -4.03125l1.484375 0q1.1875 1.6875 1.828125 3.578125q0.65625 1.875 0.65625 3.8125q0 1.625 -0.515625 3.5q-0.578125 2.09375 -1.921875 4.140625l-1.515625 0zm17.726562 -7.59375l2.234375 0.71875q-0.515625 1.875 -1.71875 2.796875q-1.1875 0.90625 -3.03125 0.90625q-2.28125 0 -3.75 -1.5625q-1.46875 -1.5625 -1.46875 -4.265625q0 -2.859375 1.46875 -4.4375q1.484375 -1.59375 3.890625 -1.59375q2.09375 0 3.40625 1.25q0.78125 0.734375 1.171875 2.109375l-2.28125 0.546875q-0.203125 -0.890625 -0.859375 -1.40625q-0.640625 -0.515625 -1.5625 -0.515625q-1.265625 0 -2.0625 0.921875q-0.796875 0.90625 -0.796875 2.953125q0 2.171875 0.78125 3.09375q0.78125 0.921875 2.03125 0.921875q0.921875 0 1.578125 -0.578125q0.671875 -0.59375 0.96875 -1.859375zm6.3046875 4.21875l-2.1875 0l0 -8.296875l2.03125 0l0 1.171875q0.53125 -0.828125 0.9375 -1.09375q0.421875 -0.265625 0.953125 -0.265625q0.75 0 1.453125 0.40625l-0.6875 1.921875q-0.546875 -0.359375 -1.03125 -0.359375q-0.453125 0 -0.78125 0.25q-0.3125 0.25 -0.5 0.921875q-0.1875 0.65625 -0.1875 2.78125l0 2.5625zm8.9296875 -2.640625l2.1875 0.359375q-0.421875 1.203125 -1.328125 1.84375q-0.90625 0.625 -2.28125 0.625q-2.15625 0 -3.203125 -1.421875q-0.8125 -1.125 -0.8125 -2.859375q0 -2.0625 1.078125 -3.21875q1.078125 -1.171875 2.71875 -1.171875q1.859375 0 2.921875 1.21875q1.078125 1.21875 1.03125 3.75l-5.5 0q0.015625 0.96875 0.515625 1.515625q0.515625 0.546875 1.28125 0.546875q0.515625 0 0.859375 -0.28125q0.359375 -0.28125 0.53125 -0.90625zm0.125 -2.21875q-0.015625 -0.953125 -0.484375 -1.453125q-0.46875 -0.5 -1.140625 -0.5q-0.71875 0 -1.1875 0.53125q-0.46875 0.515625 -0.46875 1.421875l3.28125 0zm5.6171875 -0.90625l-2.0 -0.359375q0.34375 -1.203125 1.15625 -1.78125q0.828125 -0.578125 2.4375 -0.578125q1.46875 0 2.1875 0.34375q0.71875 0.34375 1.015625 0.890625q0.296875 0.53125 0.296875 1.953125l-0.03125 2.5625q0 1.09375 0.109375 1.625q0.109375 0.515625 0.390625 1.109375l-2.171875 0q-0.078125 -0.21875 -0.203125 -0.65625q-0.0625 -0.1875 -0.078125 -0.25q-0.5625 0.546875 -1.203125 0.828125q-0.640625 0.265625 -1.375 0.265625q-1.28125 0 -2.015625 -0.6875q-0.734375 -0.703125 -0.734375 -1.765625q0 -0.703125 0.328125 -1.25q0.34375 -0.5625 0.9375 -0.84375q0.609375 -0.296875 1.75 -0.515625q1.546875 -0.296875 2.140625 -0.546875l0 -0.21875q0 -0.625 -0.3125 -0.890625q-0.3125 -0.28125 -1.1875 -0.28125q-0.578125 0 -0.90625 0.234375q-0.328125 0.234375 -0.53125 0.8125zm2.9375 1.78125q-0.421875 0.140625 -1.34375 0.34375q-0.90625 0.1875 -1.1875 0.375q-0.4375 0.296875 -0.4375 0.765625q0 0.46875 0.34375 0.8125q0.34375 0.328125 0.875 0.328125q0.59375 0 1.140625 -0.390625q0.390625 -0.296875 0.515625 -0.734375q0.09375 -0.28125 0.09375 -1.0625l0 -0.4375zm8.1171875 -4.3125l0 1.75l-1.5 0l0 3.34375q0 1.015625 0.046875 1.1875q0.046875 0.15625 0.1875 0.265625q0.15625 0.109375 0.375 0.109375q0.3125 0 0.890625 -0.203125l0.1875 1.703125q-0.765625 0.328125 -1.734375 0.328125q-0.59375 0 -1.078125 -0.203125q-0.46875 -0.203125 -0.703125 -0.515625q-0.21875 -0.3125 -0.296875 -0.859375q-0.078125 -0.375 -0.078125 -1.546875l0 -3.609375l-1.0 0l0 -1.75l1.0 0l0 -1.65625l2.203125 -1.28125l0 2.9375l1.5 0zm6.328125 5.65625l2.1875 0.359375q-0.421875 1.203125 -1.328125 1.84375q-0.90625 0.625 -2.28125 0.625q-2.15625 0 -3.203125 -1.421875q-0.8125 -1.125 -0.8125 -2.859375q0 -2.0625 1.078125 -3.21875q1.078125 -1.171875 2.71875 -1.171875q1.859375 0 2.921875 1.21875q1.078125 1.21875 1.03125 3.75l-5.5 0q0.015625 0.96875 0.515625 1.515625q0.515625 0.546875 1.28125 0.546875q0.515625 0 0.859375 -0.28125q0.359375 -0.28125 0.53125 -0.90625zm0.125 -2.21875q-0.015625 -0.953125 -0.484375 -1.453125q-0.46875 -0.5 -1.140625 -0.5q-0.71875 0 -1.1875 0.53125q-0.46875 0.515625 -0.46875 1.421875l3.28125 0zm15.96875 4.859375l-2.203125 0l0 -4.234375q0 -1.34375 -0.140625 -1.734375q-0.140625 -0.40625 -0.453125 -0.625q-0.3125 -0.21875 -0.765625 -0.21875q-0.5625 0 -1.015625 0.3125q-0.453125 0.3125 -0.625 0.828125q-0.171875 0.515625 -0.171875 1.90625l0 3.765625l-2.1875 0l0 -8.296875l2.03125 0l0 1.21875q1.09375 -1.40625 2.734375 -1.40625q0.734375 0 1.328125 0.265625q0.609375 0.25 0.90625 0.65625q0.3125 0.40625 0.4375 0.921875q0.125 0.515625 0.125 1.484375l0 5.15625zm7.0234375 -2.640625l2.1875 0.359375q-0.421875 1.203125 -1.328125 1.84375q-0.90625 0.625 -2.28125 0.625q-2.15625 0 -3.203125 -1.421875q-0.8125 -1.125 -0.8125 -2.859375q0 -2.0625 1.078125 -3.21875q1.078125 -1.171875 2.71875 -1.171875q1.859375 0 2.921875 1.21875q1.078125 1.21875 1.03125 3.75l-5.5 0q0.015625 0.96875 0.515625 1.515625q0.515625 0.546875 1.28125 0.546875q0.515625 0 0.859375 -0.28125q0.359375 -0.28125 0.53125 -0.90625zm0.125 -2.21875q-0.015625 -0.953125 -0.484375 -1.453125q-0.46875 -0.5 -1.140625 -0.5q-0.71875 0 -1.1875 0.53125q-0.46875 0.515625 -0.46875 1.421875l3.28125 0zm5.5234375 4.859375l-2.625 -8.296875l2.125 0l1.5625 5.4375l1.421875 -5.4375l2.125 0l1.375 5.4375l1.59375 -5.4375l2.15625 0l-2.65625 8.296875l-2.109375 0l-1.4375 -5.34375l-1.40625 5.34375l-2.125 0zm16.984375 -5.765625l-2.0 -0.359375q0.34375 -1.203125 1.15625 -1.78125q0.828125 -0.578125 2.4375 -0.578125q1.46875 0 2.1875 0.34375q0.71875 0.34375 1.015625 0.890625q0.296875 0.53125 0.296875 1.953125l-0.03125 2.5625q0 1.09375 0.109375 1.625q0.109375 0.515625 0.390625 1.109375l-2.171875 0q-0.078125 -0.21875 -0.203125 -0.65625q-0.0625 -0.1875 -0.078125 -0.25q-0.5625 0.546875 -1.203125 0.828125q-0.640625 0.265625 -1.375 0.265625q-1.28125 0 -2.015625 -0.6875q-0.734375 -0.703125 -0.734375 -1.765625q0 -0.703125 0.328125 -1.25q0.34375 -0.5625 0.9375 -0.84375q0.609375 -0.296875 1.75 -0.515625q1.546875 -0.296875 2.140625 -0.546875l0 -0.21875q0 -0.625 -0.3125 -0.890625q-0.3125 -0.28125 -1.1875 -0.28125q-0.578125 0 -0.90625 0.234375q-0.328125 0.234375 -0.53125 0.8125zm2.9375 1.78125q-0.421875 0.140625 -1.34375 0.34375q-0.90625 0.1875 -1.1875 0.375q-0.4375 0.296875 -0.4375 0.765625q0 0.46875 0.34375 0.8125q0.34375 0.328125 0.875 0.328125q0.59375 0 1.140625 -0.390625q0.390625 -0.296875 0.515625 -0.734375q0.09375 -0.28125 0.09375 -1.0625l0 -0.4375zm6.4140625 3.984375l-2.1875 0l0 -8.296875l2.03125 0l0 1.171875q0.53125 -0.828125 0.9375 -1.09375q0.421875 -0.265625 0.953125 -0.265625q0.75 0 1.453125 0.40625l-0.6875 1.921875q-0.546875 -0.359375 -1.03125 -0.359375q-0.453125 0 -0.78125 0.25q-0.3125 0.25 -0.5 0.921875q-0.1875 0.65625 -0.1875 2.78125l0 2.5625zm6.2265625 0l-2.1875 0l0 -8.296875l2.03125 0l0 1.171875q0.53125 -0.828125 0.9375 -1.09375q0.421875 -0.265625 0.953125 -0.265625q0.75 0 1.453125 0.40625l-0.6875 1.921875q-0.546875 -0.359375 -1.03125 -0.359375q-0.453125 0 -0.78125 0.25q-0.3125 0.25 -0.5 0.921875q-0.1875 0.65625 -0.1875 2.78125l0 2.5625zm5.7734375 -5.765625l-2.0 -0.359375q0.34375 -1.203125 1.15625 -1.78125q0.828125 -0.578125 2.4375 -0.578125q1.46875 0 2.1875 0.34375q0.71875 0.34375 1.015625 0.890625q0.296875 0.53125 0.296875 1.953125l-0.03125 2.5625q0 1.09375 0.109375 1.625q0.109375 0.515625 0.390625 1.109375l-2.171875 0q-0.078125 -0.21875 -0.203125 -0.65625q-0.0625 -0.1875 -0.078125 -0.25q-0.5625 0.546875 -1.203125 0.828125q-0.640625 0.265625 -1.375 0.265625q-1.28125 0 -2.015625 -0.6875q-0.734375 -0.703125 -0.734375 -1.765625q0 -0.703125 0.328125 -1.25q0.34375 -0.5625 0.9375 -0.84375q0.609375 -0.296875 1.75 -0.515625q1.546875 -0.296875 2.140625 -0.546875l0 -0.21875q0 -0.625 -0.3125 -0.890625q-0.3125 -0.28125 -1.1875 -0.28125q-0.578125 0 -0.90625 0.234375q-0.328125 0.234375 -0.53125 0.8125zm2.9375 1.78125q-0.421875 0.140625 -1.34375 0.34375q-0.90625 0.1875 -1.1875 0.375q-0.4375 0.296875 -0.4375 0.765625q0 0.46875 0.34375 0.8125q0.34375 0.328125 0.875 0.328125q0.59375 0 1.140625 -0.390625q0.390625 -0.296875 0.515625 -0.734375q0.09375 -0.28125 0.09375 -1.0625l0 -0.4375zm3.2734375 -4.3125l2.34375 0l1.984375 5.890625l1.9375 -5.890625l2.265625 0l-2.921875 7.984375l-0.53125 1.453125q-0.28125 0.71875 -0.546875 1.09375q-0.265625 0.390625 -0.609375 0.625q-0.328125 0.25 -0.828125 0.375q-0.5 0.140625 -1.125 0.140625q-0.625 0 -1.234375 -0.140625l-0.203125 -1.71875q0.515625 0.109375 0.9375 0.109375q0.765625 0 1.125 -0.453125q0.375 -0.453125 0.5625 -1.140625l-3.15625 -8.328125zm14.390625 -1.125l0 -2.03125l2.1875 0l0 2.03125l-2.1875 0zm0 9.421875l0 -8.296875l2.1875 0l0 8.296875l-2.1875 0zm11.9921875 0l-2.203125 0l0 -4.234375q0 -1.34375 -0.140625 -1.734375q-0.140625 -0.40625 -0.453125 -0.625q-0.3125 -0.21875 -0.765625 -0.21875q-0.5625 0 -1.015625 0.3125q-0.453125 0.3125 -0.625 0.828125q-0.171875 0.515625 -0.171875 1.90625l0 3.765625l-2.1875 0l0 -8.296875l2.03125 0l0 1.21875q1.09375 -1.40625 2.734375 -1.40625q0.734375 0 1.328125 0.265625q0.609375 0.25 0.90625 0.65625q0.3125 0.40625 0.4375 0.921875q0.125 0.515625 0.125 1.484375l0 5.15625zm6.5 -8.296875l2.03125 0l0 1.125q1.078125 -1.3125 2.578125 -1.3125q0.796875 0 1.375 0.328125q0.59375 0.328125 0.96875 0.984375q0.546875 -0.65625 1.171875 -0.984375q0.640625 -0.328125 1.359375 -0.328125q0.921875 0 1.546875 0.375q0.640625 0.359375 0.953125 1.078125q0.21875 0.53125 0.21875 1.71875l0 5.3125l-2.1875 0l0 -4.75q0 -1.234375 -0.234375 -1.59375q-0.296875 -0.46875 -0.9375 -0.46875q-0.453125 0 -0.859375 0.28125q-0.40625 0.28125 -0.59375 0.828125q-0.171875 0.546875 -0.171875 1.71875l0 3.984375l-2.203125 0l0 -4.546875q0 -1.21875 -0.125 -1.5625q-0.109375 -0.359375 -0.359375 -0.53125q-0.234375 -0.171875 -0.65625 -0.171875q-0.515625 0 -0.921875 0.28125q-0.40625 0.265625 -0.578125 0.78125q-0.171875 0.515625 -0.171875 1.71875l0 4.03125l-2.203125 0l0 -8.296875zm19.195312 5.65625l2.1875 0.359375q-0.421875 1.203125 -1.328125 1.84375q-0.90625 0.625 -2.28125 0.625q-2.15625 0 -3.203125 -1.421875q-0.8125 -1.125 -0.8125 -2.859375q0 -2.0625 1.078125 -3.21875q1.078125 -1.171875 2.71875 -1.171875q1.859375 0 2.921875 1.21875q1.078125 1.21875 1.03125 3.75l-5.5 0q0.015625 0.96875 0.515625 1.515625q0.515625 0.546875 1.28125 0.546875q0.515625 0 0.859375 -0.28125q0.359375 -0.28125 0.53125 -0.90625zm0.125 -2.21875q-0.015625 -0.953125 -0.484375 -1.453125q-0.46875 -0.5 -1.140625 -0.5q-0.71875 0 -1.1875 0.53125q-0.46875 0.515625 -0.46875 1.421875l3.28125 0zm3.8046875 -3.4375l2.03125 0l0 1.125q1.078125 -1.3125 2.578125 -1.3125q0.796875 0 1.375 0.328125q0.59375 0.328125 0.96875 0.984375q0.546875 -0.65625 1.171875 -0.984375q0.640625 -0.328125 1.359375 -0.328125q0.921875 0 1.546875 0.375q0.640625 0.359375 0.953125 1.078125q0.21875 0.53125 0.21875 1.71875l0 5.3125l-2.1875 0l0 -4.75q0 -1.234375 -0.234375 -1.59375q-0.296875 -0.46875 -0.9375 -0.46875q-0.453125 0 -0.859375 0.28125q-0.40625 0.28125 -0.59375 0.828125q-0.171875 0.546875 -0.171875 1.71875l0 3.984375l-2.203125 0l0 -4.546875q0 -1.21875 -0.125 -1.5625q-0.109375 -0.359375 -0.359375 -0.53125q-0.234375 -0.171875 -0.65625 -0.171875q-0.515625 0 -0.921875 0.28125q-0.40625 0.265625 -0.578125 0.78125q-0.171875 0.515625 -0.171875 1.71875l0 4.03125l-2.203125 0l0 -8.296875zm13.8828125 4.03125q0 -1.09375 0.53125 -2.109375q0.546875 -1.03125 1.53125 -1.5625q1.0 -0.546875 2.21875 -0.546875q1.875 0 3.078125 1.21875q1.203125 1.21875 1.203125 3.09375q0 1.875 -1.21875 3.125q-1.203125 1.234375 -3.046875 1.234375q-1.140625 0 -2.1875 -0.515625q-1.03125 -0.515625 -1.578125 -1.515625q-0.53125 -1.0 -0.53125 -2.421875zm2.25 0.109375q0 1.234375 0.578125 1.890625q0.59375 0.65625 1.453125 0.65625q0.859375 0 1.4375 -0.65625q0.59375 -0.65625 0.59375 -1.90625q0 -1.21875 -0.59375 -1.875q-0.578125 -0.65625 -1.4375 -0.65625q-0.859375 0 -1.453125 0.65625q-0.578125 0.65625 -0.578125 1.890625zm10.1328125 4.15625l-2.1875 0l0 -8.296875l2.03125 0l0 1.171875q0.53125 -0.828125 0.9375 -1.09375q0.421875 -0.265625 0.953125 -0.265625q0.75 0 1.453125 0.40625l-0.6875 1.921875q-0.546875 -0.359375 -1.03125 -0.359375q-0.453125 0 -0.78125 0.25q-0.3125 0.25 -0.5 0.921875q-0.1875 0.65625 -0.1875 2.78125l0 2.5625zm3.0859375 -8.296875l2.34375 0l1.984375 5.890625l1.9375 -5.890625l2.265625 0l-2.921875 7.984375l-0.53125 1.453125q-0.28125 0.71875 -0.546875 1.09375q-0.265625 0.390625 -0.609375 0.625q-0.328125 0.25 -0.828125 0.375q-0.5 0.140625 -1.125 0.140625q-0.625 0 -1.234375 -0.140625l-0.203125 -1.71875q0.515625 0.109375 0.9375 0.109375q0.765625 0 1.125 -0.453125q0.375 -0.453125 0.5625 -1.140625l-3.15625 -8.328125zm9.9453125 8.296875l0 -2.203125l2.1875 0l0 2.203125l-2.1875 0z" fill-rule="nonzero"/><path fill="#000000" d="m21.031052 252.22363l1.515625 0.375q-0.46875 1.875 -1.71875 2.859375q-1.234375 0.984375 -3.015625 0.984375q-1.859376 0 -3.015626 -0.75q-1.15625 -0.765625 -1.765625 -2.1875q-0.609375 -1.4375 -0.609375 -3.078125q0 -1.796875 0.6875 -3.125q0.6875 -1.328125 1.9375 -2.015625q1.265626 -0.703125 2.781251 -0.703125q1.71875 0 2.890625 0.875q1.171875 0.875 1.640625 2.46875l-1.5 0.34375q-0.390625 -1.25 -1.15625 -1.8125q-0.75 -0.578125 -1.90625 -0.578125q-1.3125 0 -2.203126 0.640625q-0.890625 0.625 -1.25 1.703125q-0.359375 1.0625 -0.359375 2.1875q0 1.46875 0.421875 2.5625q0.4375 1.078125 1.328125 1.625q0.90625095 0.53125 1.953126 0.53125q1.265625 0 2.140625 -0.734375q0.890625 -0.734375 1.203125 -2.171875zm8.6171875 2.984375q-0.78125 0.671875 -1.5 0.953125q-0.71875 0.265625 -1.546875 0.265625q-1.375 0 -2.109375 -0.671875q-0.734375 -0.671875 -0.734375 -1.703125q0 -0.609375 0.28125 -1.109375q0.28125 -0.515625 0.71875 -0.8125q0.453125 -0.3125 1.015625 -0.46875q0.421875 -0.109375 1.25 -0.203125q1.703125 -0.203125 2.515625 -0.484375q0 -0.296875 0 -0.375q0 -0.859375 -0.390625 -1.203125q-0.546875 -0.484375 -1.609375 -0.484375q-0.984375 0 -1.46875 0.359375q-0.46875 0.34375 -0.6875 1.21875l-1.375 -0.1875q0.1875 -0.875 0.609375 -1.421875q0.4375 -0.546875 1.25 -0.828125q0.8125 -0.296875 1.875 -0.296875q1.0625 0 1.71875 0.25q0.671875 0.25 0.984375 0.625q0.3125 0.375 0.4375 0.953125q0.078125 0.359375 0.078125 1.296875l0 1.875q0 1.96875 0.078125 2.484375q0.09375 0.515625 0.359375 1.0l-1.46875 0q-0.21875 -0.4375 -0.28125 -1.03125zm-0.109375 -3.140625q-0.765625 0.3125 -2.296875 0.53125q-0.875 0.125 -1.234375 0.28125q-0.359375 0.15625 -0.5625 0.46875q-0.1875 0.296875 -0.1875 0.65625q0 0.5625 0.421875 0.9375q0.4375 0.375 1.25 0.375q0.8125 0 1.4375 -0.34375q0.640625 -0.359375 0.9375 -0.984375q0.234375 -0.46875 0.234375 -1.40625l0 -0.515625zm3.6015625 7.359375l0 -11.484375l1.28125 0l0 1.078125q0.453125 -0.640625 1.015625 -0.953125q0.578125 -0.3125 1.390625 -0.3125q1.0625 0 1.875 0.546875q0.8125 0.546875 1.21875 1.546875q0.421875 0.984375 0.421875 2.171875q0 1.28125 -0.46875 2.296875q-0.453125 1.015625 -1.328125 1.5625q-0.859375 0.546875 -1.828125 0.546875q-0.703125 0 -1.265625 -0.296875q-0.546875 -0.296875 -0.90625 -0.75l0 4.046875l-1.40625 0zm1.265625 -7.296875q0 1.609375 0.640625 2.375q0.65625 0.765625 1.578125 0.765625q0.9375 0 1.609375 -0.796875q0.671875 -0.796875 0.671875 -2.453125q0 -1.59375 -0.65625 -2.375q-0.65625 -0.796875 -1.5625 -0.796875q-0.890625 0 -1.59375 0.84375q-0.6875 0.84375 -0.6875 2.4375zm13.0390625 3.078125q-0.78125 0.671875 -1.5 0.953125q-0.71875 0.265625 -1.546875 0.265625q-1.375 0 -2.109375 -0.671875q-0.734375 -0.671875 -0.734375 -1.703125q0 -0.609375 0.28125 -1.109375q0.28125 -0.515625 0.71875 -0.8125q0.453125 -0.3125 1.015625 -0.46875q0.421875 -0.109375 1.25 -0.203125q1.703125 -0.203125 2.515625 -0.484375q0 -0.296875 0 -0.375q0 -0.859375 -0.390625 -1.203125q-0.546875 -0.484375 -1.609375 -0.484375q-0.984375 0 -1.46875 0.359375q-0.46875 0.34375 -0.6875 1.21875l-1.375 -0.1875q0.1875 -0.875 0.609375 -1.421875q0.4375 -0.546875 1.25 -0.828125q0.8125 -0.296875 1.875 -0.296875q1.0625 0 1.71875 0.25q0.671875 0.25 0.984375 0.625q0.3125 0.375 0.4375 0.953125q0.078125 0.359375 0.078125 1.296875l0 1.875q0 1.96875 0.078125 2.484375q0.09375 0.515625 0.359375 1.0l-1.46875 0q-0.21875 -0.4375 -0.28125 -1.03125zm-0.109375 -3.140625q-0.765625 0.3125 -2.296875 0.53125q-0.875 0.125 -1.234375 0.28125q-0.359375 0.15625 -0.5625 0.46875q-0.1875 0.296875 -0.1875 0.65625q0 0.5625 0.421875 0.9375q0.4375 0.375 1.25 0.375q0.8125 0 1.4375 -0.34375q0.640625 -0.359375 0.9375 -0.984375q0.234375 -0.46875 0.234375 -1.40625l0 -0.515625zm9.0078125 1.125l1.390625 0.1875q-0.234375 1.421875 -1.171875 2.234375q-0.921875 0.8125 -2.28125 0.8125q-1.703125 0 -2.75 -1.109375q-1.03125 -1.125 -1.03125 -3.203125q0 -1.34375 0.4375 -2.34375q0.453125 -1.015625 1.359375 -1.515625q0.921875 -0.5 1.984375 -0.5q1.359375 0 2.21875 0.6875q0.859375 0.671875 1.09375 1.9375l-1.359375 0.203125q-0.203125 -0.828125 -0.703125 -1.25q-0.484375 -0.421875 -1.1875 -0.421875q-1.0625 0 -1.734375 0.765625q-0.65625 0.75 -0.65625 2.40625q0 1.671875 0.640625 2.4375q0.640625 0.75 1.671875 0.75q0.828125 0 1.375 -0.5q0.5625 -0.515625 0.703125 -1.578125zm2.59375 -6.796875l0 -1.609375l1.40625 0l0 1.609375l-1.40625 0zm0 9.84375l0 -8.296875l1.40625 0l0 8.296875l-1.40625 0zm6.6171875 -1.265625l0.203125 1.25q-0.59375 0.125 -1.0625 0.125q-0.765625 0 -1.1875 -0.234375q-0.421875 -0.25 -0.59375 -0.640625q-0.171875 -0.40625 -0.171875 -1.671875l0 -4.765625l-1.03125 0l0 -1.09375l1.03125 0l0 -2.0625l1.40625 -0.84375l0 2.90625l1.40625 0l0 1.09375l-1.40625 0l0 4.84375q0 0.609375 0.0625 0.78125q0.078125 0.171875 0.25 0.28125q0.171875 0.09375 0.484375 0.09375q0.234375 0 0.609375 -0.0625zm1.3203125 4.46875l-0.15625 -1.328125q0.453125 0.125 0.796875 0.125q0.46875 0 0.75 -0.15625q0.28125 -0.15625 0.46875 -0.4375q0.125 -0.203125 0.421875 -1.046875q0.046875 -0.109375 0.125 -0.34375l-3.140625 -8.3125l1.515625 0l1.71875 4.796875q0.34375 0.921875 0.609375 1.921875q0.234375 -0.96875 0.578125 -1.890625l1.765625 -4.828125l1.40625 0l-3.15625 8.4375q-0.5 1.375 -0.78125 1.890625q-0.375 0.6875 -0.859375 1.015625q-0.484375 0.328125 -1.15625 0.328125q-0.40625 0 -0.90625 -0.171875zm19.898438 -9.9375l-7.5625 0l0 -1.3125l7.5625 0l0 1.3125zm0 3.46875l-7.5625 0l0 -1.3125l7.5625 0l0 1.3125zm6.1015625 -6.6875l0 -1.359375l7.40625 0l0 1.09375q-1.09375 1.171875 -2.171875 3.109375q-1.0625 1.921875 -1.65625 3.953125q-0.421875 1.4375 -0.53125 3.15625l-1.453125 0q0.03125 -1.359375 0.53125 -3.265625q0.515625 -1.921875 1.453125 -3.6875q0.953125 -1.78125 2.03125 -3.0l-5.609375 0z" fill-rule="nonzero"/><path fill="#000000" d="m12.343551 271.55176l1.4375 -0.125q0.09375 0.859375 0.46875 1.421875q0.375 0.546875 1.15625 0.890625q0.78125095 0.328125 1.750001 0.328125q0.875 0 1.53125 -0.25q0.671875 -0.265625 0.984375 -0.703125q0.328125 -0.453125 0.328125 -0.984375q0 -0.546875 -0.3125 -0.9375q-0.3125 -0.40625 -1.03125 -0.6875q-0.453125 -0.171875 -2.03125 -0.546875q-1.578126 -0.390625 -2.218751 -0.71875q-0.8125 -0.4375 -1.21875 -1.0625q-0.40625 -0.640625 -0.40625 -1.4375q0 -0.859375 0.484375 -1.609375q0.5 -0.765625 1.4375 -1.15625q0.953125 -0.390625 2.109376 -0.390625q1.28125 0 2.25 0.421875q0.96875 0.40625 1.484375 1.203125q0.53125 0.796875 0.578125 1.796875l-1.453125 0.109375q-0.125 -1.078125 -0.796875 -1.625q-0.671875 -0.5625 -2.0 -0.5625q-1.375001 0 -2.000001 0.5q-0.625 0.5 -0.625 1.21875q0 0.609375 0.4375 1.015625q0.4375 0.390625 2.281251 0.8125q1.859375 0.421875 2.546875 0.734375q1.0 0.453125 1.46875 1.171875q0.484375 0.703125 0.484375 1.625q0 0.90625 -0.53125 1.71875q-0.515625 0.8125 -1.5 1.265625q-0.984375 0.453125 -2.203125 0.453125q-1.562501 0 -2.609376 -0.453125q-1.046875 -0.46875 -1.65625 -1.375q-0.59375 -0.90625 -0.625 -2.0625zm11.015626 -6.15625l0 -1.609375l1.40625 0l0 1.609375l-1.40625 0zm0 9.84375l0 -8.296875l1.40625 0l0 8.296875l-1.40625 0zm2.8046875 0l0 -1.140625l5.28125 -6.0625q-0.890625 0.046875 -1.578125 0.046875l-3.390625 0l0 -1.140625l6.78125 0l0 0.921875l-4.484375 5.265625l-0.875 0.96875q0.953125 -0.078125 1.78125 -0.078125l3.828125 0l0 1.21875l-7.34375 0zm14.421875 -2.671875l1.453125 0.171875q-0.34375 1.28125 -1.28125 1.984375q-0.921875 0.703125 -2.359375 0.703125q-1.828125 0 -2.890625 -1.125q-1.0625 -1.125 -1.0625 -3.140625q0 -2.09375 1.078125 -3.25q1.078125 -1.15625 2.796875 -1.15625q1.65625 0 2.703125 1.140625q1.0625 1.125 1.0625 3.171875q0 0.125 0 0.375l-6.1875 0q0.078125 1.375 0.765625 2.109375q0.703125 0.71875 1.734375 0.71875q0.78125 0 1.328125 -0.40625q0.546875 -0.40625 0.859375 -1.296875zm-4.609375 -2.28125l4.625 0q-0.09375 -1.046875 -0.53125 -1.5625q-0.671875 -0.8125 -1.734375 -0.8125q-0.96875 0 -1.640625 0.65625q-0.65625 0.640625 -0.71875 1.71875zm19.671875 -1.78125l-7.5625 0l0 -1.3125l7.5625 0l0 1.3125zm0 3.46875l-7.5625 0l0 -1.3125l7.5625 0l0 1.3125zm6.0078125 -2.390625q0 -2.03125 0.40625 -3.265625q0.421875 -1.234375 1.25 -1.90625q0.828125 -0.671875 2.078125 -0.671875q0.921875 0 1.609375 0.375q0.703125 0.359375 1.15625 1.0625q0.453125 0.703125 0.703125 1.703125q0.265625 1.0 0.265625 2.703125q0 2.015625 -0.421875 3.265625q-0.40625 1.234375 -1.234375 1.921875q-0.828125 0.671875 -2.078125 0.671875q-1.65625 0 -2.609375 -1.203125q-1.125 -1.421875 -1.125 -4.65625zm1.4375 0q0 2.828125 0.65625 3.765625q0.671875 0.921875 1.640625 0.921875q0.96875 0 1.625 -0.9375q0.65625 -0.9375 0.65625 -3.75q0 -2.828125 -0.65625 -3.75q-0.65625 -0.9375 -1.640625 -0.9375q-0.96875 0 -1.546875 0.828125q-0.734375 1.046875 -0.734375 3.859375z" fill-rule="nonzero"/><path fill="#000000" fill-opacity="0.0" d="m578.0156 287.86615l95.27557 0l0 95.27557l-95.27557 0z" fill-rule="evenodd"/><path stroke="#000000" stroke-width="3.0" stroke-linejoin="round" stroke-linecap="butt" d="m578.0156 287.86615l95.27557 0l0 95.27557l-95.27557 0z" fill-rule="evenodd"/><path fill="#000000" fill-opacity="0.0" d="m2.6277502 502.7034l95.2756 0l0 95.275604l-95.2756 0z" fill-rule="evenodd"/><path stroke="#000000" stroke-width="3.0" stroke-linejoin="round" stroke-linecap="butt" d="m2.6277502 502.7034l95.2756 0l0 95.275604l-95.2756 0z" fill-rule="evenodd"/><path fill="#000000" fill-opacity="0.0" d="m98.537865 502.7034l95.27558 0l0 95.275604l-95.27558 0z" fill-rule="evenodd"/><path stroke="#000000" stroke-width="3.0" stroke-linejoin="round" stroke-linecap="butt" d="m98.537865 502.7034l95.27558 0l0 95.275604l-95.27558 0z" fill-rule="evenodd"/><path fill="#000000" fill-opacity="0.0" d="m194.62775 502.7034l95.275604 0l0 95.275604l-95.275604 0z" fill-rule="evenodd"/><path stroke="#000000" stroke-width="3.0" stroke-linejoin="round" stroke-linecap="butt" d="m194.62775 502.7034l95.275604 0l0 95.275604l-95.275604 0z" fill-rule="evenodd"/><path fill="#000000" fill-opacity="0.0" d="m290.53787 502.7034l95.27557 0l0 95.275604l-95.27557 0z" fill-rule="evenodd"/><path stroke="#000000" stroke-width="3.0" stroke-linejoin="round" stroke-linecap="butt" d="m290.53787 502.7034l95.27557 0l0 95.275604l-95.27557 0z" fill-rule="evenodd"/><path fill="#000000" fill-opacity="0.0" d="m386.62775 502.7034l95.275604 0l0 95.275604l-95.275604 0z" fill-rule="evenodd"/><path stroke="#000000" stroke-width="3.0" stroke-linejoin="round" stroke-linecap="butt" d="m386.62775 502.7034l95.275604 0l0 95.275604l-95.275604 0z" fill-rule="evenodd"/><path fill="#000000" fill-opacity="0.0" d="m482.53787 502.7034l95.275604 0l0 95.275604l-95.275604 0z" fill-rule="evenodd"/><path stroke="#000000" stroke-width="3.0" stroke-linejoin="round" stroke-linecap="butt" d="m482.53787 502.7034l95.275604 0l0 95.275604l-95.275604 0z" fill-rule="evenodd"/><path fill="#000000" fill-opacity="0.0" d="m2.6300504 502.7034l575.1811 0l0 95.275604l-575.1811 0z" fill-rule="evenodd"/><path fill="#000000" d="m46.794113 564.7412l0 -6.859375l-12.421875 0l0 -3.21875l13.0625 -18.5625l2.875 0l0 18.5625l3.859375 0l0 3.21875l-3.859375 0l0 6.859375l-3.515625 0zm0 -10.078125l0 -12.90625l-8.96875 12.90625l8.96875 0zm102.00781 10.078125l-3.515625 0l0 -22.40625q-1.265625 1.21875 -3.328125 2.4375q-2.0625 1.203125 -3.703125 1.796875l0 -3.390625q2.953125 -1.390625 5.15625 -3.359375q2.203125 -1.96875 3.125 -3.828125l2.265625 0l0 28.75zm86.82031 -7.5625l3.515625 -0.46875q0.59375 2.984375 2.046875 4.3125q1.46875 1.3125 3.546875 1.3125q2.484375 0 4.1875 -1.71875q1.71875 -1.71875 1.71875 -4.25q0 -2.421875 -1.59375 -4.0q-1.578125 -1.578125 -4.015625 -1.578125q-1.0 0 -2.484375 0.390625l0.390625 -3.078125q0.359375 0.03125 0.578125 0.03125q2.234375 0 4.03125 -1.171875q1.796875 -1.171875 1.796875 -3.609375q0 -1.9375 -1.3125 -3.203125q-1.296875 -1.265625 -3.375 -1.265625q-2.046875 0 -3.421875 1.296875q-1.359375 1.28125 -1.75 3.859375l-3.515625 -0.625q0.640625 -3.53125 2.921875 -5.46875q2.296875 -1.953125 5.6875 -1.953125q2.34375 0 4.3125 1.015625q1.984375 1.0 3.03125 2.734375q1.046875 1.734375 1.046875 3.6875q0 1.859375 -1.0 3.390625q-1.0 1.515625 -2.953125 2.40625q2.546875 0.59375 3.953125 2.4375q1.40625 1.84375 1.40625 4.625q0 3.75 -2.734375 6.359375q-2.734375 2.609375 -6.921875 2.609375q-3.765625 0 -6.265625 -2.25q-2.484375 -2.25 -2.828125 -5.828125zm107.37889 4.1875l0 3.375l-18.921875 0q-0.046875 -1.265625 0.40625 -2.4375q0.71875 -1.9375 2.3125 -3.8125q1.59375 -1.875 4.59375 -4.34375q4.671875 -3.828125 6.3125 -6.0625q1.640625 -2.234375 1.640625 -4.21875q0 -2.09375 -1.5 -3.53125q-1.484375 -1.4375 -3.890625 -1.4375q-2.53125 0 -4.0625 1.53125q-1.515625 1.515625 -1.546875 4.21875l-3.609375 -0.375q0.375 -4.046875 2.796875 -6.15625q2.421875 -2.125 6.5 -2.125q4.125 0 6.515625 2.28125q2.40625 2.28125 2.40625 5.671875q0 1.71875 -0.703125 3.375q-0.703125 1.65625 -2.328125 3.5q-1.625 1.828125 -5.421875 5.03125q-3.15625 2.65625 -4.0625 3.609375q-0.890625 0.9375 -1.484375 1.90625l14.046875 0zm81.55469 -4.125l3.703125 -0.3125q0.40625 2.6875 1.890625 4.046875q1.5 1.359375 3.609375 1.359375q2.546875 0 4.296875 -1.90625q1.765625 -1.921875 1.765625 -5.078125q0 -3.015625 -1.703125 -4.75q-1.6875 -1.734375 -4.421875 -1.734375q-1.6875 0 -3.0625 0.765625q-1.359375 0.765625 -2.140625 2.0l-3.3125 -0.421875l2.78125 -14.71875l14.234375 0l0 3.359375l-11.421875 0l-1.546875 7.703125q2.578125 -1.796875 5.40625 -1.796875q3.75 0 6.328125 2.59375q2.578125 2.59375 2.578125 6.6875q0 3.875 -2.265625 6.71875q-2.75 3.46875 -7.515625 3.46875q-3.90625 0 -6.375 -2.1875q-2.46875 -2.1875 -2.828125 -5.796875zm118.28909 -14.125l-3.5 0.28125q-0.46875 -2.078125 -1.328125 -3.015625q-1.421875 -1.5 -3.515625 -1.5q-1.671875 0 -2.953125 0.9375q-1.65625 1.203125 -2.609375 3.53125q-0.953125 2.328125 -1.0 6.625q1.265625 -1.9375 3.09375 -2.875q1.84375 -0.9375 3.859375 -0.9375q3.515625 0 5.984375 2.59375q2.46875 2.578125 2.46875 6.6875q0 2.6875 -1.15625 5.015625q-1.15625 2.3125 -3.1875 3.546875q-2.03125 1.21875 -4.609375 1.21875q-4.40625 0 -7.1875 -3.234375q-2.765625 -3.234375 -2.765625 -10.65625q0 -8.296875 3.078125 -12.0625q2.671875 -3.28125 7.203125 -3.28125q3.375 0 5.53125 1.890625q2.15625 1.890625 2.59375 5.234375zm-14.359375 12.34375q0 1.8125 0.765625 3.484375q0.78125 1.65625 2.15625 2.53125q1.390625 0.859375 2.921875 0.859375q2.21875 0 3.8125 -1.796875q1.609375 -1.796875 1.609375 -4.875q0 -2.96875 -1.578125 -4.671875q-1.578125 -1.71875 -3.984375 -1.71875q-2.375 0 -4.046875 1.71875q-1.65625 1.703125 -1.65625 4.46875z" fill-rule="nonzero"/><path fill="#000000" fill-opacity="0.0" d="m578.0156 502.7034l95.27557 0l0 95.275604l-95.27557 0z" fill-rule="evenodd"/><path stroke="#000000" stroke-width="3.0" stroke-linejoin="round" stroke-linecap="butt" d="m578.0156 502.7034l95.27557 0l0 95.275604l-95.27557 0z" fill-rule="evenodd"/><path fill="#000000" fill-opacity="0.0" d="m578.0151 502.7021l95.275635 0l0 95.27557l-95.275635 0z" fill-rule="evenodd"/><path fill="#000000" d="m616.4205 539.84924l0 -3.375l18.546875 0l0 2.734375q-2.734375 2.90625 -5.421875 7.734375q-2.6875 4.828125 -4.15625 9.921875q-1.046875 3.59375 -1.34375 7.875l-3.609375 0q0.046875 -3.375 1.3125 -8.15625q1.28125 -4.796875 3.65625 -9.234375q2.375 -4.453125 5.046875 -7.5l-14.03125 0z" fill-rule="nonzero"/><path fill="#000000" fill-opacity="0.0" d="m2.6248012 432.55643l450.99213 0l0 70.14172l-450.99213 0z" fill-rule="evenodd"/><path fill="#000000" d="m12.234176 453.86957l2.125 -0.25q0.09375 0.8125 0.53125 1.25q0.453125 0.421875 1.09375 0.421875q0.67187595 0 1.140626 -0.515625q0.46875 -0.515625 0.46875 -1.390625q0 -0.828125 -0.453125 -1.3125q-0.4375 -0.484375 -1.078125 -0.484375q-0.42187595 0 -1.015626 0.15625l0.25 -1.78125q0.89062595 0.015625 1.359376 -0.390625q0.46875 -0.40625 0.46875 -1.09375q0 -0.578125 -0.34375 -0.921875q-0.34375 -0.34375 -0.92187595 -0.34375q-0.5625 0 -0.96875 0.390625q-0.390625 0.390625 -0.46875 1.140625l-2.03125 -0.34375q0.21875 -1.03125 0.640625 -1.65625q0.421875 -0.625 1.1875 -0.96875q0.765625 -0.359375 1.703125 -0.359375q1.625001 0 2.593751 1.03125q0.8125 0.84375 0.8125 1.90625q0 1.5 -1.65625 2.40625q0.984375 0.203125 1.578125 0.9375q0.59375 0.734375 0.59375 1.78125q0 1.5 -1.109375 2.578125q-1.09375 1.0625 -2.734376 1.0625q-1.5625 0 -2.59375 -0.890625q-1.015625 -0.90625 -1.171875 -2.359375zm8.835938 6.421875q0.640625 -1.390625 0.90625 -2.140625q0.265625 -0.734375 0.484375 -1.703125q0.234375 -0.984375 0.34375 -1.84375q0.109375 -0.875 0.109375 -1.796875q0 -1.859375 -0.40625 -3.515625q-0.390625 -1.65625 -1.453125 -4.03125l1.484375 0q1.1875 1.6875 1.828125 3.578125q0.65625 1.875 0.65625 3.8125q0 1.625 -0.515625 3.5q-0.578125 2.09375 -1.921875 4.140625l-1.515625 0zm17.726562 -7.59375l2.234375 0.71875q-0.515625 1.875 -1.71875 2.796875q-1.1875 0.90625 -3.03125 0.90625q-2.28125 0 -3.75 -1.5625q-1.46875 -1.5625 -1.46875 -4.265625q0 -2.859375 1.46875 -4.4375q1.484375 -1.59375 3.890625 -1.59375q2.09375 0 3.40625 1.25q0.78125 0.734375 1.171875 2.109375l-2.28125 0.546875q-0.203125 -0.890625 -0.859375 -1.40625q-0.640625 -0.515625 -1.5625 -0.515625q-1.265625 0 -2.0625 0.921875q-0.796875 0.90625 -0.796875 2.953125q0 2.171875 0.78125 3.09375q0.78125 0.921875 2.03125 0.921875q0.921875 0 1.578125 -0.578125q0.671875 -0.59375 0.96875 -1.859375zm3.6953125 -0.046875q0 -1.09375 0.53125 -2.109375q0.546875 -1.03125 1.53125 -1.5625q1.0 -0.546875 2.21875 -0.546875q1.875 0 3.078125 1.21875q1.203125 1.21875 1.203125 3.09375q0 1.875 -1.21875 3.125q-1.203125 1.234375 -3.046875 1.234375q-1.140625 0 -2.1875 -0.515625q-1.03125 -0.515625 -1.578125 -1.515625q-0.53125 -1.0 -0.53125 -2.421875zm2.25 0.109375q0 1.234375 0.578125 1.890625q0.59375 0.65625 1.453125 0.65625q0.859375 0 1.4375 -0.65625q0.59375 -0.65625 0.59375 -1.90625q0 -1.21875 -0.59375 -1.875q-0.578125 -0.65625 -1.4375 -0.65625q-0.859375 0 -1.453125 0.65625q-0.578125 0.65625 -0.578125 1.890625zm7.9765625 -4.140625l2.046875 0l0 1.21875q0.390625 -0.625 1.0625 -1.015625q0.6875 -0.390625 1.515625 -0.390625q1.453125 0 2.453125 1.140625q1.015625 1.125 1.015625 3.140625q0 2.078125 -1.015625 3.234375q-1.015625 1.15625 -2.46875 1.15625q-0.6875 0 -1.25 -0.265625q-0.546875 -0.28125 -1.171875 -0.953125l0 4.1875l-2.1875 0l0 -11.453125zm2.171875 4.0q0 1.40625 0.546875 2.078125q0.5625 0.65625 1.359375 0.65625q0.765625 0 1.265625 -0.609375q0.515625 -0.609375 0.515625 -2.015625q0 -1.296875 -0.53125 -1.921875q-0.515625 -0.640625 -1.296875 -0.640625q-0.796875 0 -1.328125 0.625q-0.53125 0.609375 -0.53125 1.828125zm6.6171875 -4.0l2.34375 0l1.984375 5.890625l1.9375 -5.890625l2.265625 0l-2.921875 7.984375l-0.53125 1.453125q-0.28125 0.71875 -0.546875 1.09375q-0.265625 0.390625 -0.609375 0.625q-0.328125 0.25 -0.828125 0.375q-0.5 0.140625 -1.125 0.140625q-0.625 0 -1.234375 -0.140625l-0.203125 -1.71875q0.515625 0.109375 0.9375 0.109375q0.765625 0 1.125 -0.453125q0.375 -0.453125 0.5625 -1.140625l-3.15625 -8.328125zm19.1875 5.65625l2.1875 0.359375q-0.421875 1.203125 -1.328125 1.84375q-0.90625 0.625 -2.28125 0.625q-2.15625 0 -3.203125 -1.421875q-0.8125 -1.125 -0.8125 -2.859375q0 -2.0625 1.078125 -3.21875q1.078125 -1.171875 2.71875 -1.171875q1.859375 0 2.921875 1.21875q1.078125 1.21875 1.03125 3.75l-5.5 0q0.015625 0.96875 0.515625 1.515625q0.515625 0.546875 1.28125 0.546875q0.515625 0 0.859375 -0.28125q0.359375 -0.28125 0.53125 -0.90625zm0.125 -2.21875q-0.015625 -0.953125 -0.484375 -1.453125q-0.46875 -0.5 -1.140625 -0.5q-0.71875 0 -1.1875 0.53125q-0.46875 0.515625 -0.46875 1.421875l3.28125 0zm3.9765625 4.859375l0 -11.453125l2.1875 0l0 11.453125l-2.1875 0zm9.2421875 -2.640625l2.1875 0.359375q-0.421875 1.203125 -1.328125 1.84375q-0.90625 0.625 -2.28125 0.625q-2.15625 0 -3.203125 -1.421875q-0.8125 -1.125 -0.8125 -2.859375q0 -2.0625 1.078125 -3.21875q1.078125 -1.171875 2.71875 -1.171875q1.859375 0 2.921875 1.21875q1.078125 1.21875 1.03125 3.75l-5.5 0q0.015625 0.96875 0.515625 1.515625q0.515625 0.546875 1.28125 0.546875q0.515625 0 0.859375 -0.28125q0.359375 -0.28125 0.53125 -0.90625zm0.125 -2.21875q-0.015625 -0.953125 -0.484375 -1.453125q-0.46875 -0.5 -1.140625 -0.5q-0.71875 0 -1.1875 0.53125q-0.46875 0.515625 -0.46875 1.421875l3.28125 0zm3.8046875 -3.4375l2.03125 0l0 1.125q1.078125 -1.3125 2.578125 -1.3125q0.796875 0 1.375 0.328125q0.59375 0.328125 0.96875 0.984375q0.546875 -0.65625 1.171875 -0.984375q0.640625 -0.328125 1.359375 -0.328125q0.921875 0 1.546875 0.375q0.640625 0.359375 0.953125 1.078125q0.21875 0.53125 0.21875 1.71875l0 5.3125l-2.1875 0l0 -4.75q0 -1.234375 -0.234375 -1.59375q-0.296875 -0.46875 -0.9375 -0.46875q-0.453125 0 -0.859375 0.28125q-0.40625 0.28125 -0.59375 0.828125q-0.171875 0.546875 -0.171875 1.71875l0 3.984375l-2.203125 0l0 -4.546875q0 -1.21875 -0.125 -1.5625q-0.109375 -0.359375 -0.359375 -0.53125q-0.234375 -0.171875 -0.65625 -0.171875q-0.515625 0 -0.921875 0.28125q-0.40625 0.265625 -0.578125 0.78125q-0.171875 0.515625 -0.171875 1.71875l0 4.03125l-2.203125 0l0 -8.296875zm19.195312 5.65625l2.1875 0.359375q-0.421875 1.203125 -1.328125 1.84375q-0.90625 0.625 -2.28125 0.625q-2.15625 0 -3.203125 -1.421875q-0.8125 -1.125 -0.8125 -2.859375q0 -2.0625 1.078125 -3.21875q1.078125 -1.171875 2.71875 -1.171875q1.859375 0 2.921875 1.21875q1.078125 1.21875 1.03125 3.75l-5.5 0q0.015625 0.96875 0.515625 1.515625q0.515625 0.546875 1.28125 0.546875q0.515625 0 0.859375 -0.28125q0.359375 -0.28125 0.53125 -0.90625zm0.125 -2.21875q-0.015625 -0.953125 -0.484375 -1.453125q-0.46875 -0.5 -1.140625 -0.5q-0.71875 0 -1.1875 0.53125q-0.46875 0.515625 -0.46875 1.421875l3.28125 0zm11.5234375 4.859375l-2.203125 0l0 -4.234375q0 -1.34375 -0.140625 -1.734375q-0.140625 -0.40625 -0.453125 -0.625q-0.3125 -0.21875 -0.765625 -0.21875q-0.5625 0 -1.015625 0.3125q-0.453125 0.3125 -0.625 0.828125q-0.171875 0.515625 -0.171875 1.90625l0 3.765625l-2.1875 0l0 -8.296875l2.03125 0l0 1.21875q1.09375 -1.40625 2.734375 -1.40625q0.734375 0 1.328125 0.265625q0.609375 0.25 0.90625 0.65625q0.3125 0.40625 0.4375 0.921875q0.125 0.515625 0.125 1.484375l0 5.15625zm6.0234375 -8.296875l0 1.75l-1.5 0l0 3.34375q0 1.015625 0.046875 1.1875q0.046875 0.15625 0.1875 0.265625q0.15625 0.109375 0.375 0.109375q0.3125 0 0.890625 -0.203125l0.1875 1.703125q-0.765625 0.328125 -1.734375 0.328125q-0.59375 0 -1.078125 -0.203125q-0.46875 -0.203125 -0.703125 -0.515625q-0.21875 -0.3125 -0.296875 -0.859375q-0.078125 -0.375 -0.078125 -1.546875l0 -3.609375l-1.0 0l0 -1.75l1.0 0l0 -1.65625l2.203125 -1.28125l0 2.9375l1.5 0zm0.75 5.921875l2.203125 -0.328125q0.140625 0.640625 0.5625 0.96875q0.4375 0.328125 1.21875 0.328125q0.84375 0 1.28125 -0.3125q0.28125 -0.21875 0.28125 -0.578125q0 -0.25 -0.15625 -0.421875q-0.15625 -0.15625 -0.734375 -0.28125q-2.65625 -0.59375 -3.359375 -1.078125q-0.984375 -0.671875 -0.984375 -1.859375q0 -1.078125 0.84375 -1.8125q0.859375 -0.734375 2.640625 -0.734375q1.703125 0 2.53125 0.5625q0.828125 0.546875 1.140625 1.625l-2.0625 0.390625q-0.140625 -0.484375 -0.515625 -0.734375q-0.359375 -0.265625 -1.046875 -0.265625q-0.875 0 -1.25 0.234375q-0.25 0.171875 -0.25 0.453125q0 0.234375 0.21875 0.390625q0.296875 0.21875 2.046875 0.625q1.765625 0.390625 2.453125 0.96875q0.6875 0.59375 0.6875 1.640625q0 1.140625 -0.953125 1.96875q-0.953125 0.8125 -2.8125 0.8125q-1.703125 0 -2.6875 -0.6875q-0.984375 -0.6875 -1.296875 -1.875zm17.921875 -5.921875l0 1.75l-1.5 0l0 3.34375q0 1.015625 0.046875 1.1875q0.046875 0.15625 0.1875 0.265625q0.15625 0.109375 0.375 0.109375q0.3125 0 0.890625 -0.203125l0.1875 1.703125q-0.765625 0.328125 -1.734375 0.328125q-0.59375 0 -1.078125 -0.203125q-0.46875 -0.203125 -0.703125 -0.515625q-0.21875 -0.3125 -0.296875 -0.859375q-0.078125 -0.375 -0.078125 -1.546875l0 -3.609375l-1.0 0l0 -1.75l1.0 0l0 -1.65625l2.203125 -1.28125l0 2.9375l1.5 0zm1.015625 4.03125q0 -1.09375 0.53125 -2.109375q0.546875 -1.03125 1.53125 -1.5625q1.0 -0.546875 2.21875 -0.546875q1.875 0 3.078125 1.21875q1.203125 1.21875 1.203125 3.09375q0 1.875 -1.21875 3.125q-1.203125 1.234375 -3.046875 1.234375q-1.140625 0 -2.1875 -0.515625q-1.03125 -0.515625 -1.578125 -1.515625q-0.53125 -1.0 -0.53125 -2.421875zm2.25 0.109375q0 1.234375 0.578125 1.890625q0.59375 0.65625 1.453125 0.65625q0.859375 0 1.4375 -0.65625q0.59375 -0.65625 0.59375 -1.90625q0 -1.21875 -0.59375 -1.875q-0.578125 -0.65625 -1.4375 -0.65625q-0.859375 0 -1.453125 0.65625q-0.578125 0.65625 -0.578125 1.890625zm20.03125 4.15625l-2.203125 0l0 -4.234375q0 -1.34375 -0.140625 -1.734375q-0.140625 -0.40625 -0.453125 -0.625q-0.3125 -0.21875 -0.765625 -0.21875q-0.5625 0 -1.015625 0.3125q-0.453125 0.3125 -0.625 0.828125q-0.171875 0.515625 -0.171875 1.90625l0 3.765625l-2.1875 0l0 -8.296875l2.03125 0l0 1.21875q1.09375 -1.40625 2.734375 -1.40625q0.734375 0 1.328125 0.265625q0.609375 0.25 0.90625 0.65625q0.3125 0.40625 0.4375 0.921875q0.125 0.515625 0.125 1.484375l0 5.15625zm7.0234375 -2.640625l2.1875 0.359375q-0.421875 1.203125 -1.328125 1.84375q-0.90625 0.625 -2.28125 0.625q-2.15625 0 -3.203125 -1.421875q-0.8125 -1.125 -0.8125 -2.859375q0 -2.0625 1.078125 -3.21875q1.078125 -1.171875 2.71875 -1.171875q1.859375 0 2.921875 1.21875q1.078125 1.21875 1.03125 3.75l-5.5 0q0.015625 0.96875 0.515625 1.515625q0.515625 0.546875 1.28125 0.546875q0.515625 0 0.859375 -0.28125q0.359375 -0.28125 0.53125 -0.90625zm0.125 -2.21875q-0.015625 -0.953125 -0.484375 -1.453125q-0.46875 -0.5 -1.140625 -0.5q-0.71875 0 -1.1875 0.53125q-0.46875 0.515625 -0.46875 1.421875l3.28125 0zm5.5234375 4.859375l-2.625 -8.296875l2.125 0l1.5625 5.4375l1.421875 -5.4375l2.125 0l1.375 5.4375l1.59375 -5.4375l2.15625 0l-2.65625 8.296875l-2.109375 0l-1.4375 -5.34375l-1.40625 5.34375l-2.125 0zm16.984375 -5.765625l-2.0 -0.359375q0.34375 -1.203125 1.15625 -1.78125q0.828125 -0.578125 2.4375 -0.578125q1.46875 0 2.1875 0.34375q0.71875 0.34375 1.015625 0.890625q0.296875 0.53125 0.296875 1.953125l-0.03125 2.5625q0 1.09375 0.109375 1.625q0.109375 0.515625 0.390625 1.109375l-2.171875 0q-0.078125 -0.21875 -0.203125 -0.65625q-0.0625 -0.1875 -0.078125 -0.25q-0.5625 0.546875 -1.203125 0.828125q-0.640625 0.265625 -1.375 0.265625q-1.28125 0 -2.015625 -0.6875q-0.734375 -0.703125 -0.734375 -1.765625q0 -0.703125 0.328125 -1.25q0.34375 -0.5625 0.9375 -0.84375q0.609375 -0.296875 1.75 -0.515625q1.546875 -0.296875 2.140625 -0.546875l0 -0.21875q0 -0.625 -0.3125 -0.890625q-0.3125 -0.28125 -1.1875 -0.28125q-0.578125 0 -0.90625 0.234375q-0.328125 0.234375 -0.53125 0.8125zm2.9375 1.78125q-0.421875 0.140625 -1.34375 0.34375q-0.90625 0.1875 -1.1875 0.375q-0.4375 0.296875 -0.4375 0.765625q0 0.46875 0.34375 0.8125q0.34375 0.328125 0.875 0.328125q0.59375 0 1.140625 -0.390625q0.390625 -0.296875 0.515625 -0.734375q0.09375 -0.28125 0.09375 -1.0625l0 -0.4375zm6.4140625 3.984375l-2.1875 0l0 -8.296875l2.03125 0l0 1.171875q0.53125 -0.828125 0.9375 -1.09375q0.421875 -0.265625 0.953125 -0.265625q0.75 0 1.453125 0.40625l-0.6875 1.921875q-0.546875 -0.359375 -1.03125 -0.359375q-0.453125 0 -0.78125 0.25q-0.3125 0.25 -0.5 0.921875q-0.1875 0.65625 -0.1875 2.78125l0 2.5625zm6.2265625 0l-2.1875 0l0 -8.296875l2.03125 0l0 1.171875q0.53125 -0.828125 0.9375 -1.09375q0.421875 -0.265625 0.953125 -0.265625q0.75 0 1.453125 0.40625l-0.6875 1.921875q-0.546875 -0.359375 -1.03125 -0.359375q-0.453125 0 -0.78125 0.25q-0.3125 0.25 -0.5 0.921875q-0.1875 0.65625 -0.1875 2.78125l0 2.5625zm5.7734375 -5.765625l-2.0 -0.359375q0.34375 -1.203125 1.15625 -1.78125q0.828125 -0.578125 2.4375 -0.578125q1.46875 0 2.1875 0.34375q0.71875 0.34375 1.015625 0.890625q0.296875 0.53125 0.296875 1.953125l-0.03125 2.5625q0 1.09375 0.109375 1.625q0.109375 0.515625 0.390625 1.109375l-2.171875 0q-0.078125 -0.21875 -0.203125 -0.65625q-0.0625 -0.1875 -0.078125 -0.25q-0.5625 0.546875 -1.203125 0.828125q-0.640625 0.265625 -1.375 0.265625q-1.28125 0 -2.015625 -0.6875q-0.734375 -0.703125 -0.734375 -1.765625q0 -0.703125 0.328125 -1.25q0.34375 -0.5625 0.9375 -0.84375q0.609375 -0.296875 1.75 -0.515625q1.546875 -0.296875 2.140625 -0.546875l0 -0.21875q0 -0.625 -0.3125 -0.890625q-0.3125 -0.28125 -1.1875 -0.28125q-0.578125 0 -0.90625 0.234375q-0.328125 0.234375 -0.53125 0.8125zm2.9375 1.78125q-0.421875 0.140625 -1.34375 0.34375q-0.90625 0.1875 -1.1875 0.375q-0.4375 0.296875 -0.4375 0.765625q0 0.46875 0.34375 0.8125q0.34375 0.328125 0.875 0.328125q0.59375 0 1.140625 -0.390625q0.390625 -0.296875 0.515625 -0.734375q0.09375 -0.28125 0.09375 -1.0625l0 -0.4375zm3.2734375 -4.3125l2.34375 0l1.984375 5.890625l1.9375 -5.890625l2.265625 0l-2.921875 7.984375l-0.53125 1.453125q-0.28125 0.71875 -0.546875 1.09375q-0.265625 0.390625 -0.609375 0.625q-0.328125 0.25 -0.828125 0.375q-0.5 0.140625 -1.125 0.140625q-0.625 0 -1.234375 -0.140625l-0.203125 -1.71875q0.515625 0.109375 0.9375 0.109375q0.765625 0 1.125 -0.453125q0.375 -0.453125 0.5625 -1.140625l-3.15625 -8.328125zm9.9453125 8.296875l0 -2.203125l2.1875 0l0 2.203125l-2.1875 0z" fill-rule="nonzero"/><path fill="#000000" d="m21.031052 471.90082l1.515625 0.375q-0.46875 1.875 -1.71875 2.859375q-1.234375 0.984375 -3.015625 0.984375q-1.859376 0 -3.015626 -0.75q-1.15625 -0.765625 -1.765625 -2.1875q-0.609375 -1.4375 -0.609375 -3.078125q0 -1.796875 0.6875 -3.125q0.6875 -1.328125 1.9375 -2.015625q1.265626 -0.703125 2.781251 -0.703125q1.71875 0 2.890625 0.875q1.171875 0.875 1.640625 2.46875l-1.5 0.34375q-0.390625 -1.25 -1.15625 -1.8125q-0.75 -0.578125 -1.90625 -0.578125q-1.3125 0 -2.203126 0.640625q-0.890625 0.625 -1.25 1.703125q-0.359375 1.0625 -0.359375 2.1875q0 1.46875 0.421875 2.5625q0.4375 1.078125 1.328125 1.625q0.90625095 0.53125 1.953126 0.53125q1.265625 0 2.140625 -0.734375q0.890625 -0.734375 1.203125 -2.171875zm8.6171875 2.984375q-0.78125 0.671875 -1.5 0.953125q-0.71875 0.265625 -1.546875 0.265625q-1.375 0 -2.109375 -0.671875q-0.734375 -0.671875 -0.734375 -1.703125q0 -0.609375 0.28125 -1.109375q0.28125 -0.515625 0.71875 -0.8125q0.453125 -0.3125 1.015625 -0.46875q0.421875 -0.109375 1.25 -0.203125q1.703125 -0.203125 2.515625 -0.484375q0 -0.296875 0 -0.375q0 -0.859375 -0.390625 -1.203125q-0.546875 -0.484375 -1.609375 -0.484375q-0.984375 0 -1.46875 0.359375q-0.46875 0.34375 -0.6875 1.21875l-1.375 -0.1875q0.1875 -0.875 0.609375 -1.421875q0.4375 -0.546875 1.25 -0.828125q0.8125 -0.296875 1.875 -0.296875q1.0625 0 1.71875 0.25q0.671875 0.25 0.984375 0.625q0.3125 0.375 0.4375 0.953125q0.078125 0.359375 0.078125 1.296875l0 1.875q0 1.96875 0.078125 2.484375q0.09375 0.515625 0.359375 1.0l-1.46875 0q-0.21875 -0.4375 -0.28125 -1.03125zm-0.109375 -3.140625q-0.765625 0.3125 -2.296875 0.53125q-0.875 0.125 -1.234375 0.28125q-0.359375 0.15625 -0.5625 0.46875q-0.1875 0.296875 -0.1875 0.65625q0 0.5625 0.421875 0.9375q0.4375 0.375 1.25 0.375q0.8125 0 1.4375 -0.34375q0.640625 -0.359375 0.9375 -0.984375q0.234375 -0.46875 0.234375 -1.40625l0 -0.515625zm3.6015625 7.359375l0 -11.484375l1.28125 0l0 1.078125q0.453125 -0.640625 1.015625 -0.953125q0.578125 -0.3125 1.390625 -0.3125q1.0625 0 1.875 0.546875q0.8125 0.546875 1.21875 1.546875q0.421875 0.984375 0.421875 2.171875q0 1.28125 -0.46875 2.296875q-0.453125 1.015625 -1.328125 1.5625q-0.859375 0.546875 -1.828125 0.546875q-0.703125 0 -1.265625 -0.296875q-0.546875 -0.296875 -0.90625 -0.75l0 4.046875l-1.40625 0zm1.265625 -7.296875q0 1.609375 0.640625 2.375q0.65625 0.765625 1.578125 0.765625q0.9375 0 1.609375 -0.796875q0.671875 -0.796875 0.671875 -2.453125q0 -1.59375 -0.65625 -2.375q-0.65625 -0.796875 -1.5625 -0.796875q-0.890625 0 -1.59375 0.84375q-0.6875 0.84375 -0.6875 2.4375zm13.0390625 3.078125q-0.78125 0.671875 -1.5 0.953125q-0.71875 0.265625 -1.546875 0.265625q-1.375 0 -2.109375 -0.671875q-0.734375 -0.671875 -0.734375 -1.703125q0 -0.609375 0.28125 -1.109375q0.28125 -0.515625 0.71875 -0.8125q0.453125 -0.3125 1.015625 -0.46875q0.421875 -0.109375 1.25 -0.203125q1.703125 -0.203125 2.515625 -0.484375q0 -0.296875 0 -0.375q0 -0.859375 -0.390625 -1.203125q-0.546875 -0.484375 -1.609375 -0.484375q-0.984375 0 -1.46875 0.359375q-0.46875 0.34375 -0.6875 1.21875l-1.375 -0.1875q0.1875 -0.875 0.609375 -1.421875q0.4375 -0.546875 1.25 -0.828125q0.8125 -0.296875 1.875 -0.296875q1.0625 0 1.71875 0.25q0.671875 0.25 0.984375 0.625q0.3125 0.375 0.4375 0.953125q0.078125 0.359375 0.078125 1.296875l0 1.875q0 1.96875 0.078125 2.484375q0.09375 0.515625 0.359375 1.0l-1.46875 0q-0.21875 -0.4375 -0.28125 -1.03125zm-0.109375 -3.140625q-0.765625 0.3125 -2.296875 0.53125q-0.875 0.125 -1.234375 0.28125q-0.359375 0.15625 -0.5625 0.46875q-0.1875 0.296875 -0.1875 0.65625q0 0.5625 0.421875 0.9375q0.4375 0.375 1.25 0.375q0.8125 0 1.4375 -0.34375q0.640625 -0.359375 0.9375 -0.984375q0.234375 -0.46875 0.234375 -1.40625l0 -0.515625zm9.0078125 1.125l1.390625 0.1875q-0.234375 1.421875 -1.171875 2.234375q-0.921875 0.8125 -2.28125 0.8125q-1.703125 0 -2.75 -1.109375q-1.03125 -1.125 -1.03125 -3.203125q0 -1.34375 0.4375 -2.34375q0.453125 -1.015625 1.359375 -1.515625q0.921875 -0.5 1.984375 -0.5q1.359375 0 2.21875 0.6875q0.859375 0.671875 1.09375 1.9375l-1.359375 0.203125q-0.203125 -0.828125 -0.703125 -1.25q-0.484375 -0.421875 -1.1875 -0.421875q-1.0625 0 -1.734375 0.765625q-0.65625 0.75 -0.65625 2.40625q0 1.671875 0.640625 2.4375q0.640625 0.75 1.671875 0.75q0.828125 0 1.375 -0.5q0.5625 -0.515625 0.703125 -1.578125zm2.59375 -6.796875l0 -1.609375l1.40625 0l0 1.609375l-1.40625 0zm0 9.84375l0 -8.296875l1.40625 0l0 8.296875l-1.40625 0zm6.6171875 -1.265625l0.203125 1.25q-0.59375 0.125 -1.0625 0.125q-0.765625 0 -1.1875 -0.234375q-0.421875 -0.25 -0.59375 -0.640625q-0.171875 -0.40625 -0.171875 -1.671875l0 -4.765625l-1.03125 0l0 -1.09375l1.03125 0l0 -2.0625l1.40625 -0.84375l0 2.90625l1.40625 0l0 1.09375l-1.40625 0l0 4.84375q0 0.609375 0.0625 0.78125q0.078125 0.171875 0.25 0.28125q0.171875 0.09375 0.484375 0.09375q0.234375 0 0.609375 -0.0625zm1.3203125 4.46875l-0.15625 -1.328125q0.453125 0.125 0.796875 0.125q0.46875 0 0.75 -0.15625q0.28125 -0.15625 0.46875 -0.4375q0.125 -0.203125 0.421875 -1.046875q0.046875 -0.109375 0.125 -0.34375l-3.140625 -8.3125l1.515625 0l1.71875 4.796875q0.34375 0.921875 0.609375 1.921875q0.234375 -0.96875 0.578125 -1.890625l1.765625 -4.828125l1.40625 0l-3.15625 8.4375q-0.5 1.375 -0.78125 1.890625q-0.375 0.6875 -0.859375 1.015625q-0.484375 0.328125 -1.15625 0.328125q-0.40625 0 -0.90625 -0.171875zm19.898438 -9.9375l-7.5625 0l0 -1.3125l7.5625 0l0 1.3125zm0 3.46875l-7.5625 0l0 -1.3125l7.5625 0l0 1.3125zm6.1015625 -6.6875l0 -1.359375l7.40625 0l0 1.09375q-1.09375 1.171875 -2.171875 3.109375q-1.0625 1.921875 -1.65625 3.953125q-0.421875 1.4375 -0.53125 3.15625l-1.453125 0q0.03125 -1.359375 0.53125 -3.265625q0.515625 -1.921875 1.453125 -3.6875q0.953125 -1.78125 2.03125 -3.0l-5.609375 0z" fill-rule="nonzero"/><path fill="#000000" d="m12.343551 491.22894l1.4375 -0.125q0.09375 0.859375 0.46875 1.421875q0.375 0.546875 1.15625 0.890625q0.78125095 0.328125 1.750001 0.328125q0.875 0 1.53125 -0.25q0.671875 -0.265625 0.984375 -0.703125q0.328125 -0.453125 0.328125 -0.984375q0 -0.546875 -0.3125 -0.9375q-0.3125 -0.40625 -1.03125 -0.6875q-0.453125 -0.171875 -2.03125 -0.546875q-1.578126 -0.390625 -2.218751 -0.71875q-0.8125 -0.4375 -1.21875 -1.0625q-0.40625 -0.640625 -0.40625 -1.4375q0 -0.859375 0.484375 -1.609375q0.5 -0.765625 1.4375 -1.15625q0.953125 -0.390625 2.109376 -0.390625q1.28125 0 2.25 0.421875q0.96875 0.40625 1.484375 1.203125q0.53125 0.796875 0.578125 1.796875l-1.453125 0.109375q-0.125 -1.078125 -0.796875 -1.625q-0.671875 -0.5625 -2.0 -0.5625q-1.375001 0 -2.000001 0.5q-0.625 0.5 -0.625 1.21875q0 0.609375 0.4375 1.015625q0.4375 0.390625 2.281251 0.8125q1.859375 0.421875 2.546875 0.734375q1.0 0.453125 1.46875 1.171875q0.484375 0.703125 0.484375 1.625q0 0.90625 -0.53125 1.71875q-0.515625 0.8125 -1.5 1.265625q-0.984375 0.453125 -2.203125 0.453125q-1.562501 0 -2.609376 -0.453125q-1.046875 -0.46875 -1.65625 -1.375q-0.59375 -0.90625 -0.625 -2.0625zm11.015626 -6.15625l0 -1.609375l1.40625 0l0 1.609375l-1.40625 0zm0 9.84375l0 -8.296875l1.40625 0l0 8.296875l-1.40625 0zm2.8046875 0l0 -1.140625l5.28125 -6.0625q-0.890625 0.046875 -1.578125 0.046875l-3.390625 0l0 -1.140625l6.78125 0l0 0.921875l-4.484375 5.265625l-0.875 0.96875q0.953125 -0.078125 1.78125 -0.078125l3.828125 0l0 1.21875l-7.34375 0zm14.421875 -2.671875l1.453125 0.171875q-0.34375 1.28125 -1.28125 1.984375q-0.921875 0.703125 -2.359375 0.703125q-1.828125 0 -2.890625 -1.125q-1.0625 -1.125 -1.0625 -3.140625q0 -2.09375 1.078125 -3.25q1.078125 -1.15625 2.796875 -1.15625q1.65625 0 2.703125 1.140625q1.0625 1.125 1.0625 3.171875q0 0.125 0 0.375l-6.1875 0q0.078125 1.375 0.765625 2.109375q0.703125 0.71875 1.734375 0.71875q0.78125 0 1.328125 -0.40625q0.546875 -0.40625 0.859375 -1.296875zm-4.609375 -2.28125l4.625 0q-0.09375 -1.046875 -0.53125 -1.5625q-0.671875 -0.8125 -1.734375 -0.8125q-0.96875 0 -1.640625 0.65625q-0.65625 0.640625 -0.71875 1.71875zm19.671875 -1.78125l-7.5625 0l0 -1.3125l7.5625 0l0 1.3125zm0 3.46875l-7.5625 0l0 -1.3125l7.5625 0l0 1.3125zm6.1015625 -6.6875l0 -1.359375l7.40625 0l0 1.09375q-1.09375 1.171875 -2.171875 3.109375q-1.0625 1.921875 -1.65625 3.953125q-0.421875 1.4375 -0.53125 3.15625l-1.453125 0q0.03125 -1.359375 0.53125 -3.265625q0.515625 -1.921875 1.453125 -3.6875q0.953125 -1.78125 2.03125 -3.0l-5.609375 0z" fill-rule="nonzero"/></g></svg>