<svg version="1.1" viewBox="0.0 0.0 580.5774278215223 100.0" fill="none" stroke="none" stroke-linecap="square" stroke-miterlimit="10" xmlns:xlink="http://www.w3.org/1999/xlink" xmlns="http://www.w3.org/2000/svg"><clipPath id="p.0"><path d="m0 0l580.57745 0l0 100.0l-580.57745 0l0 -100.0z" clip-rule="nonzero"/></clipPath><g clip-path="url(#p.0)"><path fill="#000000" fill-opacity="0.0" d="m0 0l580.57745 0l0 100.0l-580.57745 0z" fill-rule="evenodd"/><path fill="#000000" fill-opacity="0.0" d="m2.6958625 2.3622048l95.27559 0l0 95.27559l-95.27559 0z" fill-rule="evenodd"/><path stroke="#000000" stroke-width="3.0" stroke-linejoin="round" stroke-linecap="butt" d="m2.6958625 2.3622048l95.27559 0l0 95.27559l-95.27559 0z" fill-rule="evenodd"/><path fill="#000000" fill-opacity="0.0" d="m98.60597 2.3622048l95.27559 0l0 95.27559l-95.27559 0z" fill-rule="evenodd"/><path stroke="#000000" stroke-width="3.0" stroke-linejoin="round" stroke-linecap="butt" d="m98.60597 2.3622048l95.27559 0l0 95.27559l-95.27559 0z" fill-rule="evenodd"/><path fill="#000000" fill-opacity="0.0" d="m194.69586 2.3622048l95.275604 0l0 95.27559l-95.275604 0z" fill-rule="evenodd"/><path stroke="#000000" stroke-width="3.0" stroke-linejoin="round" stroke-linecap="butt" d="m194.69586 2.3622048l95.275604 0l0 95.27559l-95.275604 0z" fill-rule="evenodd"/><path fill="#000000" fill-opacity="0.0" d="m290.606 2.3622048l95.27557 0l0 95.27559l-95.27557 0z" fill-rule="evenodd"/><path stroke="#000000" stroke-width="3.0" stroke-linejoin="round" stroke-linecap="butt" d="m290.606 2.3622048l95.27557 0l0 95.27559l-95.27557 0z" fill-rule="evenodd"/><path fill="#000000" fill-opacity="0.0" d="m386.69586 2.3622048l95.275604 0l0 95.27559l-95.275604 0z" fill-rule="evenodd"/><path stroke="#000000" stroke-width="3.0" stroke-linejoin="round" stroke-linecap="butt" d="m386.69586 2.3622048l95.275604 0l0 95.27559l-95.275604 0z" fill-rule="evenodd"/><path fill="#000000" fill-opacity="0.0" d="m482.606 2.3622048l95.275604 0l0 95.27559l-95.275604 0z" fill-rule="evenodd"/><path stroke="#000000" stroke-width="3.0" stroke-linejoin="round" stroke-linecap="butt" d="m482.606 2.3622048l95.275604 0l0 95.27559l-95.275604 0z" fill-rule="evenodd"/><path fill="#000000" fill-opacity="0.0" d="m2.6981628 2.3622048l575.1811 0l0 95.27559l-575.1811 0z" fill-rule="evenodd"/><path fill="#000000" d="m46.862225 64.399994l0 -6.859371l-12.421875 0l0 -3.21875l13.0625 -18.5625l2.875 0l0 18.5625l3.859375 0l0 3.21875l-3.859375 0l0 6.859371l-3.515625 0zm0 -10.078121l0 -12.90625l-8.96875 12.90625l8.96875 0zm102.00781 10.078121l-3.515625 0l0 -22.406246q-1.265625 1.21875 -3.328125 2.4375q-2.0625 1.203125 -3.703125 1.796875l0 -3.390625q2.953125 -1.390625 5.15625 -3.359375q2.203125 -1.96875 3.125 -3.828125l2.265625 0l0 28.749996zm86.82031 -7.562496l3.515625 -0.46875q0.59375 2.984375 2.046875 4.3125q1.46875 1.3125 3.546875 1.3125q2.484375 0 4.1875 -1.71875q1.71875 -1.71875 1.71875 -4.25q0 -2.421875 -1.59375 -4.0q-1.578125 -1.578125 -4.015625 -1.578125q-1.0 0 -2.484375 0.390625l0.390625 -3.078125q0.359375 0.03125 0.578125 0.03125q2.234375 0 4.03125 -1.171875q1.796875 -1.171875 1.796875 -3.609375q0 -1.9375 -1.3125 -3.203125q-1.296875 -1.265625 -3.375 -1.265625q-2.046875 0 -3.421875 1.296875q-1.359375 1.28125 -1.75 3.859375l-3.515625 -0.625q0.640625 -3.53125 2.921875 -5.46875q2.296875 -1.953125 5.6875 -1.953125q2.34375 0 4.3125 1.015625q1.984375 1.0 3.03125 2.734375q1.046875 1.734375 1.046875 3.6875q0 1.859375 -1.0 3.390625q-1.0 1.515625 -2.953125 2.40625q2.546875 0.59375 3.953125 2.4375q1.40625 1.84375 1.40625 4.625q0 3.75 -2.734375 6.359375q-2.734375 2.6093712 -6.921875 2.6093712q-3.765625 0 -6.265625 -2.2499962q-2.484375 -2.25 -2.828125 -5.828125zm107.37889 4.1875l0 3.3749962l-18.921875 0q-0.046875 -1.2656212 0.40625 -2.4374962q0.71875 -1.9375 2.3125 -3.8125q1.59375 -1.875 4.59375 -4.34375q4.671875 -3.828125 6.3125 -6.0625q1.640625 -2.234375 1.640625 -4.21875q0 -2.09375 -1.5 -3.53125q-1.484375 -1.4375 -3.890625 -1.4375q-2.53125 0 -4.0625 1.53125q-1.515625 1.515625 -1.546875 4.21875l-3.609375 -0.375q0.375 -4.046875 2.796875 -6.15625q2.421875 -2.125 6.5 -2.125q4.125 0 6.515625 2.28125q2.40625 2.28125 2.40625 5.671875q0 1.71875 -0.703125 3.375q-0.703125 1.65625 -2.328125 3.5q-1.625 1.828125 -5.421875 5.03125q-3.15625 2.65625 -4.0625 3.609375q-0.890625 0.9375 -1.484375 1.90625l14.046875 0zm81.55469 -4.125l3.703125 -0.3125q0.40625 2.6875 1.890625 4.046875q1.5 1.359375 3.609375 1.359375q2.546875 0 4.296875 -1.90625q1.765625 -1.921875 1.765625 -5.078125q0 -3.015625 -1.703125 -4.75q-1.6875 -1.734375 -4.421875 -1.734375q-1.6875 0 -3.0625 0.765625q-1.359375 0.765625 -2.140625 2.0l-3.3125 -0.421875l2.78125 -14.71875l14.234375 0l0 3.359375l-11.421875 0l-1.546875 7.703125q2.578125 -1.796875 5.40625 -1.796875q3.75 0 6.328125 2.59375q2.578125 2.59375 2.578125 6.6875q0 3.875 -2.265625 6.71875q-2.75 3.4687462 -7.515625 3.4687462q-3.90625 0 -6.375 -2.1874962q-2.46875 -2.1875 -2.828125 -5.796875zm118.28909 -14.125l-3.5 0.28125q-0.46875 -2.078125 -1.328125 -3.015625q-1.421875 -1.5 -3.515625 -1.5q-1.671875 0 -2.953125 0.9375q-1.65625 1.203125 -2.609375 3.53125q-0.953125 2.328125 -1.0 6.625q1.265625 -1.9375 3.09375 -2.875q1.84375 -0.9375 3.859375 -0.9375q3.515625 0 5.984375 2.59375q2.46875 2.578125 2.46875 6.6875q0 2.6875 -1.15625 5.015625q-1.15625 2.3125 -3.1875 3.546875q-2.03125 1.2187462 -4.609375 1.2187462q-4.40625 0 -7.1875 -3.2343712q-2.765625 -3.234375 -2.765625 -10.65625q0 -8.296875 3.078125 -12.0625q2.671875 -3.28125 7.203125 -3.28125q3.375 0 5.53125 1.890625q2.15625 1.890625 2.59375 5.234375zm-14.359375 12.34375q0 1.8125 0.765625 3.484375q0.78125 1.65625 2.15625 2.53125q1.390625 0.859375 2.921875 0.859375q2.21875 0 3.8125 -1.796875q1.609375 -1.796875 1.609375 -4.875q0 -2.96875 -1.578125 -4.671875q-1.578125 -1.71875 -3.984375 -1.71875q-2.375 0 -4.046875 1.71875q-1.65625 1.703125 -1.65625 4.46875z" fill-rule="nonzero"/></g></svg>