<svg version="1.1" viewBox="0.0 0.0 580.5774278215223 100.0" fill="none" stroke="none" stroke-linecap="square" stroke-miterlimit="10" xmlns:xlink="http://www.w3.org/1999/xlink" xmlns="http://www.w3.org/2000/svg"><clipPath id="p.0"><path d="m0 0l580.57745 0l0 100.0l-580.57745 0l0 -100.0z" clip-rule="nonzero"/></clipPath><g clip-path="url(#p.0)"><path fill="#000000" fill-opacity="0.0" d="m0 0l580.57745 0l0 100.0l-580.57745 0z" fill-rule="evenodd"/><path fill="#000000" fill-opacity="0.0" d="m2.6958625 2.3622048l95.27559 0l0 95.27559l-95.27559 0z" fill-rule="evenodd"/><path stroke="#000000" stroke-width="3.0" stroke-linejoin="round" stroke-linecap="butt" d="m2.6958625 2.3622048l95.27559 0l0 95.27559l-95.27559 0z" fill-rule="evenodd"/><path fill="#000000" fill-opacity="0.0" d="m98.60597 2.3622048l95.27559 0l0 95.27559l-95.27559 0z" fill-rule="evenodd"/><path stroke="#000000" stroke-width="3.0" stroke-linejoin="round" stroke-linecap="butt" d="m98.60597 2.3622048l95.27559 0l0 95.27559l-95.27559 0z" fill-rule="evenodd"/><path fill="#000000" fill-opacity="0.0" d="m194.69586 2.3622048l95.275604 0l0 95.27559l-95.275604 0z" fill-rule="evenodd"/><path stroke="#000000" stroke-width="3.0" stroke-linejoin="round" stroke-linecap="butt" d="m194.69586 2.3622048l95.275604 0l0 95.27559l-95.275604 0z" fill-rule="evenodd"/><path fill="#000000" fill-opacity="0.0" d="m290.606 2.3622048l95.27557 0l0 95.27559l-95.27557 0z" fill-rule="evenodd"/><path stroke="#000000" stroke-width="3.0" stroke-linejoin="round" stroke-linecap="butt" d="m290.606 2.3622048l95.27557 0l0 95.27559l-95.27557 0z" fill-rule="evenodd"/><path fill="#000000" fill-opacity="0.0" d="m386.69586 2.3622048l95.275604 0l0 95.27559l-95.275604 0z" fill-rule="evenodd"/><path stroke="#000000" stroke-width="3.0" stroke-linejoin="round" stroke-linecap="butt" d="m386.69586 2.3622048l95.275604 0l0 95.27559l-95.275604 0z" fill-rule="evenodd"/><path fill="#000000" fill-opacity="0.0" d="m482.606 2.3622048l95.275604 0l0 95.27559l-95.275604 0z" fill-rule="evenodd"/><path stroke="#000000" stroke-width="3.0" stroke-linejoin="round" stroke-linecap="butt" d="m482.606 2.3622048l95.275604 0l0 95.27559l-95.275604 0z" fill-rule="evenodd"/><path fill="#000000" fill-opacity="0.0" d="m2.6981628 2.3622048l575.1811 0l0 95.27559l-575.1811 0z" fill-rule="evenodd"/></g></svg>