<svg version="1.1" viewBox="0.0 0.0 774.4094488188977 321.04199475065616" fill="none" stroke="none" stroke-linecap="square" stroke-miterlimit="10" xmlns:xlink="http://www.w3.org/1999/xlink" xmlns="http://www.w3.org/2000/svg"><clipPath id="p.0"><path d="m0 0l774.4094 0l0 321.042l-774.4094 0l0 -321.042z" clip-rule="nonzero"/></clipPath><g clip-path="url(#p.0)"><path fill="#000000" fill-opacity="0.0" d="m0 0l774.4094 0l0 321.042l-774.4094 0z" fill-rule="evenodd"/><path fill="#000000" fill-opacity="0.0" d="m72.69292 79.07874l106.267715 0l0 106.26771l-106.267715 0z" fill-rule="evenodd"/><path stroke="#000000" stroke-width="2.0" stroke-linejoin="round" stroke-linecap="butt" d="m72.69292 79.07874l106.267715 0l0 106.26771l-106.267715 0z" fill-rule="evenodd"/><path fill="#000000" fill-opacity="0.0" d="m443.80054 99.59664l56.85431 -20.97113l56.85437 20.97113l-56.85437 20.97113z" fill-rule="evenodd"/><path stroke="#000000" stroke-width="3.0" stroke-linejoin="round" stroke-linecap="butt" d="m443.80054 99.59664l56.85431 -20.97113l56.85437 20.97113l-56.85437 20.97113z" fill-rule="evenodd"/><path fill="#000000" fill-opacity="0.0" d="m74.55905 79.07846l259.1181 0" fill-rule="evenodd"/><path stroke="#434343" stroke-width="2.0" stroke-linejoin="round" stroke-linecap="butt" stroke-dasharray="2.0,6.0" d="m74.55905 79.07846l259.1181 0" fill-rule="evenodd"/><path fill="#000000" fill-opacity="0.0" d="m0 41.787403l72.69292 0l0 37.29134l-72.69292 0z" fill-rule="evenodd"/><path fill="#000000" d="m24.776999 68.04557l-1.25 0q-1.0 -1.515625 -1.515625 -3.125q-0.515625 -1.625 -0.515625 -3.140625q0 -1.890625 0.640625 -3.5625q0.5625 -1.453125 1.421875 -2.6875l1.25 0q-0.890625 1.96875 -1.234375 3.359375q-0.328125 1.375 -0.328125 2.921875q0 1.078125 0.1875 2.203125q0.203125 1.109375 0.546875 2.109375q0.234375 0.671875 0.796875 1.921875zm4.1102448 -12.390625q1.390625 0 2.171875 0.984375q0.921875 1.171875 0.921875 3.890625q0 2.703125 -0.9375 3.890625q-0.765625 0.96875 -2.15625 0.96875q-1.390625 0 -2.25 -1.0625q-0.84375 -1.078125 -0.84375 -3.8125q0 -2.703125 0.9375 -3.890625q0.765625 -0.96875 2.15625 -0.96875zm0 1.515625q-0.328125 0 -0.59375 0.21875q-0.25 0.203125 -0.40625 0.75q-0.1875 0.703125 -0.1875 2.390625q0 1.671875 0.171875 2.3125q0.171875 0.625 0.421875 0.828125q0.265625 0.203125 0.59375 0.203125q0.328125 0 0.59375 -0.203125q0.265625 -0.21875 0.40625 -0.765625q0.1875 -0.703125 0.1875 -2.375q0 -1.6875 -0.171875 -2.3125q-0.171875 -0.625 -0.4375 -0.828125q-0.25 -0.21875 -0.578125 -0.21875zm4.6624775 6.234375l1.828125 0l0 1.3125q0 0.78125 -0.140625 1.234375q-0.125 0.46875 -0.515625 0.828125q-0.375 0.375 -0.953125 0.578125l-0.359375 -0.75q0.546875 -0.1875 0.78125 -0.515625q0.234375 -0.3125 0.25 -0.859375l-0.890625 0l0 -1.828125zm10.155975 -7.75q1.390625 0 2.171875 0.984375q0.921875 1.171875 0.921875 3.890625q0 2.703125 -0.9375 3.890625q-0.765625 0.96875 -2.15625 0.96875q-1.390625 0 -2.25 -1.0625q-0.84375 -1.078125 -0.84375 -3.8125q0 -2.703125 0.9375 -3.890625q0.765625 -0.96875 2.15625 -0.96875zm0 1.515625q-0.328125 0 -0.59375 0.21875q-0.25 0.203125 -0.40625 0.75q-0.1875 0.703125 -0.1875 2.390625q0 1.671875 0.171875 2.3125q0.171875 0.625 0.421875 0.828125q0.265625 0.203125 0.59375 0.203125q0.328125 0 0.59375 -0.203125q0.265625 -0.21875 0.40625 -0.765625q0.1875 -0.703125 0.1875 -2.375q0 -1.6875 -0.171875 -2.3125q-0.171875 -0.625 -0.4375 -0.828125q-0.25 -0.21875 -0.578125 -0.21875zm4.2093506 10.875q0.53125 -1.171875 0.75 -1.796875q0.234375 -0.609375 0.421875 -1.40625q0.1875 -0.8125 0.265625 -1.53125q0.09375 -0.734375 0.09375 -1.5q0 -1.546875 -0.328125 -2.921875q-0.328125 -1.390625 -1.21875 -3.359375l1.234375 0q0.984375 1.40625 1.53125 2.96875q0.546875 1.5625 0.546875 3.1875q0 1.359375 -0.4375 2.90625q-0.484375 1.75 -1.59375 3.453125l-1.265625 0z" fill-rule="nonzero"/><path fill="#000000" fill-opacity="0.0" d="m72.69292 79.07846l0 230.20471" fill-rule="evenodd"/><path stroke="#434343" stroke-width="2.0" stroke-linejoin="round" stroke-linecap="butt" stroke-dasharray="2.0,6.0" d="m72.69292 79.07846l0 230.20471" fill-rule="evenodd"/><path fill="#000000" fill-opacity="0.0" d="m502.7586 79.16592l259.1181 0" fill-rule="evenodd"/><path stroke="#434343" stroke-width="2.0" stroke-linejoin="round" stroke-linecap="butt" stroke-dasharray="2.0,6.0" d="m502.7586 79.16592l259.1181 0" fill-rule="evenodd"/><path fill="#000000" fill-opacity="0.0" d="m484.81638 41.874855l72.6929 0l0 37.291344l-72.6929 0z" fill-rule="evenodd"/><path fill="#000000" d="m509.59335 68.133026l-1.25 0q-1.0 -1.515625 -1.515625 -3.125q-0.515625 -1.6250038 -0.515625 -3.1406288q0 -1.890625 0.640625 -3.5625q0.5625 -1.453125 1.421875 -2.6875l1.25 0q-0.890625 1.96875 -1.234375 3.359375q-0.328125 1.375 -0.328125 2.921875q0 1.078125 0.1875 2.2031288q0.203125 1.109375 0.546875 2.109375q0.234375 0.671875 0.796875 1.921875zm4.11026 -12.390629q1.390625 0 2.171875 0.984375q0.921875 1.171875 0.921875 3.890625q0 2.703125 -0.9375 3.8906288q-0.765625 0.96875 -2.15625 0.96875q-1.390625 0 -2.25 -1.0625q-0.84375 -1.0781288 -0.84375 -3.8125038q0 -2.703125 0.9375 -3.890625q0.765625 -0.96875 2.15625 -0.96875zm0 1.515625q-0.328125 0 -0.59375 0.21875q-0.25 0.203125 -0.40625 0.75q-0.1875 0.703125 -0.1875 2.390625q0 1.671875 0.171875 2.3125q0.171875 0.625 0.421875 0.828125q0.265625 0.203125 0.59375 0.203125q0.328125 0 0.59375 -0.203125q0.265625 -0.21875 0.40625 -0.765625q0.1875 -0.703125 0.1875 -2.375q0 -1.6875 -0.171875 -2.3125q-0.171875 -0.625 -0.4375 -0.828125q-0.25 -0.21875 -0.578125 -0.21875zm4.6624756 6.234375l1.828125 0l0 1.3125038q0 0.78125 -0.140625 1.234375q-0.125 0.46875 -0.515625 0.828125q-0.375 0.375 -0.953125 0.578125l-0.359375 -0.75q0.546875 -0.1875 0.78125 -0.515625q0.234375 -0.3125 0.25 -0.859375l-0.890625 0l0 -1.8281288zm10.155945 -7.75q1.390625 0 2.171875 0.984375q0.921875 1.171875 0.921875 3.890625q0 2.703125 -0.9375 3.8906288q-0.765625 0.96875 -2.15625 0.96875q-1.390625 0 -2.25 -1.0625q-0.84375 -1.0781288 -0.84375 -3.8125038q0 -2.703125 0.9375 -3.890625q0.765625 -0.96875 2.15625 -0.96875zm0 1.515625q-0.328125 0 -0.59375 0.21875q-0.25 0.203125 -0.40625 0.75q-0.1875 0.703125 -0.1875 2.390625q0 1.671875 0.171875 2.3125q0.171875 0.625 0.421875 0.828125q0.265625 0.203125 0.59375 0.203125q0.328125 0 0.59375 -0.203125q0.265625 -0.21875 0.40625 -0.765625q0.1875 -0.703125 0.1875 -2.375q0 -1.6875 -0.171875 -2.3125q-0.171875 -0.625 -0.4375 -0.828125q-0.25 -0.21875 -0.578125 -0.21875zm4.2093506 10.875004q0.53125 -1.171875 0.75 -1.796875q0.234375 -0.609375 0.421875 -1.40625q0.1875 -0.8125 0.265625 -1.5312538q0.09375 -0.734375 0.09375 -1.5q0 -1.546875 -0.328125 -2.921875q-0.328125 -1.390625 -1.21875 -3.359375l1.234375 0q0.984375 1.40625 1.53125 2.96875q0.546875 1.5625 0.546875 3.1875q0 1.359375 -0.4375 2.9062538q-0.484375 1.75 -1.59375 3.453125l-1.265625 0z" fill-rule="nonzero"/><path fill="#000000" fill-opacity="0.0" d="m500.8925 79.16592l0 209.5433" fill-rule="evenodd"/><path stroke="#434343" stroke-width="2.0" stroke-linejoin="round" stroke-linecap="butt" stroke-dasharray="2.0,6.0" d="m500.8925 79.16592l0 209.5433" fill-rule="evenodd"/><path fill="#000000" fill-opacity="0.0" d="m484.81638 120.56777l72.6929 0l0 37.291344l-72.6929 0z" fill-rule="evenodd"/><path fill="#000000" d="m505.88712 146.82594l-1.25 0q-1.0 -1.515625 -1.515625 -3.125q-0.515625 -1.625 -0.515625 -3.140625q0 -1.890625 0.640625 -3.5625q0.5625 -1.453125 1.421875 -2.6875l1.25 0q-0.890625 1.96875 -1.234375 3.359375q-0.328125 1.375 -0.328125 2.921875q0 1.078125 0.1875 2.203125q0.203125 1.109375 0.546875 2.109375q0.234375 0.671875 0.796875 1.921875zm4.11026 -12.390625q1.390625 0 2.171875 0.984375q0.921875 1.171875 0.921875 3.890625q0 2.703125 -0.9375 3.890625q-0.765625 0.96875 -2.15625 0.96875q-1.390625 0 -2.25 -1.0625q-0.84375 -1.078125 -0.84375 -3.8125q0 -2.703125 0.9375 -3.890625q0.765625 -0.96875 2.15625 -0.96875zm0 1.515625q-0.328125 0 -0.59375 0.21875q-0.25 0.203125 -0.40625 0.75q-0.1875 0.703125 -0.1875 2.390625q0 1.671875 0.171875 2.3125q0.171875 0.625 0.421875 0.828125q0.265625 0.203125 0.59375 0.203125q0.328125 0 0.59375 -0.203125q0.265625 -0.21875 0.40625 -0.765625q0.1875 -0.703125 0.1875 -2.375q0 -1.6875 -0.171875 -2.3125q-0.171875 -0.625 -0.4375 -0.828125q-0.25 -0.21875 -0.578125 -0.21875zm4.6624756 6.234375l1.828125 0l0 1.3125q0 0.78125 -0.140625 1.234375q-0.125 0.46875 -0.515625 0.828125q-0.375 0.375 -0.953125 0.578125l-0.359375 -0.75q0.546875 -0.1875 0.78125 -0.515625q0.234375 -0.3125 0.25 -0.859375l-0.890625 0l0 -1.828125zm6.999695 -0.703125l1.765625 -0.21875q0.09375 0.6875 0.453125 1.046875q0.375 0.34375 0.90625 0.34375q0.5625 0 0.953125 -0.421875q0.390625 -0.4375 0.390625 -1.15625q0 -0.6875 -0.375 -1.09375q-0.375 -0.40625 -0.90625 -0.40625q-0.34375 0 -0.84375 0.140625l0.203125 -1.5q0.75 0.03125 1.140625 -0.3125q0.390625 -0.34375 0.390625 -0.90625q0 -0.484375 -0.296875 -0.765625q-0.28125 -0.296875 -0.75 -0.296875q-0.46875 0 -0.8125 0.328125q-0.328125 0.328125 -0.390625 0.953125l-1.6875 -0.296875q0.171875 -0.859375 0.515625 -1.375q0.359375 -0.515625 1.0 -0.8125q0.640625 -0.296875 1.421875 -0.296875q1.34375 0 2.15625 0.859375q0.671875 0.703125 0.671875 1.59375q0 1.25 -1.375 2.0q0.828125 0.171875 1.3125 0.78125q0.5 0.609375 0.5 1.484375q0 1.25 -0.921875 2.140625q-0.921875 0.875 -2.28125 0.875q-1.296875 0 -2.15625 -0.734375q-0.84375 -0.75 -0.984375 -1.953125zm13.646851 0.828125l0 1.703125l-6.40625 0q0.109375 -0.96875 0.625 -1.828125q0.53125 -0.859375 2.0625 -2.28125q1.234375 -1.15625 1.515625 -1.5625q0.375 -0.5625 0.375 -1.125q0 -0.609375 -0.328125 -0.9375q-0.328125 -0.328125 -0.90625 -0.328125q-0.578125 0 -0.921875 0.34375q-0.328125 0.34375 -0.375 1.140625l-1.828125 -0.171875q0.15625 -1.515625 1.015625 -2.171875q0.859375 -0.65625 2.15625 -0.65625q1.40625 0 2.203125 0.765625q0.8125 0.75 0.8125 1.890625q0 0.640625 -0.234375 1.234375q-0.21875 0.578125 -0.71875 1.203125q-0.328125 0.4375 -1.203125 1.234375q-0.859375 0.78125 -1.09375 1.046875q-0.234375 0.25 -0.375 0.5l3.625 0zm1.1312256 4.515625q0.53125 -1.171875 0.75 -1.796875q0.234375 -0.609375 0.421875 -1.40625q0.1875 -0.8125 0.265625 -1.53125q0.09375 -0.734375 0.09375 -1.5q0 -1.546875 -0.328125 -2.921875q-0.328125 -1.390625 -1.21875 -3.359375l1.234375 0q0.984375 1.40625 1.53125 2.96875q0.546875 1.5625 0.546875 3.1875q0 1.359375 -0.4375 2.90625q-0.484375 1.75 -1.59375 3.453125l-1.265625 0z" fill-rule="nonzero"/><path fill="#000000" fill-opacity="0.0" d="m557.5093 80.95097l72.69293 0l0 37.291336l-72.69293 0z" fill-rule="evenodd"/><path fill="#000000" d="m578.58 107.20914l-1.25 0q-1.0 -1.515625 -1.515625 -3.125q-0.515625 -1.625 -0.515625 -3.140625q0 -1.890625 0.640625 -3.5625q0.5625 -1.453125 1.421875 -2.6875l1.25 0q-0.890625 1.96875 -1.234375 3.359375q-0.328125 1.375 -0.328125 2.921875q0 1.078125 0.1875 2.203125q0.203125 1.109375 0.546875 2.109375q0.234375 0.671875 0.796875 1.921875zm0.9540405 -5.34375l1.765625 -0.21875q0.09375 0.6875 0.453125 1.046875q0.375 0.34375 0.90625 0.34375q0.5625 0 0.953125 -0.421875q0.390625 -0.4375 0.390625 -1.15625q0 -0.6875 -0.375 -1.09375q-0.375 -0.40625 -0.90625 -0.40625q-0.34375 0 -0.84375 0.140625l0.203125 -1.5q0.75 0.03125 1.140625 -0.3125q0.390625 -0.34375 0.390625 -0.90625q0 -0.484375 -0.296875 -0.765625q-0.28125 -0.296875 -0.75 -0.296875q-0.46875 0 -0.8125 0.328125q-0.328125 0.328125 -0.390625 0.953125l-1.6875 -0.296875q0.171875 -0.859375 0.515625 -1.375q0.359375 -0.515625 1.0 -0.8125q0.640625 -0.296875 1.421875 -0.296875q1.34375 0 2.15625 0.859375q0.671875 0.703125 0.671875 1.59375q0 1.25 -1.375 2.0q0.828125 0.171875 1.3125 0.78125q0.5 0.609375 0.5 1.484375q0 1.25 -0.921875 2.140625q-0.921875 0.875 -2.28125 0.875q-1.296875 0 -2.15625 -0.734375q-0.84375 -0.75 -0.984375 -1.953125zm13.646851 0.828125l0 1.703125l-6.40625 0q0.109375 -0.96875 0.625 -1.828125q0.53125 -0.859375 2.0625 -2.28125q1.234375 -1.15625 1.515625 -1.5625q0.375 -0.5625 0.375 -1.125q0 -0.609375 -0.328125 -0.9375q-0.328125 -0.328125 -0.90625 -0.328125q-0.578125 0 -0.921875 0.34375q-0.328125 0.34375 -0.375 1.140625l-1.828125 -0.171875q0.15625 -1.515625 1.015625 -2.171875q0.859375 -0.65625 2.15625 -0.65625q1.40625 0 2.203125 0.765625q0.8125 0.75 0.8125 1.890625q0 0.640625 -0.234375 1.234375q-0.21875 0.578125 -0.71875 1.203125q-0.328125 0.4375 -1.203125 1.234375q-0.859375 0.78125 -1.09375 1.046875q-0.234375 0.25 -0.375 0.5l3.625 0zm1.5843506 -0.125l1.828125 0l0 1.3125q0 0.78125 -0.140625 1.234375q-0.125 0.46875 -0.515625 0.828125q-0.375 0.375 -0.953125 0.578125l-0.359375 -0.75q0.546875 -0.1875 0.78125 -0.515625q0.234375 -0.3125 0.25 -0.859375l-0.890625 0l0 -1.828125zm10.155945 -7.75q1.390625 0 2.171875 0.984375q0.921875 1.171875 0.921875 3.890625q0 2.703125 -0.9375 3.890625q-0.765625 0.96875 -2.15625 0.96875q-1.390625 0 -2.25 -1.0625q-0.84375 -1.078125 -0.84375 -3.8125q0 -2.703125 0.9375 -3.890625q0.765625 -0.96875 2.15625 -0.96875zm0 1.515625q-0.328125 0 -0.59375 0.21875q-0.25 0.203125 -0.40625 0.75q-0.1875 0.703125 -0.1875 2.390625q0 1.671875 0.171875 2.3125q0.171875 0.625 0.421875 0.828125q0.265625 0.203125 0.59375 0.203125q0.328125 0 0.59375 -0.203125q0.265625 -0.21875 0.40625 -0.765625q0.1875 -0.703125 0.1875 -2.375q0 -1.6875 -0.171875 -2.3125q-0.171875 -0.625 -0.4375 -0.828125q-0.25 -0.21875 -0.578125 -0.21875zm4.2093506 10.875q0.53125 -1.171875 0.75 -1.796875q0.234375 -0.609375 0.421875 -1.40625q0.1875 -0.8125 0.265625 -1.53125q0.09375 -0.734375 0.09375 -1.5q0 -1.546875 -0.328125 -2.921875q-0.328125 -1.390625 -1.21875 -3.359375l1.234375 0q0.984375 1.40625 1.53125 2.96875q0.546875 1.5625 0.546875 3.1875q0 1.359375 -0.4375 2.90625q-0.484375 1.75 -1.59375 3.453125l-1.265625 0z" fill-rule="nonzero"/><path fill="#000000" fill-opacity="0.0" d="m371.1077 80.95097l72.69293 0l0 37.291336l-72.69293 0z" fill-rule="evenodd"/><path fill="#000000" d="m389.9593 107.20914l-1.25 0q-1.0 -1.515625 -1.515625 -3.125q-0.515625 -1.625 -0.515625 -3.140625q0 -1.890625 0.640625 -3.5625q0.5625 -1.453125 1.421875 -2.6875l1.25 0q-0.890625 1.96875 -1.234375 3.359375q-0.328125 1.375 -0.328125 2.921875q0 1.078125 0.1875 2.203125q0.203125 1.109375 0.546875 2.109375q0.234375 0.671875 0.796875 1.921875zm1.2039795 -5.359375l0 -1.828125l3.59375 0l0 1.828125l-3.59375 0zm4.188385 0.015625l1.765625 -0.21875q0.09375 0.6875 0.453125 1.046875q0.375 0.34375 0.90625 0.34375q0.5625 0 0.953125 -0.421875q0.390625 -0.4375 0.390625 -1.15625q0 -0.6875 -0.375 -1.09375q-0.375 -0.40625 -0.90625 -0.40625q-0.34375 0 -0.84375 0.140625l0.203125 -1.5q0.75 0.03125 1.140625 -0.3125q0.390625 -0.34375 0.390625 -0.90625q0 -0.484375 -0.296875 -0.765625q-0.28125 -0.296875 -0.75 -0.296875q-0.46875 0 -0.8125 0.328125q-0.328125 0.328125 -0.390625 0.953125l-1.6875 -0.296875q0.171875 -0.859375 0.515625 -1.375q0.359375 -0.515625 1.0 -0.8125q0.640625 -0.296875 1.421875 -0.296875q1.34375 0 2.15625 0.859375q0.671875 0.703125 0.671875 1.59375q0 1.25 -1.375 2.0q0.828125 0.171875 1.3125 0.78125q0.5 0.609375 0.5 1.484375q0 1.25 -0.921875 2.140625q-0.921875 0.875 -2.28125 0.875q-1.296875 0 -2.15625 -0.734375q-0.84375 -0.75 -0.984375 -1.953125zm13.646851 0.828125l0 1.703125l-6.40625 0q0.109375 -0.96875 0.625 -1.828125q0.53125 -0.859375 2.0625 -2.28125q1.234375 -1.15625 1.515625 -1.5625q0.375 -0.5625 0.375 -1.125q0 -0.609375 -0.328125 -0.9375q-0.328125 -0.328125 -0.90625 -0.328125q-0.578125 0 -0.921875 0.34375q-0.328125 0.34375 -0.375 1.140625l-1.828125 -0.171875q0.15625 -1.515625 1.015625 -2.171875q0.859375 -0.65625 2.15625 -0.65625q1.40625 0 2.203125 0.765625q0.8125 0.75 0.8125 1.890625q0 0.640625 -0.234375 1.234375q-0.21875 0.578125 -0.71875 1.203125q-0.328125 0.4375 -1.203125 1.234375q-0.859375 0.78125 -1.09375 1.046875q-0.234375 0.25 -0.375 0.5l3.625 0zm1.5843506 -0.125l1.828125 0l0 1.3125q0 0.78125 -0.140625 1.234375q-0.125 0.46875 -0.515625 0.828125q-0.375 0.375 -0.953125 0.578125l-0.359375 -0.75q0.546875 -0.1875 0.78125 -0.515625q0.234375 -0.3125 0.25 -0.859375l-0.890625 0l0 -1.828125zm10.155975 -7.75q1.390625 0 2.171875 0.984375q0.921875 1.171875 0.921875 3.890625q0 2.703125 -0.9375 3.890625q-0.765625 0.96875 -2.15625 0.96875q-1.390625 0 -2.25 -1.0625q-0.84375 -1.078125 -0.84375 -3.8125q0 -2.703125 0.9375 -3.890625q0.765625 -0.96875 2.15625 -0.96875zm0 1.515625q-0.328125 0 -0.59375 0.21875q-0.25 0.203125 -0.40625 0.75q-0.1875 0.703125 -0.1875 2.390625q0 1.671875 0.171875 2.3125q0.171875 0.625 0.421875 0.828125q0.265625 0.203125 0.59375 0.203125q0.328125 0 0.59375 -0.203125q0.265625 -0.21875 0.40625 -0.765625q0.1875 -0.703125 0.1875 -2.375q0 -1.6875 -0.171875 -2.3125q-0.171875 -0.625 -0.4375 -0.828125q-0.25 -0.21875 -0.578125 -0.21875zm4.2093506 10.875q0.53125 -1.171875 0.75 -1.796875q0.234375 -0.609375 0.421875 -1.40625q0.1875 -0.8125 0.265625 -1.53125q0.09375 -0.734375 0.09375 -1.5q0 -1.546875 -0.328125 -2.921875q-0.328125 -1.390625 -1.21875 -3.359375l1.234375 0q0.984375 1.40625 1.53125 2.96875q0.546875 1.5625 0.546875 3.1875q0 1.359375 -0.4375 2.90625q-0.484375 1.75 -1.59375 3.453125l-1.265625 0z" fill-rule="nonzero"/><path fill="#000000" fill-opacity="0.0" d="m185.5539 177.34645l72.6929 0l0 37.29135l-72.6929 0z" fill-rule="evenodd"/><path fill="#000000" d="m202.91841 203.60463l-1.25 0q-1.0 -1.515625 -1.515625 -3.125q-0.515625 -1.625 -0.515625 -3.140625q0 -1.890625 0.640625 -3.5625q0.5625 -1.453125 1.421875 -2.6875l1.25 0q-0.890625 1.96875 -1.234375 3.359375q-0.328125 1.375 -0.328125 2.921875q0 1.078125 0.1875 2.203125q0.203125 1.109375 0.546875 2.109375q0.234375 0.671875 0.796875 1.921875zm7.2196198 -10.015625l-1.78125 0.1875q-0.0625 -0.546875 -0.34375 -0.796875q-0.265625 -0.265625 -0.703125 -0.265625q-0.578125 0 -0.984375 0.53125q-0.390625 0.515625 -0.5 2.15625q0.6875 -0.8125 1.703125 -0.8125q1.140625 0 1.953125 0.875q0.828125 0.875 0.828125 2.25q0 1.46875 -0.859375 2.359375q-0.859375 0.875 -2.203125 0.875q-1.453125 0 -2.390625 -1.109375q-0.921875 -1.125 -0.921875 -3.6875q0 -2.625 0.96875 -3.78125q0.96875 -1.15625 2.515625 -1.15625q1.09375 0 1.796875 0.609375q0.71875 0.609375 0.921875 1.765625zm-4.15625 3.984375q0 0.890625 0.40625 1.375q0.421875 0.484375 0.953125 0.484375q0.5 0 0.828125 -0.390625q0.34375 -0.390625 0.34375 -1.296875q0 -0.9375 -0.359375 -1.359375q-0.359375 -0.4375 -0.90625 -0.4375q-0.53125 0 -0.90625 0.421875q-0.359375 0.40625 -0.359375 1.203125zm8.959351 3.21875l0 -1.921875l-3.90625 0l0 -1.59375l4.140625 -6.0625l1.53125 0l0 6.046875l1.1875153 0l0 1.609375l-1.1875153 0l0 1.921875l-1.765625 0zm0 -3.53125l0 -3.25l-2.203125 3.25l2.203125 0zm4.162491 1.703125l1.828125 0l0 1.3125q0 0.78125 -0.140625 1.234375q-0.125 0.46875 -0.515625 0.828125q-0.375 0.375 -0.953125 0.578125l-0.359375 -0.75q0.546875 -0.1875 0.78125 -0.515625q0.234375 -0.3125 0.25 -0.859375l-0.890625 0l0 -1.828125zm13.26535 -5.375l-1.78125 0.1875q-0.0625 -0.546875 -0.34375 -0.796875q-0.265625 -0.265625 -0.703125 -0.265625q-0.578125 0 -0.984375 0.53125q-0.390625 0.515625 -0.5 2.15625q0.6875 -0.8125 1.703125 -0.8125q1.140625 0 1.953125 0.875q0.828125 0.875 0.828125 2.25q0 1.46875 -0.859375 2.359375q-0.859375 0.875 -2.203125 0.875q-1.453125 0 -2.390625 -1.109375q-0.921875 -1.125 -0.921875 -3.6875q0 -2.625 0.96875 -3.78125q0.96875 -1.15625 2.515625 -1.15625q1.09375 0 1.796875 0.609375q0.71875 0.609375 0.921875 1.765625zm-4.15625 3.984375q0 0.890625 0.40625 1.375q0.421875 0.484375 0.953125 0.484375q0.5 0 0.828125 -0.390625q0.34375 -0.390625 0.34375 -1.296875q0 -0.9375 -0.359375 -1.359375q-0.359375 -0.4375 -0.90625 -0.4375q-0.53125 0 -0.90625 0.421875q-0.359375 0.40625 -0.359375 1.203125zm8.959351 3.21875l0 -1.921875l-3.90625 0l0 -1.59375l4.140625 -6.0625l1.53125 0l0 6.046875l1.1875 0l0 1.609375l-1.1875 0l0 1.921875l-1.765625 0zm0 -3.53125l0 -3.25l-2.203125 3.25l2.203125 0zm3.7093506 6.34375q0.53125 -1.171875 0.75 -1.796875q0.234375 -0.609375 0.421875 -1.40625q0.1875 -0.8125 0.265625 -1.53125q0.09375 -0.734375 0.09375 -1.5q0 -1.546875 -0.328125 -2.921875q-0.328125 -1.390625 -1.21875 -3.359375l1.234375 0q0.984375 1.40625 1.53125 2.96875q0.546875 1.5625 0.546875 3.1875q0 1.359375 -0.4375 2.90625q-0.484375 1.75 -1.59375 3.453125l-1.265625 0z" fill-rule="nonzero"/><path fill="#000000" fill-opacity="0.0" d="m72.150444 78.53628l184.15747 184.15747" fill-rule="evenodd"/><path stroke="#ff9900" stroke-width="2.0" stroke-linejoin="round" stroke-linecap="butt" stroke-dasharray="16.0,6.0" d="m72.150444 78.53628l184.15747 184.15747" fill-rule="evenodd"/><path fill="#000000" fill-opacity="0.0" d="m178.96072 41.787403l72.6929 0l0 37.29134l-72.6929 0z" fill-rule="evenodd"/><path fill="#000000" d="m200.03148 68.04557l-1.25 0q-1.0 -1.515625 -1.515625 -3.125q-0.515625 -1.625 -0.515625 -3.140625q0 -1.890625 0.640625 -3.5625q0.5625 -1.453125 1.421875 -2.6875l1.25 0q-0.890625 1.96875 -1.234375 3.359375q-0.328125 1.375 -0.328125 2.921875q0 1.078125 0.1875 2.203125q0.203125 1.109375 0.546875 2.109375q0.234375 0.671875 0.796875 1.921875zm7.2196198 -10.015625l-1.78125 0.1875q-0.0625 -0.546875 -0.34375 -0.796875q-0.265625 -0.265625 -0.703125 -0.265625q-0.578125 0 -0.984375 0.53125q-0.390625 0.515625 -0.5 2.15625q0.6875 -0.8125 1.703125 -0.8125q1.140625 0 1.953125 0.875q0.828125 0.875 0.828125 2.25q0 1.46875 -0.859375 2.359375q-0.859375 0.875 -2.203125 0.875q-1.453125 0 -2.390625 -1.109375q-0.921875 -1.125 -0.921875 -3.6875q0 -2.625 0.96875 -3.78125q0.96875 -1.15625 2.515625 -1.15625q1.09375 0 1.796875 0.609375q0.71875 0.609375 0.921875 1.765625zm-4.15625 3.984375q0 0.890625 0.40625 1.375q0.421875 0.484375 0.953125 0.484375q0.5 0 0.828125 -0.390625q0.34375 -0.390625 0.34375 -1.296875q0 -0.9375 -0.359375 -1.359375q-0.359375 -0.4375 -0.90625 -0.4375q-0.53125 0 -0.90625 0.421875q-0.359375 0.40625 -0.359375 1.203125zm8.959351 3.21875l0 -1.921875l-3.90625 0l0 -1.59375l4.140625 -6.0625l1.53125 0l0 6.046875l1.1875 0l0 1.609375l-1.1875 0l0 1.921875l-1.765625 0zm0 -3.53125l0 -3.25l-2.203125 3.25l2.203125 0zm4.1624756 1.703125l1.828125 0l0 1.3125q0 0.78125 -0.140625 1.234375q-0.125 0.46875 -0.515625 0.828125q-0.375 0.375 -0.953125 0.578125l-0.359375 -0.75q0.546875 -0.1875 0.78125 -0.515625q0.234375 -0.3125 0.25 -0.859375l-0.890625 0l0 -1.828125zm10.155975 -7.75q1.390625 0 2.171875 0.984375q0.921875 1.171875 0.921875 3.890625q0 2.703125 -0.9375 3.890625q-0.765625 0.96875 -2.15625 0.96875q-1.390625 0 -2.25 -1.0625q-0.84375 -1.078125 -0.84375 -3.8125q0 -2.703125 0.9375 -3.890625q0.765625 -0.96875 2.15625 -0.96875zm0 1.515625q-0.328125 0 -0.59375 0.21875q-0.25 0.203125 -0.40625 0.75q-0.1875 0.703125 -0.1875 2.390625q0 1.671875 0.171875 2.3125q0.171875 0.625 0.421875 0.828125q0.265625 0.203125 0.59375 0.203125q0.328125 0 0.59375 -0.203125q0.265625 -0.21875 0.40625 -0.765625q0.1875 -0.703125 0.1875 -2.375q0 -1.6875 -0.171875 -2.3125q-0.171875 -0.625 -0.4375 -0.828125q-0.25 -0.21875 -0.578125 -0.21875zm4.2093506 10.875q0.53125 -1.171875 0.75 -1.796875q0.234375 -0.609375 0.421875 -1.40625q0.1875 -0.8125 0.265625 -1.53125q0.09375 -0.734375 0.09375 -1.5q0 -1.546875 -0.328125 -2.921875q-0.328125 -1.390625 -1.21875 -3.359375l1.234375 0q0.984375 1.40625 1.53125 2.96875q0.546875 1.5625 0.546875 3.1875q0 1.359375 -0.4375 2.90625q-0.484375 1.75 -1.59375 3.453125l-1.265625 0z" fill-rule="nonzero"/><path fill="#000000" fill-opacity="0.0" d="m8.923884E-5 177.34645l72.69291 0l0 37.29135l-72.69291 0z" fill-rule="evenodd"/><path fill="#000000" d="m21.07085 203.60463l-1.25 0q-1.0 -1.515625 -1.515625 -3.125q-0.515625 -1.625 -0.515625 -3.140625q0 -1.890625 0.640625 -3.5625q0.5625 -1.453125 1.421875 -2.6875l1.25 0q-0.890625 1.96875 -1.234375 3.359375q-0.328125 1.375 -0.328125 2.921875q0 1.078125 0.1875 2.203125q0.203125 1.109375 0.546875 2.109375q0.234375 0.671875 0.796875 1.921875zm4.1102448 -12.390625q1.390625 0 2.171875 0.984375q0.921875 1.171875 0.921875 3.890625q0 2.703125 -0.9375 3.890625q-0.765625 0.96875 -2.15625 0.96875q-1.390625 0 -2.25 -1.0625q-0.84375 -1.078125 -0.84375 -3.8125q0 -2.703125 0.9375 -3.890625q0.765625 -0.96875 2.15625 -0.96875zm0 1.515625q-0.328125 0 -0.59375 0.21875q-0.25 0.203125 -0.40625 0.75q-0.1875 0.703125 -0.1875 2.390625q0 1.671875 0.171875 2.3125q0.171875 0.625 0.421875 0.828125q0.265625 0.203125 0.59375 0.203125q0.328125 0 0.59375 -0.203125q0.265625 -0.21875 0.40625 -0.765625q0.1875 -0.703125 0.1875 -2.375q0 -1.6875 -0.171875 -2.3125q-0.171875 -0.625 -0.4375 -0.828125q-0.25 -0.21875 -0.578125 -0.21875zm4.6624756 6.234375l1.828125 0l0 1.3125q0 0.78125 -0.140625 1.234375q-0.125 0.46875 -0.515625 0.828125q-0.375 0.375 -0.953125 0.578125l-0.359375 -0.75q0.546875 -0.1875 0.78125 -0.515625q0.234375 -0.3125 0.25 -0.859375l-0.890625 0l0 -1.828125zm13.26535 -5.375l-1.78125 0.1875q-0.0625 -0.546875 -0.34375 -0.796875q-0.265625 -0.265625 -0.703125 -0.265625q-0.578125 0 -0.984375 0.53125q-0.390625 0.515625 -0.5 2.15625q0.6875 -0.8125 1.703125 -0.8125q1.140625 0 1.953125 0.875q0.828125 0.875 0.828125 2.25q0 1.46875 -0.859375 2.359375q-0.859375 0.875 -2.203125 0.875q-1.453125 0 -2.390625 -1.109375q-0.921875 -1.125 -0.921875 -3.6875q0 -2.625 0.96875 -3.78125q0.96875 -1.15625 2.515625 -1.15625q1.09375 0 1.796875 0.609375q0.71875 0.609375 0.921875 1.765625zm-4.15625 3.984375q0 0.890625 0.40625 1.375q0.421875 0.484375 0.953125 0.484375q0.5 0 0.828125 -0.390625q0.34375 -0.390625 0.34375 -1.296875q0 -0.9375 -0.359375 -1.359375q-0.359375 -0.4375 -0.90625 -0.4375q-0.53125 0 -0.90625 0.421875q-0.359375 0.40625 -0.359375 1.203125zm8.959351 3.21875l0 -1.921875l-3.90625 0l0 -1.59375l4.140625 -6.0625l1.53125 0l0 6.046875l1.1875 0l0 1.609375l-1.1875 0l0 1.921875l-1.765625 0zm0 -3.53125l0 -3.25l-2.203125 3.25l2.203125 0zm3.7093506 6.34375q0.53125 -1.171875 0.75 -1.796875q0.234375 -0.609375 0.421875 -1.40625q0.1875 -0.8125 0.265625 -1.53125q0.09375 -0.734375 0.09375 -1.5q0 -1.546875 -0.328125 -2.921875q-0.328125 -1.390625 -1.21875 -3.359375l1.234375 0q0.984375 1.40625 1.53125 2.96875q0.546875 1.5625 0.546875 3.1875q0 1.359375 -0.4375 2.90625q-0.484375 1.75 -1.59375 3.453125l-1.265625 0z" fill-rule="nonzero"/><path fill="#6aa84f" d="m282.04517 237.87448l19.118103 70.519684l-70.519684 -19.118103z" fill-rule="evenodd"/><path stroke="#000000" stroke-width="3.0" stroke-linejoin="round" stroke-linecap="butt" d="m282.04517 237.87448l19.118103 70.519684l-70.519684 -19.118103z" fill-rule="evenodd"/><path fill="#000000" fill-opacity="0.0" d="m72.149605 0l261.5433 0l0 37.29134l-261.5433 0z" fill-rule="evenodd"/><path fill="#000000" d="m170.31349 20.659418l2.609375 0.828125q-0.59375 2.1875 -2.0 3.25q-1.390625 1.0625 -3.546875 1.0625q-2.65625 0 -4.375 -1.8125q-1.703125 -1.828125 -1.703125 -4.984375q0 -3.328125 1.71875 -5.171875q1.71875 -1.84375 4.515625 -1.84375q2.453125 0 3.984375 1.4375q0.921875 0.859375 1.375 2.46875l-2.671875 0.640625q-0.234375 -1.046875 -0.984375 -1.640625q-0.75 -0.609375 -1.828125 -0.609375q-1.484375 0 -2.421875 1.078125q-0.921875 1.0625 -0.921875 3.4375q0 2.53125 0.90625 3.609375q0.921875 1.078125 2.375 1.078125q1.078125 0 1.84375 -0.671875q0.78125 -0.6875 1.125 -2.15625zm6.816696 -1.8125l-2.328125 -0.421875q0.40625 -1.40625 1.359375 -2.078125q0.953125 -0.671875 2.84375 -0.671875q1.703125 0 2.546875 0.40625q0.84375 0.40625 1.171875 1.03125q0.34375 0.625 0.34375 2.28125l-0.015625 3.0q0 1.265625 0.109375 1.875q0.125 0.609375 0.46875 1.296875l-2.53125 0q-0.109375 -0.25 -0.25 -0.75q-0.0625 -0.234375 -0.09375 -0.3125q-0.65625 0.640625 -1.40625 0.96875q-0.734375 0.3125 -1.59375 0.3125q-1.484375 0 -2.34375 -0.8125q-0.859375 -0.8125 -0.859375 -2.046875q0 -0.828125 0.390625 -1.46875q0.390625 -0.640625 1.09375 -0.96875q0.703125 -0.34375 2.03125 -0.609375q1.796875 -0.328125 2.484375 -0.625l0 -0.25q0 -0.75 -0.359375 -1.0625q-0.359375 -0.3125 -1.375 -0.3125q-0.6875 0 -1.078125 0.28125q-0.375 0.265625 -0.609375 0.9375zm3.421875 2.078125q-0.484375 0.15625 -1.5625 0.390625q-1.0625 0.21875 -1.390625 0.4375q-0.5 0.359375 -0.5 0.90625q0 0.53125 0.40625 0.9375q0.40625 0.390625 1.015625 0.390625q0.703125 0 1.328125 -0.46875q0.46875 -0.34375 0.609375 -0.84375q0.09375 -0.328125 0.09375 -1.25l0 -0.5zm7.500717 4.640625l-2.5625 0l0 -9.671875l2.375 0l0 1.375q0.609375 -0.984375 1.09375 -1.28125q0.484375 -0.3125 1.109375 -0.3125q0.875 0 1.6875 0.484375l-0.796875 2.234375q-0.640625 -0.421875 -1.203125 -0.421875q-0.53125 0 -0.90625 0.296875q-0.375 0.296875 -0.59375 1.078125q-0.203125 0.765625 -0.203125 3.234375l0 2.984375zm9.244644 -9.671875l0 2.03125l-1.75 0l0 3.90625q0 1.1875 0.046875 1.390625q0.046875 0.1875 0.21875 0.3125q0.1875 0.125 0.4375 0.125q0.359375 0 1.03125 -0.25l0.21875 2.0q-0.890625 0.375 -2.015625 0.375q-0.703125 0 -1.265625 -0.234375q-0.546875 -0.234375 -0.8125 -0.59375q-0.25 -0.375 -0.34375 -1.0q-0.09375 -0.453125 -0.09375 -1.8125l0 -4.21875l-1.171875 0l0 -2.03125l1.171875 0l0 -1.921875l2.578125 -1.5l0 3.421875l1.75 0zm7.368927 6.59375l2.546875 0.421875q-0.484375 1.40625 -1.546875 2.140625q-1.0625 0.734375 -2.65625 0.734375q-2.515625 0 -3.734375 -1.65625q-0.953125 -1.3125 -0.953125 -3.328125q0 -2.40625 1.25 -3.765625q1.265625 -1.359375 3.1875 -1.359375q2.15625 0 3.40625 1.421875q1.25 1.421875 1.1875 4.375l-6.40625 0q0.03125 1.140625 0.609375 1.78125q0.59375 0.625 1.484375 0.625q0.59375 0 1.0 -0.328125q0.421875 -0.328125 0.625 -1.0625zm0.15625 -2.59375q-0.03125 -1.109375 -0.578125 -1.6875q-0.546875 -0.578125 -1.328125 -0.578125q-0.84375 0 -1.390625 0.609375q-0.546875 0.609375 -0.53125 1.65625l3.828125 0zm3.7194672 2.90625l2.5625 -0.390625q0.171875 0.75 0.671875 1.140625q0.5 0.390625 1.40625 0.390625q0.984375 0 1.484375 -0.375q0.34375 -0.25 0.34375 -0.671875q0 -0.296875 -0.1875 -0.484375q-0.1875 -0.1875 -0.859375 -0.34375q-3.09375 -0.6875 -3.921875 -1.25q-1.140625 -0.78125 -1.140625 -2.171875q0 -1.265625 0.984375 -2.109375q1.0 -0.859375 3.078125 -0.859375q1.984375 0 2.953125 0.65625q0.96875 0.640625 1.328125 1.90625l-2.40625 0.4375q-0.15625 -0.5625 -0.59375 -0.859375q-0.421875 -0.296875 -1.234375 -0.296875q-1.0 0 -1.4375 0.28125q-0.296875 0.203125 -0.296875 0.515625q0 0.265625 0.25 0.46875q0.34375 0.25 2.390625 0.71875q2.046875 0.453125 2.859375 1.140625q0.796875 0.671875 0.796875 1.890625q0 1.34375 -1.109375 2.296875q-1.109375 0.953125 -3.28125 0.953125q-1.984375 0 -3.140625 -0.796875q-1.140625 -0.8125 -1.5 -2.1875zm11.281967 -8.21875l0 -2.375l2.5625 0l0 2.375l-2.5625 0zm0 10.984375l0 -9.671875l2.5625 0l0 9.671875l-2.5625 0zm7.089554 -6.71875l-2.328125 -0.421875q0.40625 -1.40625 1.359375 -2.078125q0.953125 -0.671875 2.84375 -0.671875q1.703125 0 2.546875 0.40625q0.84375 0.40625 1.171875 1.03125q0.34375 0.625 0.34375 2.28125l-0.015625 3.0q0 1.265625 0.109375 1.875q0.125 0.609375 0.46875 1.296875l-2.53125 0q-0.109375 -0.25 -0.25 -0.75q-0.0625 -0.234375 -0.09375 -0.3125q-0.65625 0.640625 -1.40625 0.96875q-0.734375 0.3125 -1.59375 0.3125q-1.484375 0 -2.34375 -0.8125q-0.859375 -0.8125 -0.859375 -2.046875q0 -0.828125 0.390625 -1.46875q0.390625 -0.640625 1.09375 -0.96875q0.703125 -0.34375 2.03125 -0.609375q1.796875 -0.328125 2.484375 -0.625l0 -0.25q0 -0.75 -0.359375 -1.0625q-0.359375 -0.3125 -1.375 -0.3125q-0.6875 0 -1.078125 0.28125q-0.375 0.265625 -0.609375 0.9375zm3.421875 2.078125q-0.484375 0.15625 -1.5625 0.390625q-1.0625 0.21875 -1.390625 0.4375q-0.5 0.359375 -0.5 0.90625q0 0.53125 0.40625 0.9375q0.40625 0.390625 1.015625 0.390625q0.703125 0 1.328125 -0.46875q0.46875 -0.34375 0.609375 -0.84375q0.09375 -0.328125 0.09375 -1.25l0 -0.5zm13.844467 4.640625l-2.5625 0l0 -4.9375q0 -1.5625 -0.171875 -2.015625q-0.15625 -0.46875 -0.53125 -0.71875q-0.359375 -0.265625 -0.875 -0.265625q-0.671875 0 -1.203125 0.375q-0.53125 0.359375 -0.734375 0.96875q-0.1875 0.59375 -0.1875 2.21875l0 4.375l-2.546875 0l0 -9.671875l2.375 0l0 1.421875q1.265625 -1.640625 3.1875 -1.640625q0.84375 0 1.546875 0.3125q0.703125 0.296875 1.0625 0.78125q0.359375 0.46875 0.5 1.078125q0.140625 0.59375 0.140625 1.703125l0 6.015625z" fill-rule="nonzero"/><path fill="#000000" fill-opacity="0.0" d="m501.54593 0.47244096l261.5433 0l0 37.291336l-261.5433 0z" fill-rule="evenodd"/><path fill="#000000" d="m592.1233 26.038109l0 -13.359375l2.6875 0l0 13.359375l-2.6875 0zm4.3395386 -2.765625l2.5625 -0.390625q0.171875 0.75 0.671875 1.140625q0.5 0.390625 1.40625 0.390625q0.984375 0 1.484375 -0.375q0.34375 -0.25 0.34375 -0.671875q0 -0.296875 -0.1875 -0.484375q-0.1875 -0.1875 -0.859375 -0.34375q-3.09375 -0.6875 -3.921875 -1.25q-1.140625 -0.78125 -1.140625 -2.171875q0 -1.265625 0.984375 -2.109375q1.0 -0.859375 3.078125 -0.859375q1.984375 0 2.953125 0.65625q0.96875 0.640625 1.328125 1.90625l-2.40625 0.4375q-0.15625 -0.5625 -0.59375 -0.859375q-0.421875 -0.296875 -1.234375 -0.296875q-1.0 0 -1.4375 0.28125q-0.296875 0.203125 -0.296875 0.515625q0 0.265625 0.25 0.46875q0.34375 0.25 2.390625 0.71875q2.046875 0.453125 2.859375 1.140625q0.796875 0.671875 0.796875 1.890625q0 1.34375 -1.109375 2.296875q-1.109375 0.953125 -3.28125 0.953125q-1.984375 0 -3.140625 -0.796875q-1.140625 -0.8125 -1.5 -2.1875zm10.688232 -2.203125q0 -1.28125 0.625 -2.46875q0.625 -1.203125 1.78125 -1.828125q1.15625 -0.625 2.578125 -0.625q2.1875 0 3.59375 1.421875q1.40625 1.421875 1.40625 3.609375q0 2.1875 -1.421875 3.640625q-1.421875 1.4375 -3.5625 1.4375q-1.328125 0 -2.546875 -0.59375q-1.203125 -0.609375 -1.828125 -1.765625q-0.625 -1.171875 -0.625 -2.828125zm2.625 0.125q0 1.453125 0.671875 2.21875q0.6875 0.75 1.6875 0.75q1.0 0 1.671875 -0.75q0.6875 -0.765625 0.6875 -2.234375q0 -1.421875 -0.6875 -2.1875q-0.671875 -0.765625 -1.671875 -0.765625q-1.0 0 -1.6875 0.765625q-0.671875 0.765625 -0.671875 2.203125zm9.161621 -4.828125l2.359375 0l0 1.3125q1.265625 -1.53125 3.015625 -1.53125q0.9375 0 1.609375 0.390625q0.6875 0.375 1.125 1.140625q0.640625 -0.765625 1.375 -1.140625q0.75 -0.390625 1.578125 -0.390625q1.0625 0 1.796875 0.4375q0.75 0.421875 1.109375 1.265625q0.265625 0.625 0.265625 2.0l0 6.1875l-2.5625 0l0 -5.53125q0 -1.4375 -0.265625 -1.859375q-0.34375 -0.546875 -1.09375 -0.546875q-0.53125 0 -1.015625 0.328125q-0.46875 0.328125 -0.671875 0.96875q-0.203125 0.625 -0.203125 2.0l0 4.640625l-2.5625 0l0 -5.296875q0 -1.421875 -0.140625 -1.828125q-0.140625 -0.40625 -0.421875 -0.609375q-0.28125 -0.203125 -0.78125 -0.203125q-0.59375 0 -1.0625 0.328125q-0.46875 0.3125 -0.6875 0.921875q-0.203125 0.59375 -0.203125 1.984375l0 4.703125l-2.5625 0l0 -9.671875zm22.385254 6.59375l2.546875 0.421875q-0.484375 1.40625 -1.546875 2.140625q-1.0625 0.734375 -2.65625 0.734375q-2.515625 0 -3.734375 -1.65625q-0.953125 -1.3125 -0.953125 -3.328125q0 -2.40625 1.25 -3.765625q1.265625 -1.359375 3.1875 -1.359375q2.15625 0 3.40625 1.421875q1.25 1.421875 1.1875 4.375l-6.40625 0q0.03125 1.140625 0.609375 1.78125q0.59375 0.625 1.484375 0.625q0.59375 0 1.0 -0.328125q0.421875 -0.328125 0.625 -1.0625zm0.15625 -2.59375q-0.03125 -1.109375 -0.578125 -1.6875q-0.546875 -0.578125 -1.328125 -0.578125q-0.84375 0 -1.390625 0.609375q-0.546875 0.609375 -0.53125 1.65625l3.828125 0zm9.063232 -4.0l0 2.03125l-1.75 0l0 3.90625q0 1.1875 0.046875 1.390625q0.046875 0.1875 0.21875 0.3125q0.1875 0.125 0.4375 0.125q0.359375 0 1.03125 -0.25l0.21875 2.0q-0.890625 0.375 -2.015625 0.375q-0.703125 0 -1.265625 -0.234375q-0.546875 -0.234375 -0.8125 -0.59375q-0.25 -0.375 -0.34375 -1.0q-0.09375 -0.453125 -0.09375 -1.8125l0 -4.21875l-1.171875 0l0 -2.03125l1.171875 0l0 -1.921875l2.578125 -1.5l0 3.421875l1.75 0zm4.2282715 9.671875l-2.5625 0l0 -9.671875l2.375 0l0 1.375q0.609375 -0.984375 1.09375 -1.28125q0.484375 -0.3125 1.109375 -0.3125q0.875 0 1.6875 0.484375l-0.796875 2.234375q-0.640625 -0.421875 -1.203125 -0.421875q-0.53125 0 -0.90625 0.296875q-0.375 0.296875 -0.59375 1.078125q-0.203125 0.765625 -0.203125 3.234375l0 2.984375zm4.80719 -10.984375l0 -2.375l2.5625 0l0 2.375l-2.5625 0zm0 10.984375l0 -9.671875l2.5625 0l0 9.671875l-2.5625 0zm13.620789 -6.8125l-2.53125 0.453125q-0.125 -0.75 -0.578125 -1.125q-0.453125 -0.390625 -1.171875 -0.390625q-0.953125 0 -1.53125 0.65625q-0.5625 0.65625 -0.5625 2.203125q0 1.734375 0.578125 2.4375q0.578125 0.703125 1.546875 0.703125q0.734375 0 1.203125 -0.40625q0.46875 -0.421875 0.65625 -1.421875l2.515625 0.421875q-0.390625 1.734375 -1.515625 2.625q-1.109375 0.875 -2.96875 0.875q-2.125 0 -3.390625 -1.328125q-1.25 -1.34375 -1.25 -3.71875q0 -2.390625 1.265625 -3.71875q1.265625 -1.34375 3.421875 -1.34375q1.765625 0 2.796875 0.765625q1.046875 0.75 1.515625 2.3125z" fill-rule="nonzero"/></g></svg>