<svg version="1.1" viewBox="0.0 0.0 500.9186351706037 319.5328083989501" fill="none" stroke="none" stroke-linecap="square" stroke-miterlimit="10" xmlns:xlink="http://www.w3.org/1999/xlink" xmlns="http://www.w3.org/2000/svg"><clipPath id="p.0"><path d="m0 0l500.91864 0l0 319.5328l-500.91864 0l0 -319.5328z" clip-rule="nonzero"/></clipPath><g clip-path="url(#p.0)"><path fill="#000000" fill-opacity="0.0" d="m0 0l500.91864 0l0 319.5328l-500.91864 0z" fill-rule="evenodd"/><path fill="#000000" fill-opacity="0.0" d="m125.95276 135.50656l111.968506 -55.98163l111.968506 55.98163l-111.968506 55.98163z" fill-rule="evenodd"/><path stroke="#000000" stroke-width="3.0" stroke-linejoin="round" stroke-linecap="butt" d="m125.95276 135.50656l111.968506 -55.98163l111.968506 55.98163l-111.968506 55.98163z" fill-rule="evenodd"/><path fill="#000000" fill-opacity="0.0" d="m237.92126 303.89502l111.968506 -55.458008l0 -111.7231l-111.968506 55.457993z" fill-rule="evenodd"/><path stroke="#000000" stroke-width="3.0" stroke-linejoin="round" stroke-linecap="butt" d="m237.92126 303.89502l111.968506 -55.458008l0 -111.7231l-111.968506 55.457993z" fill-rule="evenodd"/><path fill="#000000" fill-opacity="0.0" d="m405.73227 79.3465l0 55.968506" fill-rule="evenodd"/><path stroke="#000000" stroke-width="2.0" stroke-linejoin="round" stroke-linecap="butt" d="m405.73227 79.3465l0 55.968506" fill-rule="evenodd"/><path fill="#000000" fill-opacity="0.0" d="m405.73227 88.91601l97.25986 0l0 37.196854l-97.25986 0z" fill-rule="evenodd"/><path fill="#000000" d="m418.76456 106.17131q0.453125 -0.65625 1.109375 -1.03125q0.671875 -0.375 1.5 -0.375q0.65625 0 1.203125 0.1875q0.546875 0.1875 0.921875 0.59375q0.390625 0.40625 0.59375 1.03125q0.203125 0.625 0.203125 1.46875l0 5.328125l-1.4375 0l0 -5.34375q0 -1.03125 -0.5 -1.53125q-0.5 -0.515625 -1.421875 -0.515625q-0.6875 0 -1.265625 0.34375q-0.5625 0.34375 -0.90625 0.90625l0 6.140625l-1.453125 0l0 -12.0l1.453125 0l0 4.796875zm13.7109375 7.203125q-0.09375 -0.171875 -0.140625 -0.40625q-0.046875 -0.25 -0.078125 -0.515625q-0.21875 0.21875 -0.484375 0.421875q-0.265625 0.1875 -0.59375 0.34375q-0.328125 0.140625 -0.703125 0.21875q-0.359375 0.09375 -0.765625 0.09375q-0.671875 0 -1.21875 -0.1875q-0.546875 -0.203125 -0.921875 -0.53125q-0.375 -0.34375 -0.59375 -0.796875q-0.203125 -0.453125 -0.203125 -0.984375q0 -0.703125 0.28125 -1.21875q0.28125 -0.53125 0.78125 -0.875q0.515625 -0.34375 1.21875 -0.515625q0.71875 -0.171875 1.609375 -0.171875l1.578125 0l0 -0.671875q0 -0.375 -0.140625 -0.671875q-0.140625 -0.3125 -0.40625 -0.53125q-0.25 -0.21875 -0.625 -0.328125q-0.375 -0.125 -0.828125 -0.125q-0.4375 0 -0.78125 0.109375q-0.328125 0.109375 -0.5625 0.296875q-0.234375 0.171875 -0.375 0.421875q-0.125 0.25 -0.125 0.515625l-1.453125 0q0.015625 -0.46875 0.234375 -0.90625q0.234375 -0.453125 0.671875 -0.796875q0.4375 -0.359375 1.046875 -0.578125q0.625 -0.21875 1.421875 -0.21875q0.71875 0 1.328125 0.171875q0.625 0.171875 1.0625 0.53125q0.453125 0.359375 0.703125 0.890625q0.265625 0.53125 0.265625 1.234375l0 3.9375q0 0.421875 0.078125 0.890625q0.078125 0.46875 0.21875 0.828125l0 0.125l-1.5 0zm-2.5625 -1.109375q0.421875 0 0.78125 -0.109375q0.375 -0.109375 0.671875 -0.28125q0.3125 -0.1875 0.53125 -0.40625q0.21875 -0.234375 0.34375 -0.484375l0 -1.71875l-1.34375 0q-1.265625 0 -1.96875 0.375q-0.703125 0.375 -0.703125 1.1875q0 0.3125 0.09375 0.578125q0.109375 0.265625 0.3125 0.453125q0.21875 0.1875 0.53125 0.296875q0.328125 0.109375 0.75 0.109375zm6.8359375 -10.890625l4.3125 0l0 10.75l2.765625 0l0 1.25l-7.078125 0l0 -1.25l2.875 0l0 -9.5l-2.875 0l0 -1.25zm11.5234375 12.0l0 -7.34375l-2.328125 0l0 -1.109375l2.328125 0l0 -0.59375q0 -0.8125 0.234375 -1.421875q0.25 -0.625 0.671875 -1.03125q0.4375 -0.421875 1.046875 -0.625q0.609375 -0.21875 1.359375 -0.21875q0.515625 0 1.0 0.09375q0.5 0.078125 1.015625 0.21875l-0.171875 1.1875q-0.328125 -0.109375 -0.75 -0.1875q-0.421875 -0.078125 -0.90625 -0.078125q-1.015625 0 -1.53125 0.515625q-0.515625 0.5 -0.515625 1.546875l0 0.59375l3.265625 0l0 1.109375l-3.265625 0l0 7.34375l-1.453125 0zm14.59375 -11.375l0.015625 7.703125q-0.015625 0.796875 -0.296875 1.5q-0.265625 0.6875 -0.765625 1.203125q-0.484375 0.515625 -1.171875 0.828125q-0.671875 0.296875 -1.484375 0.296875q-0.828125 0 -1.515625 -0.296875q-0.671875 -0.296875 -1.15625 -0.8125q-0.484375 -0.53125 -0.765625 -1.21875q-0.265625 -0.703125 -0.265625 -1.5l0.015625 -7.703125l1.375 0l0.03125 7.703125q0 0.5 0.15625 0.96875q0.15625 0.46875 0.4375 0.828125q0.28125 0.359375 0.703125 0.578125q0.4375 0.21875 0.984375 0.21875q0.5625 0 0.984375 -0.203125q0.421875 -0.21875 0.703125 -0.578125q0.28125 -0.375 0.421875 -0.84375q0.15625 -0.46875 0.171875 -0.96875l0.03125 -7.703125l1.390625 0zm3.7578125 2.921875l0.109375 1.25q0.453125 -0.65625 1.125 -1.03125q0.671875 -0.375 1.5 -0.375q0.671875 0 1.203125 0.1875q0.546875 0.1875 0.921875 0.59375q0.390625 0.390625 0.59375 1.0q0.21875 0.609375 0.21875 1.453125l0 5.375l-1.453125 0l0 -5.34375q0 -0.5625 -0.125 -0.953125q-0.125 -0.390625 -0.375 -0.625q-0.234375 -0.25 -0.59375 -0.359375q-0.359375 -0.109375 -0.8125 -0.109375q-0.734375 0 -1.28125 0.375q-0.546875 0.359375 -0.875 0.953125l0 6.0625l-1.453125 0l0 -8.453125l1.296875 0zm8.5390625 0l4.3125 0l0 7.203125l2.765625 0l0 1.25l-7.078125 0l0 -1.25l2.875 0l0 -5.953125l-2.875 0l0 -1.25zm2.6875 -2.21875q0 -0.359375 0.203125 -0.609375q0.21875 -0.25 0.65625 -0.25q0.4375 0 0.65625 0.25q0.21875 0.25 0.21875 0.609375q0 0.34375 -0.21875 0.578125q-0.21875 0.234375 -0.65625 0.234375q-0.4375 0 -0.65625 -0.234375q-0.203125 -0.234375 -0.203125 -0.578125zm10.1015625 0.171875l0 2.046875l3.21875 0l0 1.109375l-3.21875 0l0 4.59375q0 0.5 0.125 0.828125q0.125 0.3125 0.34375 0.5q0.21875 0.1875 0.5 0.265625q0.296875 0.078125 0.609375 0.078125q0.234375 0 0.484375 -0.015625q0.25 -0.03125 0.484375 -0.0625q0.25 -0.046875 0.453125 -0.09375q0.203125 -0.046875 0.34375 -0.078125l0.203125 1.03125q-0.1875 0.109375 -0.453125 0.1875q-0.25 0.078125 -0.5625 0.140625q-0.296875 0.0625 -0.640625 0.09375q-0.328125 0.03125 -0.671875 0.03125q-0.5625 0 -1.046875 -0.15625q-0.484375 -0.171875 -0.84375 -0.515625q-0.359375 -0.34375 -0.578125 -0.890625q-0.203125 -0.5625 -0.203125 -1.34375l0 -4.59375l-2.21875 0l0 -1.109375l2.21875 0l0 -2.046875l1.453125 0z" fill-rule="nonzero"/><path fill="#000000" fill-opacity="0.0" d="m349.88977 37.93176l0 97.5748" fill-rule="evenodd"/><path stroke="#ff9900" stroke-width="1.0" stroke-linejoin="round" stroke-linecap="butt" stroke-dasharray="4.0,3.0" d="m349.88977 37.93176l0 97.5748" fill-rule="evenodd"/><path fill="#000000" fill-opacity="0.0" d="m238.4252 37.95013l-0.50393677 41.574802" fill-rule="evenodd"/><path stroke="#ff9900" stroke-width="1.0" stroke-linejoin="round" stroke-linecap="butt" stroke-dasharray="4.0,3.0" d="m238.4252 37.95013l-0.50393677 41.574802" fill-rule="evenodd"/><path fill="#000000" fill-opacity="0.0" d="m245.27559 0l97.25984 0l0 37.19685l-97.25984 0z" fill-rule="evenodd"/><path fill="#000000" d="m281.54614 23.286549q-0.421875 0.625 -1.0625 0.984375q-0.625 0.34375 -1.453125 0.34375q-0.65625 0 -1.203125 -0.203125q-0.53125 -0.21875 -0.921875 -0.65625q-0.375 -0.4375 -0.59375 -1.109375q-0.203125 -0.671875 -0.203125 -1.625l0 -5.015625l1.453125 0l0 5.03125q0 0.6875 0.109375 1.140625q0.109375 0.453125 0.328125 0.734375q0.21875 0.265625 0.53125 0.375q0.3125 0.109375 0.734375 0.109375q0.875 0 1.421875 -0.359375q0.546875 -0.359375 0.8125 -0.96875l0 -6.0625l1.453125 0l0 8.453125l-1.3125 0l-0.09375 -1.171875zm5.4140625 -7.28125l0.109375 1.25q0.453125 -0.65625 1.125 -1.03125q0.671875 -0.375 1.5 -0.375q0.671875 0 1.203125 0.1875q0.546875 0.1875 0.921875 0.59375q0.390625 0.390625 0.59375 1.0q0.21875 0.609375 0.21875 1.453125l0 5.375l-1.453125 0l0 -5.34375q0 -0.5625 -0.125 -0.953125q-0.125 -0.390625 -0.375 -0.625q-0.234375 -0.25 -0.59375 -0.359375q-0.359375 -0.109375 -0.8125 -0.109375q-0.734375 0 -1.28125 0.375q-0.546875 0.359375 -0.875 0.953125l0 6.0625l-1.453125 0l0 -8.453125l1.296875 0zm8.5390625 0l4.3125 0l0 7.203125l2.765625 0l0 1.25l-7.078125 0l0 -1.25l2.875 0l0 -5.953125l-2.875 0l0 -1.25zm2.6875 -2.21875q0 -0.359375 0.203125 -0.609375q0.21875 -0.25 0.65625 -0.25q0.4375 0 0.65625 0.25q0.21875 0.25 0.21875 0.609375q0 0.34375 -0.21875 0.578125q-0.21875 0.234375 -0.65625 0.234375q-0.4375 0 -0.65625 -0.234375q-0.203125 -0.234375 -0.203125 -0.578125zm10.1015625 0.171875l0 2.046875l3.21875 0l0 1.109375l-3.21875 0l0 4.59375q0 0.5 0.125 0.828125q0.125 0.3125 0.34375 0.5q0.21875 0.1875 0.5 0.265625q0.296875 0.078125 0.609375 0.078125q0.234375 0 0.484375 -0.015625q0.25 -0.03125 0.484375 -0.0625q0.25 -0.046875 0.453125 -0.09375q0.203125 -0.046875 0.34375 -0.078125l0.203125 1.03125q-0.1875 0.109375 -0.453125 0.1875q-0.25 0.078125 -0.5625 0.140625q-0.296875 0.0625 -0.640625 0.09375q-0.328125 0.03125 -0.671875 0.03125q-0.5625 0 -1.046875 -0.15625q-0.484375 -0.171875 -0.84375 -0.515625q-0.359375 -0.34375 -0.578125 -0.890625q-0.203125 -0.5625 -0.203125 -1.34375l0 -4.59375l-2.21875 0l0 -1.109375l2.21875 0l0 -2.046875l1.453125 0z" fill-rule="nonzero"/><path fill="#000000" fill-opacity="0.0" d="m237.92126 79.52493l167.811 0" fill-rule="evenodd"/><path stroke="#ff9900" stroke-width="1.0" stroke-linejoin="round" stroke-linecap="butt" stroke-dasharray="4.0,3.0" d="m237.92126 79.52493l167.811 0" fill-rule="evenodd"/><path fill="#000000" fill-opacity="0.0" d="m349.88977 135.50656l56.59842 0" fill-rule="evenodd"/><path stroke="#ff9900" stroke-width="1.0" stroke-linejoin="round" stroke-linecap="butt" stroke-dasharray="4.0,3.0" d="m349.88977 135.50656l56.59842 0" fill-rule="evenodd"/><path fill="#000000" fill-opacity="0.0" d="m366.63058 60.79882l-111.96852 0" fill-rule="evenodd"/><path stroke="#000000" stroke-width="2.0" stroke-linejoin="round" stroke-linecap="butt" d="m366.63058 60.79882l-111.96852 0" fill-rule="evenodd"/><path fill="#000000" fill-opacity="0.0" d="m96.63058 247.49173l0 -111.968506" fill-rule="evenodd"/><path stroke="#000000" stroke-width="2.0" stroke-linejoin="round" stroke-linecap="butt" d="m96.63058 247.49173l0 -111.968506" fill-rule="evenodd"/><path fill="#000000" fill-opacity="0.0" d="m125.95276 136.27296l111.968506 55.458008l0 112.16405l-111.968506 -55.458008z" fill-rule="evenodd"/><path stroke="#000000" stroke-width="3.0" stroke-linejoin="round" stroke-linecap="butt" d="m125.95276 136.27296l111.968506 55.458008l0 112.16405l-111.968506 -55.458008z" fill-rule="evenodd"/><path fill="#000000" fill-opacity="0.0" d="m125.95276 135.50656l-28.692917 1.1968536" fill-rule="evenodd"/><path stroke="#ff9900" stroke-width="1.0" stroke-linejoin="round" stroke-linecap="butt" stroke-dasharray="4.0,3.0" d="m125.95276 135.50656l-28.692917 1.1968536" fill-rule="evenodd"/><path fill="#000000" fill-opacity="0.0" d="m125.95276 247.50656l-28.692917 1.1968536" fill-rule="evenodd"/><path stroke="#ff9900" stroke-width="1.0" stroke-linejoin="round" stroke-linecap="butt" stroke-dasharray="4.0,3.0" d="m125.95276 247.50656l-28.692917 1.1968536" fill-rule="evenodd"/><path fill="#000000" fill-opacity="0.0" d="m0 172.90552l97.25984 0l0 37.19684l-97.25984 0z" fill-rule="evenodd"/><path fill="#000000" d="m36.270546 196.19206q-0.421875 0.625 -1.0625 0.984375q-0.625 0.34375 -1.453125 0.34375q-0.65625 0 -1.203125 -0.203125q-0.53125 -0.21875 -0.921875 -0.65625q-0.375 -0.4375 -0.59375 -1.109375q-0.203125 -0.671875 -0.203125 -1.625l0 -5.015625l1.453125 0l0 5.03125q0 0.6875 0.109375 1.140625q0.109375 0.453125 0.328125 0.734375q0.21875 0.265625 0.53125 0.375q0.3125 0.109375 0.734375 0.109375q0.875 0 1.421875 -0.359375q0.546875 -0.359375 0.8125 -0.96875l0 -6.0625l1.453125 0l0 8.453125l-1.3125 0l-0.09375 -1.171875zm5.4140625 -7.28125l0.109375 1.25q0.453125 -0.65625 1.125 -1.03125q0.671875 -0.375 1.5 -0.375q0.671875 0 1.203125 0.1875q0.546875 0.1875 0.921875 0.59375q0.390625 0.390625 0.59375 1.0q0.21875 0.609375 0.21875 1.453125l0 5.375l-1.453125 0l0 -5.34375q0 -0.5625 -0.125 -0.953125q-0.125 -0.390625 -0.375 -0.625q-0.234375 -0.25 -0.59375 -0.359375q-0.359375 -0.109375 -0.8125 -0.109375q-0.734375 0 -1.28125 0.375q-0.546875 0.359375 -0.875 0.953125l0 6.0625l-1.453125 0l0 -8.453125l1.296875 0zm8.5390625 0l4.3125 0l0 7.203125l2.765625 0l0 1.25l-7.078125 0l0 -1.25l2.875 0l0 -5.953125l-2.875 0l0 -1.25zm2.6875 -2.21875q0 -0.359375 0.203125 -0.609375q0.21875 -0.25 0.65625 -0.25q0.4375 0 0.65625 0.25q0.21875 0.25 0.21875 0.609375q0 0.34375 -0.21875 0.578125q-0.21875 0.234375 -0.65625 0.234375q-0.4375 0 -0.65625 -0.234375q-0.203125 -0.234375 -0.203125 -0.578125zm10.1015625 0.171875l0 2.046875l3.21875 0l0 1.109375l-3.21875 0l0 4.59375q0 0.5 0.125 0.828125q0.125 0.3125 0.34375 0.5q0.21875 0.1875 0.5 0.265625q0.296875 0.078125 0.609375 0.078125q0.234375 0 0.484375 -0.015625q0.25 -0.03125 0.484375 -0.0625q0.25 -0.046875 0.453125 -0.09375q0.203125 -0.046875 0.34375 -0.078125l0.203125 1.03125q-0.1875 0.109375 -0.453125 0.1875q-0.25 0.078125 -0.5625 0.140625q-0.296875 0.0625 -0.640625 0.09375q-0.328125 0.03125 -0.671875 0.03125q-0.5625 0 -1.046875 -0.15625q-0.484375 -0.171875 -0.84375 -0.515625q-0.359375 -0.34375 -0.578125 -0.890625q-0.203125 -0.5625 -0.203125 -1.34375l0 -4.59375l-2.21875 0l0 -1.109375l2.21875 0l0 -2.046875l1.453125 0z" fill-rule="nonzero"/><path fill="#000000" fill-opacity="0.0" d="m0 0l238.3937 0l0 50.45669l-238.3937 0z" fill-rule="evenodd"/><path fill="#000000" d="m14.703125 21.059597q-0.359375 0.515625 -0.890625 0.8125q-0.515625 0.28125 -1.203125 0.28125q-0.5625 0 -1.015625 -0.171875q-0.4375 -0.171875 -0.765625 -0.53125q-0.3125 -0.359375 -0.484375 -0.921875q-0.171875 -0.5625 -0.171875 -1.359375l0 -4.1875l1.203125 0l0 4.203125q0 0.578125 0.09375 0.953125q0.09375 0.375 0.265625 0.609375q0.1875 0.21875 0.453125 0.3125q0.265625 0.078125 0.609375 0.078125q0.734375 0 1.1875 -0.296875q0.453125 -0.296875 0.671875 -0.796875l0 -5.0625l1.203125 0l0 7.046875l-1.09375 0l-0.0625 -0.96875zm4.513809 -6.078125l0.078125 1.046875q0.390625 -0.546875 0.9375 -0.859375q0.5625 -0.3125 1.25 -0.3125q0.5625 0 1.015625 0.15625q0.453125 0.15625 0.765625 0.484375q0.328125 0.328125 0.5 0.84375q0.171875 0.515625 0.171875 1.21875l0 4.46875l-1.203125 0l0 -4.4375q0 -0.46875 -0.109375 -0.796875q-0.109375 -0.328125 -0.3125 -0.53125q-0.203125 -0.203125 -0.5 -0.296875q-0.296875 -0.09375 -0.6875 -0.09375q-0.59375 0 -1.0625 0.3125q-0.453125 0.296875 -0.71875 0.796875l0 5.046875l-1.21875 0l0 -7.046875l1.09375 0zm7.107559 0l3.59375 0l0 6.0l2.296875 0l0 1.046875l-5.890625 0l0 -1.046875l2.390625 0l0 -4.953125l-2.390625 0l0 -1.046875zm2.234375 -1.84375q0 -0.296875 0.171875 -0.5q0.1875 -0.203125 0.546875 -0.203125q0.359375 0 0.53125 0.203125q0.1875 0.203125 0.1875 0.5q0 0.296875 -0.1875 0.5q-0.171875 0.1875 -0.53125 0.1875q-0.359375 0 -0.546875 -0.1875q-0.171875 -0.203125 -0.171875 -0.5zm8.420059 0.140625l0 1.703125l2.6875 0l0 0.9375l-2.6875 0l0 3.828125q0 0.40625 0.09375 0.671875q0.109375 0.265625 0.296875 0.4375q0.1875 0.15625 0.421875 0.21875q0.234375 0.0625 0.5 0.0625q0.203125 0 0.40625 -0.015625q0.203125 -0.03125 0.40625 -0.0625q0.203125 -0.03125 0.375 -0.0625q0.171875 -0.046875 0.28125 -0.0625l0.171875 0.84375q-0.15625 0.09375 -0.375 0.171875q-0.203125 0.0625 -0.46875 0.109375q-0.25 0.046875 -0.53125 0.0625q-0.28125 0.03125 -0.5625 0.03125q-0.46875 0 -0.875 -0.125q-0.40625 -0.140625 -0.703125 -0.421875q-0.296875 -0.296875 -0.484375 -0.75q-0.171875 -0.46875 -0.171875 -1.109375l0 -3.828125l-1.84375 0l0 -0.9375l1.84375 0l0 -1.703125l1.21875 0zm50.94223 3.671875l-5.8125 0l0 -1.046875l5.8125 0l0 1.046875zm0 2.703125l-5.8125 0l0 -1.046875l5.8125 0l0 1.046875zm13.183868 1.53125q0.328125 0 0.640625 -0.09375q0.3125 -0.109375 0.546875 -0.296875q0.25 -0.1875 0.390625 -0.4375q0.140625 -0.25 0.15625 -0.546875l1.140625 0q-0.015625 0.46875 -0.25 0.90625q-0.234375 0.421875 -0.640625 0.75q-0.390625 0.3125 -0.90625 0.5q-0.515625 0.1875 -1.078125 0.1875q-0.796875 0 -1.390625 -0.28125q-0.59375 -0.28125 -1.0 -0.765625q-0.40625 -0.484375 -0.609375 -1.125q-0.1875 -0.640625 -0.1875 -1.34375l0 -0.265625q0 -0.703125 0.1875 -1.328125q0.203125 -0.640625 0.609375 -1.125q0.40625 -0.484375 1.0 -0.765625q0.59375 -0.296875 1.390625 -0.296875q0.625 0 1.15625 0.203125q0.53125 0.1875 0.90625 0.53125q0.375 0.34375 0.59375 0.8125q0.21875 0.46875 0.21875 1.0l-1.140625 0q-0.015625 -0.3125 -0.15625 -0.59375q-0.125 -0.28125 -0.359375 -0.5q-0.21875 -0.21875 -0.53125 -0.34375q-0.3125 -0.125 -0.6875 -0.125q-0.546875 0 -0.9375 0.234375q-0.375 0.21875 -0.609375 0.578125q-0.234375 0.359375 -0.34375 0.8125q-0.09375 0.453125 -0.09375 0.90625l0 0.265625q0 0.46875 0.09375 0.921875q0.109375 0.453125 0.34375 0.8125q0.234375 0.359375 0.609375 0.59375q0.375 0.21875 0.9375 0.21875zm8.123184 0.96875q-0.75 0 -1.375 -0.25q-0.609375 -0.25 -1.0625 -0.703125q-0.4375 -0.453125 -0.6875 -1.078125q-0.25 -0.625 -0.25 -1.375l0 -0.265625q0 -0.859375 0.265625 -1.53125q0.28125 -0.671875 0.734375 -1.125q0.453125 -0.46875 1.03125 -0.71875q0.578125 -0.25 1.1875 -0.25q0.75 0 1.3125 0.265625q0.578125 0.265625 0.953125 0.734375q0.375 0.453125 0.5625 1.09375q0.1875 0.625 0.1875 1.359375l0 0.546875l-5.03125 0q0.03125 0.484375 0.1875 0.90625q0.171875 0.421875 0.453125 0.734375q0.296875 0.3125 0.6875 0.5q0.40625 0.171875 0.90625 0.171875q0.640625 0 1.140625 -0.25q0.5 -0.265625 0.828125 -0.6875l0.734375 0.5625q-0.171875 0.265625 -0.4375 0.515625q-0.265625 0.25 -0.609375 0.4375q-0.34375 0.1875 -0.78125 0.296875q-0.4375 0.109375 -0.9375 0.109375zm-0.15625 -6.3125q-0.375 0 -0.703125 0.140625q-0.3125 0.125 -0.578125 0.390625q-0.265625 0.25 -0.453125 0.625q-0.171875 0.375 -0.234375 0.859375l3.78125 0l0 -0.078125q-0.015625 -0.359375 -0.140625 -0.703125q-0.109375 -0.34375 -0.328125 -0.609375q-0.21875 -0.28125 -0.5625 -0.453125q-0.328125 -0.171875 -0.78125 -0.171875zm5.232559 -3.8125l3.59375 0l0 8.953125l2.296875 0l0 1.046875l-5.890625 0l0 -1.046875l2.390625 0l0 -7.90625l-2.390625 0l0 -1.046875zm7.998184 0l3.59375 0l0 8.953125l2.296875 0l0 1.046875l-5.890625 0l0 -1.046875l2.390625 0l0 -7.90625l-2.390625 0l0 -1.046875zm9.904434 9.21875q0 -0.1875 0.046875 -0.359375q0.0625 -0.171875 0.171875 -0.296875q0.125 -0.125 0.296875 -0.203125q0.1875 -0.078125 0.421875 -0.078125q0.234375 0 0.40625 0.078125q0.1875 0.078125 0.296875 0.203125q0.125 0.125 0.1875 0.296875q0.0625 0.171875 0.0625 0.359375q0 0.1875 -0.0625 0.359375q-0.0625 0.15625 -0.1875 0.28125q-0.109375 0.125 -0.296875 0.1875q-0.171875 0.078125 -0.40625 0.078125q-0.234375 0 -0.421875 -0.078125q-0.171875 -0.0625 -0.296875 -0.1875q-0.109375 -0.125 -0.171875 -0.28125q-0.046875 -0.171875 -0.046875 -0.359375zm6.966934 -1.765625l0.140625 1.0l0.171875 -1.0l1.125 -4.5l0.78125 0l1.109375 4.5l0.203125 1.109375l0.171875 -1.109375l0.78125 -4.5l1.0625 0l-1.5 7.046875l-0.953125 0l-1.09375 -4.3125l-0.1875 -1.09375l-0.171875 1.09375l-1.078125 4.3125l-0.953125 0l-1.5 -7.046875l1.0625 0l0.828125 4.5zm7.123184 -4.5l3.59375 0l0 6.0l2.296875 0l0 1.046875l-5.890625 0l0 -1.046875l2.390625 0l0 -4.953125l-2.390625 0l0 -1.046875zm2.234375 -1.84375q0 -0.296875 0.171875 -0.5q0.1875 -0.203125 0.546875 -0.203125q0.359375 0 0.53125 0.203125q0.1875 0.203125 0.1875 0.5q0 0.296875 -0.1875 0.5q-0.171875 0.1875 -0.53125 0.1875q-0.359375 0 -0.546875 -0.1875q-0.171875 -0.203125 -0.171875 -0.5zm5.341934 5.3125q0 -0.78125 0.1875 -1.4375q0.203125 -0.671875 0.5625 -1.140625q0.375 -0.484375 0.890625 -0.75q0.53125 -0.265625 1.171875 -0.265625q0.640625 0 1.109375 0.21875q0.46875 0.203125 0.8125 0.609375l0 -3.65625l1.203125 0l0 10.0l-1.109375 0l-0.046875 -0.734375q-0.34375 0.421875 -0.84375 0.640625q-0.484375 0.21875 -1.140625 0.21875q-0.625 0 -1.15625 -0.265625q-0.515625 -0.28125 -0.875 -0.75q-0.359375 -0.484375 -0.5625 -1.140625q-0.203125 -0.65625 -0.203125 -1.40625l0 -0.140625zm1.203125 0.140625q0 0.515625 0.109375 0.984375q0.109375 0.453125 0.34375 0.8125q0.234375 0.34375 0.578125 0.546875q0.359375 0.203125 0.875 0.203125q0.296875 0 0.546875 -0.0625q0.25 -0.078125 0.453125 -0.203125q0.203125 -0.140625 0.359375 -0.328125q0.15625 -0.1875 0.265625 -0.421875l0 -3.265625q-0.234375 -0.421875 -0.640625 -0.703125q-0.390625 -0.28125 -0.984375 -0.28125q-0.5 0 -0.859375 0.21875q-0.359375 0.203125 -0.59375 0.5625q-0.234375 0.34375 -0.34375 0.8125q-0.109375 0.46875 -0.109375 0.984375l0 0.140625zm9.873184 -5.3125l0 1.703125l2.6875 0l0 0.9375l-2.6875 0l0 3.828125q0 0.40625 0.09375 0.671875q0.109375 0.265625 0.296875 0.4375q0.1875 0.15625 0.421875 0.21875q0.234375 0.0625 0.5 0.0625q0.203125 0 0.40625 -0.015625q0.203125 -0.03125 0.40625 -0.0625q0.203125 -0.03125 0.375 -0.0625q0.171875 -0.046875 0.28125 -0.0625l0.171875 0.84375q-0.15625 0.09375 -0.375 0.171875q-0.203125 0.0625 -0.46875 0.109375q-0.25 0.046875 -0.53125 0.0625q-0.28125 0.03125 -0.5625 0.03125q-0.46875 0 -0.875 -0.125q-0.40625 -0.140625 -0.703125 -0.421875q-0.296875 -0.296875 -0.484375 -0.75q-0.171875 -0.46875 -0.171875 -1.109375l0 -3.828125l-1.84375 0l0 -0.9375l1.84375 0l0 -1.703125l1.21875 0zm6.357559 2.75q0.375 -0.546875 0.921875 -0.859375q0.546875 -0.3125 1.25 -0.3125q0.546875 0 1.0 0.15625q0.453125 0.15625 0.765625 0.5q0.328125 0.34375 0.5 0.859375q0.171875 0.515625 0.171875 1.21875l0 4.4375l-1.203125 0l0 -4.4375q0 -0.875 -0.421875 -1.296875q-0.40625 -0.421875 -1.171875 -0.421875q-0.578125 0 -1.0625 0.296875q-0.46875 0.28125 -0.75 0.75l0 5.109375l-1.21875 0l0 -10.0l1.21875 0l0 4.0zm16.371368 6.8125l-1.078125 0l3.953125 -10.28125l1.078125 0l-3.953125 10.28125zm20.215118 -0.8125l-6.203125 0l0 -0.859375l3.109375 -3.453125q0.40625 -0.46875 0.6875 -0.828125q0.28125 -0.359375 0.453125 -0.65625q0.171875 -0.296875 0.234375 -0.5625q0.078125 -0.28125 0.078125 -0.5625q0 -0.359375 -0.125 -0.65625q-0.109375 -0.3125 -0.328125 -0.53125q-0.203125 -0.234375 -0.515625 -0.359375q-0.3125 -0.140625 -0.703125 -0.140625q-0.46875 0 -0.828125 0.140625q-0.34375 0.125 -0.578125 0.375q-0.234375 0.25 -0.34375 0.609375q-0.109375 0.359375 -0.109375 0.796875l-1.21875 0q0 -0.59375 0.203125 -1.125q0.21875 -0.53125 0.609375 -0.921875q0.390625 -0.40625 0.953125 -0.640625q0.578125 -0.234375 1.3125 -0.234375q0.671875 0 1.203125 0.203125q0.546875 0.203125 0.90625 0.5625q0.375 0.34375 0.578125 0.828125q0.203125 0.46875 0.203125 1.046875q0 0.421875 -0.15625 0.828125q-0.140625 0.40625 -0.390625 0.8125q-0.234375 0.40625 -0.5625 0.8125q-0.3125 0.390625 -0.671875 0.78125l-2.546875 2.75l4.75 0l0 0.984375z" fill-rule="nonzero"/><path fill="#000000" d="m11.34375 32.028347q0.375 -0.546875 0.921875 -0.859375q0.546875 -0.3125 1.25 -0.3125q0.546875 0 1.0 0.15625q0.453125 0.15625 0.765625 0.5q0.328125 0.34375 0.5 0.859375q0.171875 0.515625 0.171875 1.21875l0 4.4375l-1.203125 0l0 -4.4375q0 -0.875 -0.421875 -1.296875q-0.40625 -0.421875 -1.171875 -0.421875q-0.578125 0 -1.0625 0.296875q-0.46875 0.28125 -0.75 0.75l0 5.109375l-1.21875 0l0 -10.0l1.21875 0l0 4.0zm11.420059 6.0q-0.078125 -0.140625 -0.125 -0.34375q-0.03125 -0.203125 -0.0625 -0.421875q-0.171875 0.1875 -0.40625 0.34375q-0.21875 0.15625 -0.5 0.28125q-0.265625 0.125 -0.578125 0.1875q-0.296875 0.078125 -0.640625 0.078125q-0.5625 0 -1.015625 -0.15625q-0.453125 -0.15625 -0.765625 -0.4375q-0.3125 -0.28125 -0.484375 -0.65625q-0.171875 -0.390625 -0.171875 -0.828125q0 -0.578125 0.234375 -1.015625q0.234375 -0.4375 0.65625 -0.71875q0.421875 -0.296875 1.015625 -0.4375q0.59375 -0.140625 1.328125 -0.140625l1.3125 0l0 -0.5625q0 -0.3125 -0.125 -0.5625q-0.109375 -0.265625 -0.328125 -0.4375q-0.203125 -0.171875 -0.515625 -0.265625q-0.3125 -0.109375 -0.703125 -0.109375q-0.34375 0 -0.640625 0.09375q-0.28125 0.09375 -0.484375 0.25q-0.1875 0.140625 -0.296875 0.34375q-0.09375 0.203125 -0.09375 0.421875l-1.21875 0q0.015625 -0.375 0.203125 -0.75q0.1875 -0.375 0.546875 -0.671875q0.359375 -0.296875 0.875 -0.46875q0.53125 -0.1875 1.1875 -0.1875q0.59375 0 1.109375 0.15625q0.515625 0.140625 0.890625 0.4375q0.375 0.296875 0.578125 0.734375q0.21875 0.4375 0.21875 1.03125l0 3.28125q0 0.34375 0.0625 0.75q0.0625 0.390625 0.1875 0.671875l0 0.109375l-1.25 0zm-2.140625 -0.921875q0.359375 0 0.65625 -0.078125q0.3125 -0.09375 0.5625 -0.25q0.25 -0.15625 0.421875 -0.34375q0.1875 -0.1875 0.296875 -0.390625l0 -1.4375l-1.125 0q-1.046875 0 -1.640625 0.3125q-0.578125 0.3125 -0.578125 0.984375q0 0.265625 0.078125 0.484375q0.09375 0.21875 0.265625 0.390625q0.1875 0.15625 0.453125 0.25q0.265625 0.078125 0.609375 0.078125zm5.701309 -9.078125l3.59375 0l0 8.953125l2.296875 0l0 1.046875l-5.890625 0l0 -1.046875l2.390625 0l0 -7.90625l-2.390625 0l0 -1.046875zm9.591934 10.0l0 -6.109375l-1.9375 0l0 -0.9375l1.9375 0l0 -0.484375q0 -0.6875 0.203125 -1.1875q0.203125 -0.515625 0.5625 -0.859375q0.359375 -0.34375 0.859375 -0.515625q0.515625 -0.1875 1.140625 -0.1875q0.4375 0 0.84375 0.078125q0.40625 0.078125 0.828125 0.1875l-0.140625 0.984375q-0.265625 -0.09375 -0.625 -0.15625q-0.359375 -0.0625 -0.75 -0.0625q-0.859375 0 -1.28125 0.421875q-0.421875 0.421875 -0.421875 1.296875l0 0.484375l2.71875 0l0 0.9375l-2.71875 0l0 6.109375l-1.21875 0zm12.160934 -9.46875l0.015625 6.40625q-0.015625 0.671875 -0.25 1.25q-0.21875 0.578125 -0.625 1.015625q-0.40625 0.421875 -0.984375 0.671875q-0.5625 0.25 -1.234375 0.25q-0.6875 0 -1.265625 -0.234375q-0.5625 -0.25 -0.96875 -0.6875q-0.40625 -0.4375 -0.640625 -1.015625q-0.21875 -0.578125 -0.21875 -1.25l0.015625 -6.40625l1.140625 0l0.03125 6.40625q0 0.421875 0.125 0.8125q0.125 0.390625 0.359375 0.703125q0.25 0.296875 0.59375 0.484375q0.359375 0.171875 0.828125 0.171875q0.453125 0 0.796875 -0.171875q0.359375 -0.1875 0.59375 -0.484375q0.25 -0.3125 0.375 -0.703125q0.125 -0.390625 0.125 -0.8125l0.03125 -6.40625l1.15625 0zm3.1388092 2.421875l0.078125 1.046875q0.390625 -0.546875 0.9375 -0.859375q0.5625 -0.3125 1.25 -0.3125q0.5625 0 1.015625 0.15625q0.453125 0.15625 0.765625 0.484375q0.328125 0.328125 0.5 0.84375q0.171875 0.515625 0.171875 1.21875l0 4.46875l-1.203125 0l0 -4.4375q0 -0.46875 -0.109375 -0.796875q-0.109375 -0.328125 -0.3125 -0.53125q-0.203125 -0.203125 -0.5 -0.296875q-0.296875 -0.09375 -0.6875 -0.09375q-0.59375 0 -1.0625 0.3125q-0.453125 0.296875 -0.71875 0.796875l0 5.046875l-1.21875 0l0 -7.046875l1.09375 0zm7.107559 0l3.59375 0l0 6.0l2.296875 0l0 1.046875l-5.890625 0l0 -1.046875l2.390625 0l0 -4.953125l-2.390625 0l0 -1.046875zm2.234375 -1.84375q0 -0.296875 0.171875 -0.5q0.1875 -0.203125 0.546875 -0.203125q0.359375 0 0.53125 0.203125q0.1875 0.203125 0.1875 0.5q0 0.296875 -0.1875 0.5q-0.171875 0.1875 -0.53125 0.1875q-0.359375 0 -0.546875 -0.1875q-0.171875 -0.203125 -0.171875 -0.5zm8.420059 0.140625l0 1.703125l2.6875 0l0 0.9375l-2.6875 0l0 3.828125q0 0.40625 0.09375 0.671875q0.109375 0.265625 0.296875 0.4375q0.1875 0.15625 0.421875 0.21875q0.234375 0.0625 0.5 0.0625q0.203125 0 0.40625 -0.015625q0.203125 -0.03125 0.40625 -0.0625q0.203125 -0.03125 0.375 -0.0625q0.171875 -0.046875 0.28125 -0.0625l0.171875 0.84375q-0.15625 0.09375 -0.375 0.171875q-0.203125 0.0625 -0.46875 0.109375q-0.25 0.046875 -0.53125 0.0625q-0.28125 0.03125 -0.5625 0.03125q-0.46875 0 -0.875 -0.125q-0.40625 -0.140625 -0.703125 -0.421875q-0.296875 -0.296875 -0.484375 -0.75q-0.171875 -0.46875 -0.171875 -1.109375l0 -3.828125l-1.84375 0l0 -0.9375l1.84375 0l0 -1.703125l1.21875 0zm18.949493 3.671875l-5.8125 0l0 -1.046875l5.8125 0l0 1.046875zm0 2.703125l-5.8125 0l0 -1.046875l5.8125 0l0 1.046875zm14.761993 1.40625q-0.359375 0.515625 -0.890625 0.8125q-0.515625 0.28125 -1.203125 0.28125q-0.5625 0 -1.015625 -0.171875q-0.4375 -0.171875 -0.765625 -0.53125q-0.3125 -0.359375 -0.484375 -0.921875q-0.171875 -0.5625 -0.171875 -1.359375l0 -4.1875l1.203125 0l0 4.203125q0 0.578125 0.09375 0.953125q0.09375 0.375 0.265625 0.609375q0.1875 0.21875 0.453125 0.3125q0.265625 0.078125 0.609375 0.078125q0.734375 0 1.1875 -0.296875q0.453125 -0.296875 0.671875 -0.796875l0 -5.0625l1.203125 0l0 7.046875l-1.09375 0l-0.0625 -0.96875zm4.513809 -6.078125l0.078125 1.046875q0.390625 -0.546875 0.9375 -0.859375q0.5625 -0.3125 1.25 -0.3125q0.5625 0 1.015625 0.15625q0.453125 0.15625 0.765625 0.484375q0.328125 0.328125 0.5 0.84375q0.171875 0.515625 0.171875 1.21875l0 4.46875l-1.203125 0l0 -4.4375q0 -0.46875 -0.109375 -0.796875q-0.109375 -0.328125 -0.3125 -0.53125q-0.203125 -0.203125 -0.5 -0.296875q-0.296875 -0.09375 -0.6875 -0.09375q-0.59375 0 -1.0625 0.3125q-0.453125 0.296875 -0.71875 0.796875l0 5.046875l-1.21875 0l0 -7.046875l1.09375 0zm7.107559 0l3.59375 0l0 6.0l2.296875 0l0 1.046875l-5.890625 0l0 -1.046875l2.390625 0l0 -4.953125l-2.390625 0l0 -1.046875zm2.234375 -1.84375q0 -0.296875 0.171875 -0.5q0.1875 -0.203125 0.546875 -0.203125q0.359375 0 0.53125 0.203125q0.1875 0.203125 0.1875 0.5q0 0.296875 -0.1875 0.5q-0.171875 0.1875 -0.53125 0.1875q-0.359375 0 -0.546875 -0.1875q-0.171875 -0.203125 -0.171875 -0.5zm8.420059 0.140625l0 1.703125l2.6875 0l0 0.9375l-2.6875 0l0 3.828125q0 0.40625 0.09375 0.671875q0.109375 0.265625 0.296875 0.4375q0.1875 0.15625 0.421875 0.21875q0.234375 0.0625 0.5 0.0625q0.203125 0 0.40625 -0.015625q0.203125 -0.03125 0.40625 -0.0625q0.203125 -0.03125 0.375 -0.0625q0.171875 -0.046875 0.28125 -0.0625l0.171875 0.84375q-0.15625 0.09375 -0.375 0.171875q-0.203125 0.0625 -0.46875 0.109375q-0.25 0.046875 -0.53125 0.0625q-0.28125 0.03125 -0.5625 0.03125q-0.46875 0 -0.875 -0.125q-0.40625 -0.140625 -0.703125 -0.421875q-0.296875 -0.296875 -0.484375 -0.75q-0.171875 -0.46875 -0.171875 -1.109375l0 -3.828125l-1.84375 0l0 -0.9375l1.84375 0l0 -1.703125l1.21875 0zm14.730743 9.5625l-1.078125 0l3.953125 -10.28125l1.078125 0l-3.953125 10.28125zm20.215118 -0.8125l-6.203125 0l0 -0.859375l3.109375 -3.453125q0.40625 -0.46875 0.6875 -0.828125q0.28125 -0.359375 0.453125 -0.65625q0.171875 -0.296875 0.234375 -0.5625q0.078125 -0.28125 0.078125 -0.5625q0 -0.359375 -0.125 -0.65625q-0.109375 -0.3125 -0.328125 -0.53125q-0.203125 -0.234375 -0.515625 -0.359375q-0.3125 -0.140625 -0.703125 -0.140625q-0.46875 0 -0.828125 0.140625q-0.34375 0.125 -0.578125 0.375q-0.234375 0.25 -0.34375 0.609375q-0.109375 0.359375 -0.109375 0.796875l-1.21875 0q0 -0.59375 0.203125 -1.125q0.21875 -0.53125 0.609375 -0.921875q0.390625 -0.40625 0.953125 -0.640625q0.578125 -0.234375 1.3125 -0.234375q0.671875 0 1.203125 0.203125q0.546875 0.203125 0.90625 0.5625q0.375 0.34375 0.578125 0.828125q0.203125 0.46875 0.203125 1.046875q0 0.421875 -0.15625 0.828125q-0.140625 0.40625 -0.390625 0.8125q-0.234375 0.40625 -0.5625 0.8125q-0.3125 0.390625 -0.671875 0.78125l-2.546875 2.75l4.75 0l0 0.984375z" fill-rule="nonzero"/></g></svg>